{"glyphs":{"0":{"ha":1158,"x_min":21,"x_max":1139,"o":"m 1138 538 q 1089 328 1138 432 q 1079 322 1085 322 q 1110 399 1089 331 q 1131 496 1131 468 q 1127 501 1131 499 q 1122 504 1124 503 l 1122 506 q 1121 496 1121 504 l 1114 496 l 1114 514 q 1092 525 1101 518 q 1083 508 1082 519 q 1071 504 1075 508 l 1063 504 q 1065 521 1063 514 q 1058 529 1060 524 q 1021 504 1046 494 q 1014 476 1021 508 l 1003 476 q 999 481 1003 476 q 986 472 996 472 q 951 486 974 472 q 940 494 949 489 q 922 500 932 500 q 911 493 914 500 l 904 493 l 904 503 q 899 504 903 504 q 886 492 901 504 q 868 483 881 488 q 881 482 872 481 q 849 475 854 482 q 868 472 856 474 q 840 458 865 467 q 861 457 847 456 q 851 438 861 449 q 871 433 857 436 q 849 428 874 433 q 872 422 857 426 q 853 418 868 424 q 860 413 854 413 q 849 410 853 413 q 856 404 849 404 q 843 396 850 400 q 857 392 849 394 l 844 392 q 840 382 843 389 q 892 374 872 378 q 908 369 899 372 l 906 368 q 928 365 911 365 q 917 358 924 364 q 960 350 932 358 q 943 347 951 350 q 954 342 946 342 q 943 339 949 342 q 968 335 951 335 q 947 324 964 333 q 928 317 936 317 q 921 319 925 317 q 915 321 917 321 l 850 321 q 832 317 843 321 q 847 314 838 314 q 811 310 836 313 q 826 306 817 308 q 817 301 824 304 q 807 297 811 299 q 819 293 815 293 q 801 290 808 293 q 814 285 804 285 q 778 276 801 281 q 794 272 785 275 q 782 269 785 272 q 789 264 789 264 q 778 262 785 263 q 769 260 772 261 q 789 256 776 258 q 772 246 769 251 q 751 244 760 247 q 767 243 754 243 q 765 235 757 235 q 758 232 763 232 q 761 226 757 231 q 754 219 753 224 q 751 211 756 215 q 768 203 757 207 q 749 193 757 204 q 740 190 747 193 q 761 181 757 179 q 755 178 760 181 q 746 176 750 176 q 749 174 743 174 q 736 164 744 172 q 753 158 743 163 q 739 150 739 157 q 725 149 735 150 q 736 142 729 146 l 726 142 q 728 133 728 139 q 713 131 717 133 q 729 128 717 128 q 725 125 729 128 q 731 121 731 121 q 724 117 728 121 q 733 114 728 114 l 729 108 q 738 89 733 99 q 753 82 742 79 q 749 76 749 78 q 751 69 749 67 q 782 69 764 67 l 782 58 q 761 53 775 57 q 767 47 764 51 q 822 68 796 57 q 847 82 829 71 q 867 93 865 93 l 885 93 q 579 -1 758 -1 q 282 83 426 -1 q 221 125 264 97 q 217 132 221 128 q 49 389 86 249 q 38 428 43 407 q 101 436 53 431 q 64 435 85 439 l 64 446 q 38 446 50 449 l 38 460 q 68 458 43 451 q 50 460 61 461 l 50 472 q 46 475 51 475 q 43 473 43 475 q 40 471 43 471 l 29 471 q 22 518 22 517 l 22 542 l 29 542 q 32 546 32 544 q 21 549 28 549 q 24 599 21 565 q 207 974 38 817 q 215 978 210 975 q 218 983 217 978 q 393 1082 289 1046 q 576 1115 488 1115 q 589 1110 585 1115 q 615 1108 599 1110 q 636 1101 621 1106 q 615 1099 625 1103 q 629 1090 624 1090 q 633 1092 632 1090 q 636 1094 635 1094 q 649 1089 631 1094 q 652 1083 649 1085 q 681 1081 656 1082 q 674 1076 678 1081 q 696 1069 681 1075 q 682 1068 688 1071 q 699 1064 694 1064 q 686 1061 692 1064 q 693 1060 688 1061 q 700 1057 699 1058 q 682 1056 690 1058 q 696 1050 683 1054 q 688 1046 693 1050 q 711 1040 696 1044 q 699 1039 701 1042 q 749 1036 713 1036 q 747 1031 750 1033 q 776 1021 758 1028 q 764 1018 772 1021 q 774 1015 767 1017 q 785 1014 781 1014 q 768 1011 775 1014 q 793 1010 774 1010 q 794 1004 793 1006 q 790 1000 794 1000 q 790 986 790 1000 q 753 969 786 986 q 763 966 758 968 q 767 961 768 964 q 772 958 767 958 q 779 958 774 958 q 789 960 783 960 q 785 953 789 957 q 807 949 793 951 q 793 946 799 949 q 810 943 799 946 q 806 940 808 942 q 801 939 803 939 q 815 936 806 936 q 806 929 814 933 q 810 928 807 928 l 810 921 q 785 915 801 919 q 799 911 790 913 q 785 901 797 910 q 799 900 789 901 q 814 899 808 899 q 810 897 813 897 q 807 894 808 896 q 818 890 811 893 q 810 888 811 890 q 818 886 811 886 q 814 883 817 885 q 810 879 811 881 q 815 875 815 874 q 797 874 801 875 q 818 872 801 872 q 814 867 818 871 q 819 860 814 867 q 799 858 813 861 q 818 855 806 858 q 836 850 831 851 q 828 849 833 851 q 856 844 846 844 q 847 840 851 844 q 853 838 849 838 q 844 836 847 838 q 851 826 846 832 q 839 824 843 828 q 857 821 844 821 q 841 819 853 819 q 824 817 829 818 q 844 811 832 815 q 832 808 840 811 q 843 807 835 807 q 815 796 833 806 q 843 796 828 793 q 840 792 843 793 q 853 788 844 790 q 835 785 843 788 q 858 781 840 781 q 881 776 875 782 q 867 769 874 769 q 863 772 864 769 q 861 774 863 774 q 857 769 857 769 q 888 767 868 767 q 860 758 875 767 q 865 749 865 747 q 843 746 858 749 q 867 742 851 744 q 851 739 858 742 q 861 738 853 738 q 868 724 863 733 q 856 717 864 725 q 889 703 876 704 q 856 697 879 700 q 844 690 854 697 q 878 678 858 690 q 889 678 881 678 q 936 686 913 678 q 946 692 936 686 q 931 694 939 694 q 936 699 933 699 q 926 718 938 713 q 947 722 935 718 q 938 724 944 724 q 926 726 931 725 q 950 732 943 732 q 988 726 956 732 q 979 725 981 726 q 996 714 985 713 q 971 708 982 711 q 993 706 976 704 q 968 700 985 704 q 996 690 976 696 q 993 679 997 685 q 1006 674 1003 674 q 1001 671 1001 674 q 1017 669 1006 669 l 1017 657 q 1007 656 1011 658 q 1021 654 1008 654 l 1021 642 q 1011 640 1015 643 q 1024 629 1011 638 q 1015 626 1019 629 q 1022 621 1019 621 q 1038 621 1036 621 q 1029 617 1035 617 l 1028 610 q 1038 601 1031 610 q 1046 625 1046 611 l 1053 625 q 1058 622 1054 622 q 1051 633 1056 625 q 1044 636 1050 638 q 1050 651 1051 643 l 1058 651 q 1063 638 1058 644 q 1070 643 1064 640 q 1078 649 1076 646 q 1085 646 1083 649 q 1097 606 1089 632 q 1099 643 1103 615 q 1110 638 1104 640 q 1110 660 1110 636 q 1117 657 1113 660 q 1115 671 1115 656 q 1129 658 1122 667 q 1138 585 1139 594 l 1138 574 q 1128 569 1132 574 q 1138 567 1129 567 l 1138 538 m 122 422 q 51 418 121 424 l 111 418 q 118 420 114 418 q 122 422 122 422 z "},"1":{"ha":675,"x_min":22,"x_max":653,"o":"m 653 942 q 635 928 653 932 l 549 926 q 639 861 639 888 q 621 847 639 847 q 596 860 615 847 q 532 897 576 872 q 547 864 547 868 q 542 850 547 861 q 536 836 536 839 q 554 811 536 842 q 567 826 565 826 q 579 821 574 826 q 586 836 582 824 q 599 843 589 843 q 615 829 615 843 q 606 807 615 838 l 606 804 q 614 808 610 808 q 629 792 629 808 q 607 765 629 788 q 617 735 617 749 q 603 692 617 707 q 578 664 590 678 q 583 660 582 660 l 592 660 q 601 667 593 660 q 613 674 610 674 q 622 657 622 674 q 619 643 622 657 q 614 638 618 642 q 572 588 589 588 q 563 596 568 588 q 558 593 561 596 q 529 533 558 533 q 523 536 528 533 q 515 539 518 539 q 510 535 514 539 q 503 532 506 532 q 490 540 499 532 q 492 542 490 540 q 496 543 494 543 q 485 568 485 561 q 489 592 485 575 q 500 614 490 599 q 496 624 499 617 q 503 663 493 643 q 518 679 508 668 q 517 701 518 679 q 517 722 517 711 q 522 756 515 742 q 535 778 535 778 q 500 806 518 792 q 493 804 497 806 q 486 803 489 803 q 453 826 472 803 q 431 865 438 846 l 411 865 q 416 840 410 860 q 422 814 422 821 q 417 808 422 811 q 411 803 413 804 q 404 785 410 796 q 393 769 400 781 q 407 746 401 765 q 397 746 396 746 q 411 738 399 743 q 428 672 428 708 q 424 644 428 663 q 389 607 410 646 q 396 603 392 607 q 407 593 400 600 q 407 604 407 593 q 422 636 407 636 q 438 593 429 636 q 442 596 440 593 q 450 599 444 599 q 465 592 446 599 q 468 569 468 567 q 456 563 464 563 q 444 563 450 563 q 442 536 444 554 q 442 493 446 533 q 444 479 443 501 q 442 446 442 468 q 444 431 444 433 q 441 415 444 426 q 438 403 438 404 q 447 394 438 399 l 453 400 q 476 353 463 394 q 490 325 479 347 q 506 257 506 292 q 506 240 506 243 q 501 235 504 239 q 497 228 497 231 q 497 218 497 225 q 497 208 497 211 q 497 189 497 188 q 515 133 515 178 q 463 67 515 79 l 463 60 q 469 56 467 58 q 475 49 472 53 q 485 39 478 46 q 492 24 492 32 l 492 10 l 456 10 q 457 19 457 18 q 454 21 456 21 q 451 10 451 18 q 400 7 438 10 q 399 18 399 11 q 428 69 399 61 q 396 89 403 79 q 385 135 385 104 q 388 169 385 153 q 392 176 389 171 q 394 182 394 181 q 393 202 394 185 q 390 226 392 219 q 385 244 388 233 q 379 288 379 276 q 388 336 379 285 q 388 367 388 351 q 394 390 389 390 q 401 388 397 390 q 410 403 410 393 q 403 436 410 413 q 404 439 403 436 q 406 443 406 442 l 406 450 q 392 451 404 451 q 383 543 393 485 q 339 526 367 526 q 296 543 310 526 q 289 451 289 457 q 276 450 285 449 q 276 436 276 451 q 274 416 276 431 q 271 400 271 401 q 281 385 271 385 q 289 389 279 385 q 296 367 294 378 q 294 336 294 357 q 303 283 303 303 q 297 232 303 281 q 290 182 290 183 q 297 165 290 186 q 301 132 301 151 q 261 67 301 79 q 286 33 278 61 q 289 19 289 25 l 289 6 l 236 6 q 233 19 238 11 q 229 6 232 15 l 196 6 l 196 18 q 201 35 196 25 q 214 44 204 39 q 225 58 215 56 l 225 63 q 222 65 224 64 q 171 132 171 71 q 176 168 171 149 q 186 186 181 174 q 188 206 188 188 q 183 233 188 229 q 178 253 178 236 q 206 349 178 296 q 213 375 208 358 q 224 396 217 382 q 228 397 224 396 l 233 392 q 243 401 243 399 q 240 415 243 403 q 236 436 238 428 q 239 443 238 439 q 235 475 239 454 q 239 483 236 479 q 236 535 235 529 q 236 560 236 533 q 221 558 236 558 q 210 578 210 558 q 226 594 210 594 q 240 592 236 594 q 251 633 239 606 l 258 633 q 268 613 267 625 q 271 592 271 593 q 279 603 274 596 q 289 604 282 603 q 256 644 271 638 q 250 672 250 647 q 263 735 250 699 q 276 743 267 738 q 265 746 274 746 q 278 769 278 769 q 261 804 278 764 q 253 808 257 804 q 263 864 254 821 l 242 864 q 222 825 236 844 q 188 801 204 801 q 175 804 183 801 q 139 769 161 793 q 157 697 171 743 q 156 681 154 685 q 172 663 161 675 q 178 611 192 635 q 194 564 194 581 q 182 542 194 547 q 190 536 185 539 q 176 531 178 531 q 163 536 168 531 q 150 531 157 531 q 126 553 135 531 q 119 592 124 560 q 113 586 117 590 q 107 582 108 582 q 58 636 92 582 q 56 651 56 640 q 60 665 56 663 q 65 668 65 668 q 76 662 68 668 q 86 656 83 656 l 96 656 q 99 660 99 658 q 86 674 99 664 q 72 685 79 679 q 60 731 60 708 q 68 763 60 749 q 46 786 46 783 q 61 803 46 803 q 67 801 64 803 q 72 800 69 800 q 61 831 60 828 q 76 840 72 840 q 88 832 85 840 q 94 815 92 824 q 107 821 100 819 q 122 808 117 821 q 139 833 139 836 q 135 840 139 835 q 131 846 131 844 q 128 860 128 857 q 140 896 128 865 q 54 842 69 842 q 36 857 36 842 q 126 924 36 879 q 76 924 110 924 q 44 922 42 922 q 22 938 22 922 q 82 953 22 953 q 131 949 110 953 q 157 942 163 942 q 164 944 160 942 q 171 946 168 946 q 178 942 174 946 q 185 938 183 938 q 193 938 188 938 q 203 939 200 939 q 239 924 222 939 l 233 918 q 238 915 236 915 q 248 917 240 915 q 260 919 256 919 q 308 922 276 919 q 288 939 301 929 q 303 954 290 947 q 322 932 308 950 q 325 936 325 933 q 313 963 325 943 q 299 975 307 965 q 288 1019 288 990 q 306 1071 288 1053 q 328 1083 310 1074 q 332 1111 328 1093 l 339 1111 q 344 1083 342 1108 q 386 1019 386 1072 q 368 969 386 993 q 349 935 350 946 l 351 932 q 368 957 358 939 q 386 943 375 951 q 367 924 378 932 q 432 917 397 921 l 436 917 l 440 919 l 435 925 q 469 942 442 942 q 480 940 472 942 q 489 939 488 939 q 497 944 492 939 q 503 950 501 950 q 509 947 506 950 q 515 944 513 944 q 528 948 517 944 q 544 953 540 951 q 599 957 569 957 q 653 942 653 957 m 538 567 l 538 571 l 533 571 l 533 567 l 538 567 m 535 565 l 532 565 l 531 560 l 533 558 l 535 565 m 518 601 q 503 560 503 575 q 506 551 503 554 q 518 601 510 565 m 533 554 q 531 558 531 556 q 526 552 529 557 q 522 544 524 547 q 533 554 529 549 m 178 558 q 160 597 178 563 q 174 549 164 581 q 178 558 178 557 m 435 67 l 428 68 l 428 65 l 433 64 l 435 67 m 258 64 l 258 67 l 251 67 l 251 64 l 258 64 z "},"2":{"ha":953,"x_min":33,"x_max":919,"o":"m 919 79 q 910 44 919 63 q 904 40 910 43 q 822 11 894 25 q 796 3 815 10 q 774 -4 776 -4 q 772 -3 772 -4 q 769 -1 772 -1 q 726 -14 767 -1 q 682 -26 685 -26 l 667 -26 q 599 -12 656 -26 q 540 4 543 1 q 514 35 528 13 q 458 19 469 19 q 358 42 410 19 q 342 58 351 44 q 332 79 332 72 q 338 118 332 101 q 358 149 344 128 q 336 160 349 151 l 460 299 q 457 300 463 300 q 425 287 454 300 q 393 274 396 274 q 367 308 363 274 q 426 350 386 321 q 418 372 418 361 q 426 389 418 382 q 486 422 458 408 q 494 440 486 428 q 489 443 492 443 l 489 450 q 507 483 488 461 q 529 506 521 500 q 497 517 511 515 q 467 518 469 517 q 442 474 457 504 q 438 453 440 467 q 414 439 435 439 q 399 444 406 439 q 388 456 388 456 q 346 422 378 443 q 344 410 346 418 q 306 386 325 392 q 292 385 300 386 q 217 347 261 372 q 165 324 188 324 q 156 328 164 324 q 146 333 147 333 q 118 321 143 333 q 92 308 93 308 q 78 319 78 308 q 126 349 78 339 q 140 357 131 351 q 138 361 140 361 q 120 356 135 361 q 103 351 106 351 q 78 379 78 351 q 121 406 78 393 l 124 408 q 117 411 122 411 q 106 407 114 411 q 96 403 97 403 q 74 400 82 403 q 63 397 67 397 q 33 431 33 397 q 63 458 33 443 q 93 474 78 467 q 108 504 94 486 q 154 511 125 506 q 167 521 158 515 q 288 558 281 558 q 301 551 290 558 q 313 544 311 544 q 326 550 318 544 q 347 581 338 574 q 343 583 346 581 q 290 590 308 590 q 260 579 283 590 q 225 568 238 568 q 210 574 224 568 q 194 579 197 579 q 169 576 192 579 q 143 572 146 572 q 128 589 133 572 q 148 599 132 596 q 179 604 164 601 q 111 621 157 608 q 94 640 107 622 q 82 661 82 657 q 90 672 82 668 q 108 681 108 681 q 86 689 101 688 q 60 694 67 692 q 64 728 58 722 q 119 744 74 739 q 185 754 140 747 q 176 800 176 764 q 182 851 176 822 q 179 869 181 857 q 219 919 199 893 q 263 958 239 946 q 326 979 300 978 q 367 981 340 979 q 381 993 371 985 q 428 1021 417 1021 q 445 1016 431 1021 q 463 1011 460 1011 q 467 1011 465 1011 q 470 1013 467 1013 q 476 1020 474 1013 q 485 1031 478 1028 q 521 1056 503 1043 q 568 1081 558 1081 q 603 1039 603 1081 q 578 1018 603 1033 q 594 1013 594 1013 q 606 1016 597 1013 q 619 1019 615 1019 q 625 1035 621 1025 q 665 1064 631 1040 q 707 1088 700 1088 q 731 1076 719 1088 q 742 1053 742 1065 q 708 1010 742 1032 q 657 978 682 994 q 663 976 658 976 q 712 996 686 976 q 747 1015 738 1015 q 782 989 771 1015 q 783 958 786 978 q 826 933 797 946 q 842 903 835 925 q 840 883 840 897 q 844 867 842 879 q 847 851 847 854 q 838 792 847 824 q 817 750 828 760 q 818 732 818 744 q 813 725 813 722 q 822 703 813 719 q 835 686 832 686 q 856 690 838 686 q 875 693 874 693 q 899 688 893 693 q 903 651 906 683 q 915 632 915 644 q 903 606 915 635 q 900 582 903 599 q 859 529 894 560 q 801 496 824 499 q 784 469 788 482 q 778 446 781 457 q 738 412 768 425 q 686 403 708 399 q 690 317 679 374 q 715 321 699 321 q 838 310 782 321 q 867 282 860 306 q 913 146 913 154 q 903 133 913 146 q 906 122 907 125 q 914 96 914 118 q 919 79 919 89 m 738 638 q 719 669 732 649 q 700 650 713 661 q 676 636 690 647 q 651 588 660 607 q 646 568 649 578 q 631 550 642 554 q 606 511 621 538 q 643 496 638 496 q 693 522 647 496 q 697 546 689 528 q 707 583 697 560 q 724 621 715 601 q 738 638 725 626 m 749 457 q 746 461 749 461 q 728 461 746 461 q 697 428 717 450 l 713 428 q 735 439 722 428 q 749 457 749 450 m 358 450 q 342 453 347 450 q 343 446 342 451 q 343 440 343 442 q 358 450 350 447 z "},"3":{"ha":429,"x_min":15,"x_max":414,"o":"m 414 683 q 390 663 414 663 q 386 664 389 663 q 382 664 385 664 q 371 656 379 664 q 376 653 372 653 l 376 493 q 368 492 371 494 q 397 462 392 474 q 403 422 403 450 q 376 389 403 415 q 371 394 371 388 q 382 419 371 396 q 383 425 383 421 q 379 447 383 435 q 364 457 375 451 q 347 433 349 446 q 349 414 349 424 q 342 413 346 413 q 331 442 331 433 q 343 469 331 435 q 344 488 344 471 q 351 492 346 489 q 343 493 349 493 l 343 510 q 349 511 347 510 q 343 511 347 511 l 343 535 l 347 535 q 347 582 349 574 q 344 600 344 599 q 347 628 347 608 q 344 631 346 629 q 342 637 343 632 q 340 644 340 642 q 347 654 340 653 q 336 667 339 661 q 336 679 336 668 q 344 703 336 692 q 346 708 346 704 q 333 725 346 710 q 319 750 326 736 q 316 713 318 736 q 311 647 314 690 q 317 635 317 646 q 324 629 318 631 q 318 561 322 611 q 315 556 317 558 q 311 499 317 511 q 311 464 313 486 l 299 464 q 301 449 299 458 q 299 435 299 456 l 299 354 q 300 338 299 328 q 294 332 297 336 q 292 296 294 319 q 296 292 292 294 q 300 276 300 285 q 290 264 300 271 l 290 128 q 297 93 297 122 q 292 73 297 76 q 288 61 288 69 q 297 43 288 51 q 325 18 311 31 l 325 3 l 224 3 l 224 18 q 247 38 236 28 q 249 54 249 40 q 249 68 249 64 q 242 79 244 71 q 243 125 240 97 l 244 126 q 246 179 246 139 q 243 249 246 226 q 233 278 233 256 q 235 297 233 292 q 242 308 236 301 q 249 317 249 315 q 247 331 249 314 q 243 335 246 332 q 242 363 243 343 q 242 383 242 382 l 242 436 q 239 439 242 435 q 240 449 239 442 q 242 461 242 457 q 231 463 240 461 q 221 510 228 478 l 210 510 q 203 463 207 496 l 192 463 q 193 449 190 457 q 192 436 196 442 l 192 390 q 192 336 192 354 q 188 329 190 335 q 186 321 186 329 q 186 311 186 317 q 193 306 188 311 q 203 276 203 296 q 192 247 203 250 l 192 149 q 197 117 192 139 q 197 81 196 114 q 190 68 197 83 q 190 54 190 67 q 192 38 190 42 q 217 17 194 35 l 217 0 l 117 0 q 115 10 115 3 q 115 18 115 14 q 142 42 122 25 q 150 58 150 47 q 146 72 150 64 q 142 93 142 79 q 147 126 142 121 q 144 247 147 210 q 146 264 143 257 q 136 279 136 265 q 146 294 136 290 q 142 326 144 304 q 135 335 140 332 l 135 461 q 121 461 129 463 q 121 493 118 475 q 117 500 119 496 q 115 554 117 515 q 111 565 111 560 l 107 619 q 107 629 107 622 q 110 632 108 629 q 114 644 111 635 q 117 656 117 653 q 107 747 117 689 q 85 713 96 725 q 83 706 83 711 q 83 700 83 701 q 93 676 93 689 q 82 654 93 661 q 86 651 83 651 q 85 629 88 647 q 86 599 82 626 q 86 582 88 592 q 83 581 83 585 l 83 535 q 88 532 83 535 q 90 519 90 513 l 90 492 q 81 488 86 492 q 88 486 82 486 q 89 467 88 471 q 97 453 90 463 q 104 440 104 443 q 93 410 104 444 q 83 413 93 410 q 83 440 85 436 q 69 454 78 454 q 53 443 65 454 q 51 429 53 439 q 49 417 49 419 q 65 392 49 418 q 62 389 64 392 q 60 385 60 386 q 31 424 31 413 q 32 457 31 451 q 60 486 33 458 q 65 489 61 486 q 57 490 64 490 l 56 651 q 50 663 60 653 q 39 660 44 660 q 15 681 15 660 q 38 701 15 692 q 21 789 21 767 q 56 828 21 813 q 46 860 46 840 q 63 903 46 886 q 74 910 67 904 q 90 911 79 910 q 100 918 93 914 q 146 928 131 928 q 160 924 153 928 q 169 950 169 924 q 168 967 169 953 q 165 988 167 982 q 155 1003 160 990 q 150 1024 150 1015 q 214 1075 150 1075 q 275 1021 275 1075 q 272 997 275 1001 q 260 986 268 993 q 260 964 260 979 q 258 949 258 950 q 268 924 258 932 q 285 928 274 928 q 325 921 306 928 q 338 913 329 918 q 356 911 344 913 q 376 890 364 906 q 383 861 383 878 q 374 831 383 844 q 390 821 379 826 q 408 793 408 813 q 401 744 408 779 q 390 706 393 710 q 406 697 392 706 q 414 683 414 693 m 396 792 q 368 818 396 814 l 368 813 q 375 800 375 813 q 375 779 374 781 q 371 776 374 776 l 371 713 q 383 713 383 713 q 396 792 396 767 m 346 769 l 346 775 q 342 778 343 775 q 340 811 340 789 l 332 811 q 321 763 322 760 q 336 771 328 771 q 346 769 343 771 m 346 731 l 346 754 q 339 760 340 760 l 333 760 l 332 756 q 346 731 332 747 m 400 682 q 389 694 400 694 q 381 685 379 694 l 381 678 q 385 676 382 678 q 390 675 389 675 q 400 682 400 675 m 107 761 q 96 810 107 774 l 83 810 q 86 775 92 794 q 83 765 83 767 q 93 769 90 769 q 107 761 100 769 m 96 751 q 92 758 96 756 q 83 744 83 756 q 83 728 83 728 q 96 751 96 749 m 60 810 l 60 815 l 54 815 q 33 786 33 803 q 49 707 33 751 q 58 710 53 707 l 58 758 q 54 775 58 760 q 54 797 54 775 q 60 810 54 810 m 49 674 l 49 683 q 40 690 42 690 q 29 679 29 690 q 39 672 29 672 q 44 674 40 672 q 49 674 47 674 z "},"4":{"ha":476,"x_min":28,"x_max":449,"o":"m 449 531 q 439 514 449 524 q 446 513 440 513 q 432 426 444 485 q 425 422 428 424 q 421 415 422 421 l 411 415 q 399 422 410 425 q 389 475 396 439 q 389 461 386 472 l 386 457 q 371 467 378 463 q 376 501 371 492 q 390 517 382 506 q 399 551 399 538 q 397 558 399 556 q 381 582 381 576 q 399 606 381 589 l 399 686 q 383 718 396 690 q 361 722 368 718 q 338 751 340 732 q 335 789 336 771 q 329 800 332 793 q 331 803 329 801 q 333 806 333 804 q 329 815 332 808 q 325 810 328 814 q 314 750 321 789 q 306 732 313 743 q 303 715 300 721 q 294 714 299 717 l 294 710 q 303 708 296 708 l 303 696 q 296 694 296 689 l 296 690 q 303 689 296 689 l 303 675 q 294 672 300 675 q 310 658 301 672 q 322 656 310 658 q 324 642 325 650 q 319 639 322 640 q 324 615 325 622 q 326 597 324 608 q 331 588 328 593 q 335 581 335 582 l 331 454 l 315 454 l 315 351 q 306 347 313 350 l 306 335 q 319 333 310 333 q 324 319 318 322 q 335 313 329 315 q 347 276 347 300 q 315 229 347 239 l 315 179 q 336 151 332 174 q 343 101 338 135 q 351 85 344 100 q 357 60 357 69 q 349 42 357 46 q 331 35 340 38 q 335 13 335 31 q 335 -3 335 6 q 328 -6 335 -3 q 290 -8 322 -8 q 253 -7 257 -8 q 239 1 244 -7 q 239 15 239 3 q 239 28 239 26 q 246 35 240 29 q 251 43 251 40 q 240 51 251 40 l 240 72 q 251 86 254 79 l 263 86 l 263 150 q 268 151 268 150 q 264 158 264 153 l 265 238 q 258 242 264 239 l 258 258 q 265 271 268 261 q 274 274 271 271 q 263 275 271 275 q 260 292 261 276 q 239 329 239 299 q 258 361 239 356 q 260 368 260 363 l 267 368 l 267 453 q 251 454 261 456 q 249 488 251 465 q 246 522 246 511 l 243 525 q 233 525 238 522 q 232 521 233 524 q 225 454 229 499 l 210 454 l 210 369 q 217 367 213 369 q 218 361 217 365 q 238 329 238 360 q 224 296 238 308 q 214 292 221 294 q 214 276 214 290 q 208 275 213 276 q 201 272 204 274 q 210 271 203 271 q 217 258 210 257 l 217 243 q 211 240 215 240 q 210 215 210 233 q 203 215 204 217 q 210 214 204 214 l 210 156 q 203 151 207 154 q 210 150 204 150 q 211 88 211 128 q 222 86 214 86 q 231 74 219 76 l 231 50 q 222 43 222 46 q 224 39 222 46 q 235 17 235 29 q 221 -7 235 -4 q 185 -8 219 -8 q 140 -4 142 -8 q 142 36 133 19 q 117 60 117 40 q 122 81 117 72 q 133 135 126 90 q 158 179 138 169 q 158 213 158 192 q 161 215 160 213 q 158 231 161 219 q 156 232 157 231 q 128 275 128 240 q 142 314 128 296 q 154 321 147 315 q 156 333 156 322 q 169 336 160 333 l 169 349 q 163 349 168 349 l 163 453 q 146 454 157 454 l 143 569 q 143 585 143 585 q 149 598 146 589 q 154 628 151 607 q 158 639 156 632 q 154 640 158 640 l 154 656 q 167 657 158 656 q 174 669 168 661 q 182 671 176 669 q 175 675 182 676 l 175 689 q 182 692 178 689 q 175 696 181 696 l 175 708 q 182 711 178 710 q 175 715 181 717 q 170 734 176 721 q 164 750 164 747 q 149 818 161 776 q 149 806 140 806 q 143 790 146 799 q 139 746 144 775 q 100 718 129 718 q 97 719 97 718 q 96 719 99 719 q 79 686 99 719 l 79 606 q 90 597 83 604 q 96 583 96 589 q 88 569 96 576 q 79 549 79 561 q 79 538 79 543 q 82 533 81 538 q 88 520 83 529 q 103 494 93 511 q 106 467 107 483 q 89 460 100 463 q 89 476 89 478 q 75 422 86 458 l 68 424 q 63 415 64 415 q 58 417 61 415 q 54 418 56 418 q 51 425 54 425 q 44 428 44 426 q 36 457 40 438 q 31 504 31 499 l 31 515 q 38 515 36 514 q 28 529 28 524 q 35 546 28 539 q 50 560 47 556 l 50 633 q 29 633 39 636 l 29 647 q 32 651 29 647 q 36 686 33 674 q 47 685 38 686 q 51 700 51 692 q 49 708 51 697 q 36 725 36 717 q 57 753 36 738 q 81 778 78 768 q 85 793 85 789 q 82 799 85 794 q 82 814 79 803 q 75 818 82 814 q 81 833 78 833 q 82 832 82 833 q 83 832 81 832 q 100 874 82 832 q 114 913 110 896 q 110 919 113 917 q 124 929 121 929 l 176 929 q 210 971 210 961 q 197 983 210 983 q 192 983 196 983 q 188 982 189 982 q 174 990 186 982 q 181 996 175 993 q 176 1019 169 1006 l 175 1022 q 176 1040 175 1035 q 182 1057 178 1044 q 182 1064 181 1060 q 238 1086 203 1086 q 256 1082 246 1086 q 260 1075 257 1081 q 264 1074 261 1075 q 265 1078 265 1075 q 276 1072 265 1078 q 278 1082 281 1081 q 275 1083 275 1083 l 275 1100 l 282 1100 q 285 1088 286 1096 q 282 1072 282 1071 q 287 1056 282 1069 q 292 1024 292 1043 l 288 1021 q 292 1019 288 1019 q 288 1009 292 1015 q 285 1000 285 1003 q 283 979 285 989 q 267 967 282 965 q 284 946 269 963 q 301 929 299 929 l 351 929 q 364 922 356 929 q 365 919 364 922 q 364 911 364 917 q 390 838 372 886 q 390 833 389 835 q 394 831 392 831 q 399 832 396 831 q 403 824 401 828 l 403 818 q 396 814 400 818 q 399 804 399 807 q 396 798 399 801 q 393 792 393 794 q 397 775 393 788 q 421 753 400 769 q 442 725 442 736 q 429 708 442 718 q 428 704 429 707 q 426 700 426 701 q 428 685 426 676 q 442 683 433 683 q 444 678 443 682 q 446 651 446 674 q 449 646 449 646 l 449 633 l 429 633 l 429 557 q 449 531 449 536 m 279 931 q 264 943 274 935 q 261 925 261 938 q 279 931 264 928 m 426 722 l 426 729 q 407 747 419 738 q 415 734 408 743 q 422 719 421 725 q 426 722 424 721 m 215 926 l 215 938 q 210 943 214 940 q 197 929 204 935 q 215 926 210 929 m 383 733 q 371 764 379 744 q 360 779 365 769 q 347 783 354 781 l 347 761 q 358 741 347 751 q 379 731 368 731 q 383 733 383 731 m 399 574 l 399 589 q 393 582 393 586 q 399 574 393 579 m 435 526 l 435 535 l 432 535 l 432 526 l 435 526 m 129 785 q 117 779 125 782 q 107 765 114 774 q 94 732 103 750 l 106 732 q 128 757 122 732 q 129 785 132 776 m 69 746 q 51 726 51 726 q 53 721 51 724 q 58 726 56 722 q 69 746 61 731 m 335 276 q 332 293 335 282 q 321 288 328 292 q 319 276 319 285 q 307 274 318 274 q 315 271 310 274 l 315 253 q 322 253 318 253 q 329 251 326 251 q 335 276 335 268 m 49 538 q 42 535 44 538 l 42 528 q 49 538 43 531 m 222 315 q 219 343 225 335 q 217 336 219 340 l 201 336 q 214 315 214 340 l 222 315 m 340 65 q 334 83 340 67 q 326 108 328 100 q 315 157 324 125 l 310 151 q 317 147 315 150 q 317 88 317 111 q 329 83 326 90 q 329 67 331 79 q 331 51 329 56 q 340 65 340 54 m 168 272 q 156 276 164 274 l 156 290 q 143 293 149 293 q 140 275 140 279 q 146 251 140 268 q 158 254 151 253 q 158 267 158 261 q 168 272 160 274 m 163 151 q 157 158 158 157 q 146 101 154 139 q 133 65 133 57 q 140 51 133 56 l 146 51 l 146 88 l 157 88 l 157 151 l 163 151 z "},"5":{"ha":863,"x_min":14,"x_max":849,"o":"m 849 406 q 836 394 838 394 q 799 421 839 394 q 767 436 778 433 q 765 433 765 439 q 769 428 765 431 q 790 397 775 408 q 814 382 800 393 q 822 360 822 371 q 815 347 822 353 q 806 340 808 340 q 774 372 800 340 q 740 407 747 403 q 737 367 732 393 q 736 333 742 340 l 722 333 q 711 357 713 340 q 711 381 711 369 q 706 408 707 413 q 694 415 701 410 q 676 454 686 419 q 669 472 675 458 q 663 488 663 485 q 667 497 663 490 q 672 506 671 503 q 656 506 674 506 q 657 515 656 519 q 624 557 639 550 q 618 560 621 560 q 603 550 622 560 q 584 567 597 553 q 571 585 571 582 q 582 600 571 594 q 574 610 579 604 q 568 618 569 615 q 548 606 560 614 q 536 583 536 599 q 528 579 532 579 q 525 581 525 579 q 522 582 525 582 q 507 574 517 582 q 571 464 558 529 l 581 464 q 581 431 581 453 q 589 429 583 429 q 606 436 590 429 q 614 403 614 419 q 601 349 614 408 q 571 194 590 297 q 558 165 567 185 q 549 101 550 146 l 549 88 q 567 85 554 85 q 572 69 567 76 q 603 50 572 69 q 613 35 607 43 q 635 21 619 26 q 633 8 635 15 q 632 0 632 1 l 235 0 l 235 19 q 242 21 238 21 q 247 24 246 21 q 267 49 253 32 q 290 63 276 53 q 301 79 293 69 q 321 88 310 83 l 250 422 q 261 435 250 428 q 271 426 264 432 l 278 426 q 282 442 285 431 q 279 458 279 458 q 290 465 283 460 q 350 571 303 524 q 324 579 349 574 q 310 606 322 581 q 290 617 306 606 q 276 600 283 610 q 292 583 281 590 q 261 544 263 544 q 243 557 256 544 q 207 503 211 524 q 193 497 201 503 q 203 481 203 479 q 169 410 203 456 q 160 406 167 410 q 151 374 156 394 q 154 351 154 367 q 136 321 150 332 l 125 321 q 124 358 121 331 q 122 400 128 386 q 97 375 114 392 q 69 336 89 363 q 61 336 67 336 q 43 353 43 336 q 64 382 43 357 q 97 425 90 417 q 96 429 99 426 q 32 385 29 385 q 14 403 14 385 q 24 419 14 415 q 51 435 33 424 q 66 450 56 439 q 81 465 76 461 q 97 499 85 469 q 58 508 92 506 q 43 549 53 513 q 51 553 46 550 q 60 557 57 556 q 79 538 65 550 q 104 535 85 535 q 118 538 107 535 q 133 542 129 542 q 147 538 143 542 q 197 593 154 539 q 183 614 183 617 q 211 647 183 611 q 231 633 222 643 q 238 641 233 635 q 247 651 243 647 q 228 668 236 663 l 228 679 q 237 685 229 681 q 257 701 244 689 q 303 719 278 719 q 305 718 306 719 q 307 717 304 717 q 315 722 310 717 q 322 729 319 728 q 336 722 336 722 q 351 724 339 722 q 371 726 364 726 q 376 731 374 726 q 378 744 378 726 q 307 799 329 765 q 288 831 299 810 q 281 850 286 838 q 257 869 272 857 l 257 913 q 278 928 265 917 q 288 955 281 936 q 336 1033 294 974 q 422 1110 390 1110 q 486 1069 451 1110 q 572 931 551 992 q 594 915 592 919 q 596 893 596 910 q 593 876 596 879 q 576 860 585 868 q 561 821 572 846 q 478 747 539 779 l 478 731 q 524 722 492 728 l 533 732 q 538 725 535 731 q 546 719 542 719 q 553 721 549 719 q 560 722 557 722 q 607 700 590 722 q 618 688 611 696 q 626 688 619 688 q 633 683 629 685 l 633 672 q 620 664 626 672 q 614 650 614 656 q 624 640 614 640 q 644 653 625 640 q 678 617 656 643 q 660 597 675 611 q 679 576 661 597 q 704 554 697 554 q 699 536 704 558 q 703 535 697 535 q 713 541 706 535 q 724 547 721 547 q 738 544 726 547 q 753 542 750 542 q 806 564 792 542 q 815 546 815 556 q 801 518 815 535 q 788 515 799 518 q 774 513 778 513 q 769 514 771 513 q 767 515 768 515 q 765 508 765 514 q 776 481 765 504 q 797 465 779 471 q 835 436 800 447 q 849 422 840 429 l 849 406 m 522 344 l 517 346 q 429 324 472 324 q 382 332 411 324 q 363 340 375 333 q 347 346 350 346 q 340 342 340 346 q 363 311 363 313 q 350 299 363 306 l 350 171 q 349 125 350 117 q 353 86 350 113 q 383 61 378 86 q 424 24 419 43 l 443 24 q 485 61 447 44 q 492 78 486 72 q 515 88 497 83 q 517 123 515 100 q 519 147 519 146 q 519 165 519 165 q 517 167 519 165 q 515 172 515 168 l 515 299 q 503 314 503 306 q 522 344 503 319 z "},"6":{"ha":492,"x_min":29,"x_max":463,"o":"m 463 889 q 431 858 463 875 q 439 846 432 853 q 432 836 436 843 q 439 828 433 833 l 432 821 q 439 813 433 818 q 434 803 436 810 q 431 781 432 797 q 433 778 432 779 q 433 763 435 769 q 428 753 431 758 l 428 710 q 432 708 428 710 q 432 700 432 708 q 438 696 432 694 l 438 681 l 433 678 q 432 672 431 676 q 436 653 436 660 l 424 490 l 424 451 q 418 414 424 436 q 392 404 410 410 l 388 404 q 390 421 388 410 q 407 429 394 422 q 401 431 407 431 l 401 503 q 400 506 401 506 q 399 506 399 506 l 399 625 q 393 626 397 626 q 394 651 392 643 q 393 664 390 654 q 397 679 397 678 q 392 682 394 679 l 392 694 q 397 702 397 694 q 403 710 397 710 l 403 751 q 399 754 401 753 q 399 786 397 761 q 390 813 399 806 l 399 821 l 392 828 q 399 836 392 831 l 390 846 q 397 853 394 849 q 383 868 393 858 q 372 874 376 874 q 351 857 358 874 q 351 824 354 844 q 332 800 343 815 q 322 765 331 785 q 307 763 321 764 q 307 754 308 760 q 297 742 306 747 l 297 682 q 311 681 303 681 q 315 668 311 675 q 328 650 319 661 q 338 628 329 640 l 338 604 q 333 601 336 603 q 329 594 329 600 q 319 592 322 594 q 346 592 331 589 l 346 582 q 338 546 346 590 q 319 538 332 543 q 315 521 321 531 q 315 519 315 521 q 338 519 322 517 l 322 335 q 314 335 315 336 q 335 318 321 329 q 340 307 340 306 l 340 238 q 338 235 339 238 q 332 174 332 165 l 332 135 q 329 115 332 138 q 329 86 328 96 q 333 81 333 81 q 332 76 333 78 q 331 74 331 75 l 314 74 q 313 64 313 72 q 318 42 313 53 q 336 29 325 26 l 336 17 q 331 -6 336 17 l 276 -6 q 271 18 271 26 l 271 29 q 281 31 271 29 q 294 56 294 50 l 294 74 l 279 74 q 278 86 276 76 q 279 101 279 89 l 269 265 l 269 307 q 276 319 274 308 q 296 332 282 324 q 290 390 293 350 l 288 482 q 293 510 288 504 q 299 521 299 517 q 292 529 299 524 q 285 539 286 535 q 285 561 285 540 q 294 592 285 590 l 294 599 l 279 600 q 279 594 279 599 q 217 592 276 592 q 213 600 215 593 l 196 600 l 196 599 l 196 593 q 206 561 206 590 q 206 539 206 544 q 199 531 206 538 q 193 518 193 525 q 193 514 193 515 q 203 494 203 506 q 196 350 203 499 q 193 344 196 349 q 190 338 190 339 q 194 330 190 332 q 201 325 199 328 q 211 321 204 322 q 215 308 210 315 l 215 263 q 213 211 215 263 q 204 86 210 169 q 208 83 206 86 l 208 74 l 190 74 q 190 64 190 72 q 197 38 190 53 q 213 29 203 24 l 213 18 q 207 -6 213 24 l 153 -6 q 147 19 147 8 l 147 29 q 158 32 150 31 q 168 53 163 38 q 171 56 171 51 l 171 74 l 151 74 q 153 85 151 78 q 156 86 153 85 l 151 163 l 151 204 q 150 221 151 206 q 147 243 149 236 q 146 279 147 256 q 149 283 146 281 q 146 293 146 276 q 146 307 146 301 q 150 311 149 308 q 153 319 151 314 q 174 335 160 324 q 165 335 171 336 l 153 518 l 174 518 q 175 521 175 518 q 171 524 175 524 q 171 538 171 532 q 153 546 164 540 q 146 582 146 585 l 146 593 q 172 593 160 590 q 163 593 169 594 q 160 601 161 594 q 154 604 158 601 l 154 628 q 161 631 156 629 q 163 638 161 631 q 165 640 164 638 q 181 667 165 656 q 181 675 181 668 q 196 679 186 676 l 196 683 q 186 696 186 689 l 186 761 q 169 775 182 761 q 152 798 156 789 q 149 849 149 807 q 139 849 146 850 q 136 861 139 853 q 121 874 129 874 q 115 872 117 874 q 104 863 110 872 q 94 854 99 854 q 101 847 97 851 q 94 838 100 844 q 101 829 96 836 q 94 822 100 828 q 101 814 96 819 q 93 790 93 796 q 93 781 93 783 q 96 778 94 779 q 90 753 96 757 l 90 711 q 94 699 93 708 q 100 697 94 696 l 100 682 q 94 675 92 681 q 99 668 99 665 l 99 628 q 93 621 94 625 l 92 510 q 90 506 92 508 q 88 501 88 503 l 88 431 q 85 429 88 432 q 99 421 89 426 q 101 406 99 415 q 71 413 92 408 q 67 428 71 417 q 64 446 64 439 q 65 469 64 446 q 65 503 67 490 q 57 653 57 674 q 56 660 56 658 q 61 675 56 667 l 61 681 q 54 683 58 681 l 54 696 q 60 697 56 697 q 65 711 58 704 l 65 753 q 60 768 60 758 q 61 781 60 772 q 63 793 63 789 q 54 811 63 804 q 61 821 54 814 q 54 829 60 824 q 61 839 54 832 q 54 846 58 840 q 61 858 57 850 q 32 879 51 863 q 29 890 29 883 q 97 926 29 921 q 108 911 101 922 q 115 910 111 911 q 118 907 115 908 q 119 906 117 906 q 124 922 129 906 q 136 922 122 922 q 136 944 138 932 q 185 954 154 949 q 188 949 188 953 q 199 946 189 946 q 200 940 199 942 l 211 940 q 213 951 213 944 q 210 959 213 953 q 207 967 207 965 q 235 985 207 982 l 235 993 q 224 990 231 990 q 215 993 218 990 q 201 1025 201 1022 q 206 1044 201 1036 q 203 1049 206 1046 q 244 1107 196 1107 q 271 1099 258 1107 q 285 1093 276 1097 q 293 1067 293 1085 q 272 1039 293 1042 q 274 1014 272 1038 q 275 1013 274 1013 q 274 997 278 1000 q 260 990 271 993 l 260 985 q 283 975 268 985 q 285 961 288 968 q 282 951 281 954 q 301 940 288 947 q 304 951 301 943 q 351 938 319 947 l 351 924 q 368 922 356 921 q 365 910 367 918 q 372 906 369 906 q 377 908 374 906 q 383 911 381 911 q 393 925 388 918 q 435 919 411 926 q 463 889 463 908 z "},"7":{"ha":1686,"x_min":17,"x_max":1669,"o":"m 1669 833 q 1668 804 1669 807 q 1640 763 1663 789 q 1597 726 1618 738 q 1538 703 1582 718 q 1528 696 1535 701 q 1515 706 1522 694 q 1501 725 1506 722 l 1501 564 l 1561 564 l 1561 532 q 1535 529 1547 533 l 1535 508 l 1600 508 l 1600 472 q 1586 469 1594 474 l 1586 439 q 1615 433 1596 438 l 1615 365 l 1561 365 q 1558 300 1563 344 q 1552 292 1557 297 q 1547 283 1547 286 l 1571 208 q 1556 203 1567 208 l 1556 179 q 1571 176 1558 176 l 1571 154 q 1556 147 1567 153 q 1571 142 1560 146 l 1571 115 l 1397 115 q 1394 94 1394 110 q 1376 78 1385 94 q 1368 50 1367 63 l 1264 -4 q 1261 1 1263 -3 q 1256 4 1260 4 q 1231 1 1261 4 q 1228 -4 1228 -1 l 1110 -4 q 1104 8 1110 3 q 1100 -4 1100 8 l 979 -4 q 976 6 979 3 q 968 -3 969 6 q 903 -6 949 -4 q 857 -7 858 -7 q 850 -1 851 -7 q 849 6 849 4 q 838 -7 844 6 l 724 -7 q 694 4 713 -7 q 689 -7 689 0 q 583 44 624 24 q 554 82 585 82 q 538 75 542 82 q 515 53 529 63 l 419 53 q 418 97 425 78 q 415 57 415 88 q 321 53 413 53 q 300 92 300 74 q 297 97 301 94 q 288 57 294 83 q 260 56 281 56 q 229 64 231 56 l 210 64 q 207 44 206 58 l 146 44 q 143 64 146 60 l 129 64 q 126 44 126 58 q 93 40 115 40 q 52 51 69 40 q 17 74 35 63 l 17 138 q 29 142 19 140 q 29 149 31 144 q 26 158 26 156 q 66 215 26 161 q 106 271 106 268 q 100 281 106 274 q 94 292 94 288 q 110 331 94 303 q 163 360 113 335 q 224 386 213 386 q 228 383 228 386 q 231 379 228 379 q 240 383 226 379 q 244 393 242 388 q 332 418 318 418 q 341 415 336 418 q 350 413 346 413 q 357 424 353 413 q 419 435 379 425 q 461 468 432 444 q 431 501 436 501 q 376 469 425 501 q 361 485 375 469 l 278 436 q 261 460 275 438 l 494 597 q 508 575 499 589 q 490 560 501 571 q 499 542 499 551 q 481 532 493 542 q 515 522 488 529 q 519 528 517 524 q 518 542 518 532 q 613 606 603 606 q 618 601 617 606 q 619 597 619 597 q 625 614 621 603 q 711 658 675 643 q 840 704 824 704 l 853 704 q 856 693 853 694 q 863 708 857 699 q 996 731 960 732 l 1110 731 q 1111 717 1107 724 q 1115 728 1115 717 l 1149 728 q 1258 704 1175 728 q 1344 676 1328 685 l 1344 633 q 1401 632 1351 633 q 1394 664 1400 642 q 1336 749 1390 672 l 1193 749 q 1193 758 1193 750 q 1111 761 1190 761 q 1081 778 1101 767 q 1050 779 1078 779 l 1050 794 l 864 794 q 835 765 854 782 q 782 735 794 735 q 771 741 779 735 q 760 749 763 747 q 633 807 722 761 q 568 815 611 810 l 568 840 q 628 849 589 842 q 679 879 643 858 q 782 925 771 925 q 793 917 782 925 q 842 888 814 910 q 869 865 869 865 l 1010 868 q 1044 875 1019 874 q 1049 882 1046 875 q 1075 883 1057 882 q 1090 894 1079 885 q 1106 904 1101 904 l 1188 904 q 1190 915 1190 906 q 1253 917 1215 915 q 1271 971 1258 935 q 1279 972 1271 971 q 1340 1033 1299 999 q 1378 1044 1365 1044 q 1424 1022 1403 1044 q 1422 1067 1422 1038 q 1439 1113 1422 1074 q 1451 1015 1457 1085 q 1454 894 1446 933 q 1476 946 1474 904 q 1499 943 1496 946 q 1518 969 1514 958 l 1528 969 q 1535 964 1528 969 q 1618 926 1579 954 q 1668 864 1653 901 q 1669 833 1669 861 m 1415 914 l 1415 978 q 1401 998 1417 988 q 1375 1008 1386 1008 q 1351 1000 1367 1008 q 1331 976 1329 990 l 1331 967 q 1339 953 1339 964 q 1335 933 1339 947 q 1331 914 1331 919 l 1415 914 m 1479 714 q 1453 769 1479 758 l 1453 690 q 1474 665 1471 679 q 1479 714 1479 688 m 1433 719 l 1433 769 l 1414 769 l 1414 744 q 1433 719 1413 739 m 1476 621 l 1476 644 l 1472 644 l 1472 621 l 1476 621 m 1350 75 q 1343 79 1347 75 q 1326 63 1338 74 q 1339 69 1331 64 q 1350 75 1347 74 m 1124 101 q 1118 111 1118 108 q 1104 103 1108 103 l 1104 92 l 1124 101 m 1225 26 q 1138 79 1178 33 q 1117 67 1133 75 q 1110 76 1114 71 q 1104 82 1106 81 q 1103 43 1104 54 q 1083 26 1096 36 q 1094 23 1086 26 q 1106 19 1101 19 q 1108 23 1108 19 q 1113 26 1108 26 l 1225 26 m 1043 26 q 1019 40 1036 40 q 1007 39 1008 40 q 994 29 999 29 l 1043 26 m 957 26 q 931 40 944 40 q 904 26 911 40 l 957 26 m 844 92 l 844 103 l 824 103 q 844 92 831 99 m 868 26 q 858 39 864 29 q 844 42 851 38 l 844 82 q 833 67 840 76 q 820 72 829 68 q 807 76 811 75 q 767 40 793 54 q 725 26 742 25 l 833 22 q 868 26 846 19 m 618 63 q 613 69 617 64 q 607 76 608 75 q 597 72 607 72 q 608 67 600 71 q 618 63 615 64 z "},"8":{"ha":617,"x_min":28,"x_max":589,"o":"m 589 786 l 575 786 q 569 776 569 776 q 579 760 569 775 q 581 749 581 758 l 568 651 q 572 644 569 649 q 571 628 575 638 q 576 610 576 617 q 572 583 576 608 q 567 546 568 557 q 567 506 565 528 q 569 493 567 503 q 571 482 571 483 l 564 422 l 543 422 l 538 385 l 508 385 q 503 419 506 403 q 497 421 501 421 q 490 414 490 421 q 490 400 490 407 l 474 400 q 472 414 472 404 q 493 435 472 436 q 518 625 506 525 q 524 628 519 626 q 526 640 526 638 q 524 657 526 649 q 499 740 515 685 q 492 744 497 746 q 481 744 482 744 q 469 769 478 753 q 466 772 469 769 q 460 778 463 775 q 454 774 458 776 q 449 771 450 771 q 442 774 443 771 q 434 756 439 768 q 426 738 429 744 l 425 644 q 444 618 432 636 q 447 603 447 614 q 441 578 447 600 q 435 554 435 556 q 469 461 435 567 q 472 442 472 453 q 453 297 472 443 q 433 281 447 293 q 460 265 435 281 l 460 249 q 447 242 465 249 q 446 211 447 233 q 444 181 444 189 q 440 176 443 179 l 440 104 q 443 71 442 92 q 445 69 443 71 q 447 57 447 67 q 447 44 447 47 q 443 40 444 43 q 442 -1 442 21 l 376 -1 q 375 40 376 17 q 369 44 372 42 l 369 68 q 376 83 374 69 q 383 85 378 85 q 392 88 389 86 q 382 167 389 114 q 377 188 381 172 q 374 204 374 203 q 383 222 374 207 q 392 239 392 236 q 386 245 392 243 q 378 250 381 247 q 378 264 378 256 q 406 281 385 269 q 385 297 403 285 q 383 313 385 303 q 369 435 374 397 q 369 449 368 439 q 371 463 371 460 q 363 446 368 457 l 250 446 q 242 463 249 451 q 228 296 243 454 q 210 279 221 290 q 218 276 213 279 q 236 264 224 272 l 236 249 q 224 239 224 249 q 233 221 224 236 q 242 204 242 206 q 237 184 242 203 q 231 157 232 165 q 224 85 225 114 q 239 83 231 83 q 242 67 239 78 q 244 56 244 57 q 244 43 244 49 q 240 40 243 43 q 239 -1 239 21 l 174 -1 q 172 42 174 18 q 167 44 169 42 q 167 56 167 47 q 167 67 167 64 q 171 71 169 68 q 172 101 171 81 q 175 104 175 100 l 175 176 q 169 179 174 178 q 167 242 169 200 q 156 249 163 246 l 156 264 q 174 276 164 267 q 182 279 176 278 q 161 308 164 289 q 157 344 158 326 q 143 442 143 451 q 153 485 143 458 q 178 557 178 551 q 169 579 178 556 q 167 603 167 590 q 185 639 167 619 q 188 646 188 644 l 185 742 q 172 769 179 760 q 156 778 165 767 q 151 771 153 778 q 140 761 144 771 q 132 744 133 746 q 117 744 129 744 q 89 642 89 667 q 89 631 89 636 q 96 625 92 628 q 104 558 99 603 q 121 436 106 546 q 142 425 131 435 l 142 399 l 124 399 q 119 421 125 417 l 113 421 q 107 383 111 411 l 74 383 q 75 390 79 386 q 74 419 75 399 q 53 421 67 422 q 43 485 49 442 q 46 495 43 488 q 49 506 49 503 q 49 543 50 528 q 43 581 47 554 q 39 608 39 607 q 43 625 39 610 q 43 642 42 631 q 45 645 43 643 q 47 649 47 647 l 35 750 q 39 763 35 753 q 43 774 43 772 q 43 779 43 775 q 42 785 42 782 l 28 785 l 28 810 q 38 811 29 811 q 44 818 39 811 q 53 819 44 818 q 57 826 54 822 q 79 826 63 826 q 81 849 81 832 q 103 853 96 853 q 132 850 93 853 q 143 829 136 843 q 156 819 147 826 q 159 824 158 821 q 165 826 160 826 q 172 825 171 826 q 189 858 175 828 l 240 858 q 243 849 243 856 q 264 847 243 849 q 269 838 265 843 q 276 850 276 843 q 264 897 276 842 q 253 896 264 896 q 238 913 238 896 q 257 928 238 929 l 257 932 q 228 969 228 932 q 239 989 228 989 q 247 985 243 989 q 242 1068 242 1078 q 242 1092 242 1089 q 254 1106 244 1104 q 308 1106 258 1106 q 374 1097 371 1106 q 378 1078 378 1085 q 375 1026 378 1060 q 367 972 371 1001 l 367 961 q 383 957 376 957 q 403 959 386 957 q 422 961 419 961 q 469 946 469 961 q 451 928 469 938 q 425 917 439 922 q 421 908 428 913 q 425 885 424 899 l 425 878 q 346 864 413 875 q 338 850 338 858 q 343 838 338 847 q 351 847 346 838 q 369 847 356 847 q 371 856 371 849 q 424 858 372 858 q 442 825 431 850 q 449 826 443 826 q 457 819 451 826 q 464 825 463 819 q 474 835 469 826 q 481 850 478 843 l 532 850 q 533 828 532 840 q 558 825 542 828 q 572 819 560 821 l 572 814 q 589 810 579 813 l 589 786 m 392 893 q 389 904 392 893 q 369 907 372 903 q 350 886 354 908 q 392 893 364 889 m 542 746 q 539 758 542 754 l 533 758 q 532 744 533 746 l 517 744 q 529 706 521 731 q 535 726 528 711 q 542 746 542 742 m 443 776 l 443 782 l 440 782 l 440 776 l 443 776 m 414 599 q 413 606 414 601 q 411 611 411 610 q 367 575 396 596 l 367 567 q 392 531 378 553 q 414 599 414 604 m 389 657 l 389 678 q 374 678 383 676 q 359 691 368 682 q 349 700 350 700 l 261 700 q 224 678 238 676 l 224 657 q 236 617 224 647 q 260 646 243 631 q 289 628 269 639 l 289 624 q 275 600 283 615 l 339 600 q 324 626 333 608 q 356 646 335 633 q 376 621 363 636 q 389 657 390 650 m 96 744 q 83 746 88 743 q 79 758 78 749 q 72 742 76 756 q 83 722 72 744 q 85 704 86 718 l 96 744 m 244 569 q 233 583 244 575 q 201 614 215 594 q 200 605 201 610 q 199 599 199 600 q 208 561 199 589 q 219 533 214 547 q 244 569 244 563 m 425 103 l 425 178 l 422 178 l 422 103 l 425 103 m 193 178 l 190 178 l 188 103 l 192 103 l 193 178 z "},"9":{"ha":511,"x_min":19,"x_max":492,"o":"m 492 222 q 478 219 486 221 q 485 208 479 215 q 460 183 482 206 l 460 3 l 308 3 q 308 63 310 4 q 301 50 307 60 l 229 49 q 213 49 219 49 q 204 56 208 56 q 204 1 203 54 l 54 1 l 54 181 q 29 201 46 188 q 33 215 29 203 q 19 217 28 218 q 44 254 28 233 q 60 256 50 254 q 119 315 89 293 q 143 333 129 319 q 161 428 149 364 q 181 497 168 458 q 189 501 185 497 q 192 531 189 513 q 200 546 193 536 q 207 557 207 556 q 178 611 197 575 q 144 693 157 658 q 125 760 138 708 q 129 678 124 725 q 135 669 131 675 q 142 651 142 658 q 128 625 142 636 l 153 457 q 147 447 150 454 q 142 411 146 435 q 124 371 139 400 l 103 371 q 106 378 103 375 q 101 381 106 381 q 99 369 101 378 l 79 369 q 76 381 79 372 l 71 381 q 76 372 74 378 q 64 368 72 368 q 57 369 60 368 q 29 447 31 406 q 24 458 24 457 l 46 622 q 33 636 42 626 q 31 650 31 642 q 34 663 31 651 q 38 681 38 675 q 38 743 38 696 q 47 747 42 743 l 47 806 q 49 815 47 807 q 50 826 50 822 q 38 847 38 835 q 42 863 38 858 q 65 893 49 874 q 89 896 71 896 q 103 893 97 896 q 119 886 110 890 l 213 886 q 218 899 213 890 q 203 903 213 900 q 182 913 194 907 q 161 929 165 918 q 160 943 161 933 l 115 943 q 113 950 113 944 q 123 964 113 954 q 133 974 133 974 q 144 992 136 981 q 160 1000 149 994 l 160 1110 l 175 1110 l 175 1004 q 247 1031 246 1031 q 267 1027 256 1031 q 301 1011 278 1024 q 325 999 324 999 q 328 1001 326 999 q 332 1003 331 1003 q 351 994 340 1003 q 363 977 356 986 q 385 956 371 968 l 385 944 l 338 944 q 338 935 339 942 q 335 926 336 928 q 314 913 333 924 q 276 899 304 910 q 283 897 278 897 q 285 888 285 894 l 378 888 q 381 890 378 888 q 394 896 385 892 q 414 899 411 899 q 433 893 424 899 q 449 869 433 892 q 461 849 461 853 q 458 840 461 843 q 450 829 456 836 q 450 815 450 829 l 453 747 q 461 746 454 746 q 464 732 464 736 l 464 685 q 465 682 464 688 q 469 665 467 676 q 472 653 472 654 q 458 625 472 649 l 482 458 q 476 450 481 457 q 469 410 475 436 q 453 374 468 403 l 432 374 q 432 385 432 385 q 426 372 432 381 l 410 372 q 404 385 408 376 q 401 383 403 385 q 404 374 404 378 q 390 372 399 372 q 378 385 385 372 q 358 449 358 422 q 354 463 353 458 l 375 626 q 360 653 360 636 q 365 668 360 661 q 372 676 371 675 q 375 718 372 690 l 374 756 q 365 721 371 744 q 333 631 351 672 q 311 586 328 618 q 297 558 297 560 q 310 536 297 554 q 317 500 313 524 q 325 497 319 500 q 346 421 338 461 q 367 333 351 390 q 394 313 375 328 q 433 279 414 299 q 449 260 438 272 q 467 257 450 260 q 492 222 482 238 m 378 757 l 378 763 l 375 763 l 375 757 l 378 757 m 383 643 l 381 654 q 378 648 381 653 q 375 642 376 643 q 383 643 378 643 m 126 640 q 124 647 125 642 q 121 653 122 651 l 119 646 q 126 640 122 643 m 50 644 l 50 651 l 47 651 l 47 644 l 50 644 m 308 67 l 308 113 q 303 96 308 108 q 308 83 308 94 q 308 67 308 75 m 206 65 l 206 79 l 203 79 l 203 65 l 206 65 z "}," ":{"ha":1389,"x_min":0,"x_max":0,"o":""},"!":{"ha":392,"x_min":17,"x_max":375,"o":"m 375 556 q 371 557 371 556 q 372 543 372 550 q 365 532 372 532 q 361 532 368 532 q 360 522 360 531 q 363 501 360 521 q 367 479 367 481 q 350 450 367 458 q 339 433 350 450 q 325 422 336 429 q 319 428 319 424 q 322 441 319 429 q 325 456 325 453 q 324 474 325 464 q 318 453 322 467 q 321 439 322 444 q 310 432 319 432 q 306 389 310 418 q 289 350 289 340 q 296 279 289 292 q 310 265 301 272 q 304 249 304 254 l 304 221 q 315 210 315 213 q 311 211 314 210 q 307 213 308 213 q 301 151 303 185 q 299 147 299 147 q 308 129 299 144 q 304 124 307 126 q 311 113 308 119 q 300 121 308 115 q 303 101 300 118 q 294 90 294 97 q 305 58 294 88 q 315 28 315 29 q 279 -3 315 -3 q 251 6 258 -3 q 250 14 251 8 q 247 25 247 25 q 246 26 247 25 q 238 74 240 43 q 233 72 236 75 q 221 128 226 81 q 217 135 218 131 q 217 140 217 136 q 218 147 218 144 q 219 157 218 149 q 219 168 219 164 q 217 176 219 171 q 215 185 215 182 q 215 199 215 201 q 210 219 213 206 q 211 233 211 214 q 200 250 211 243 q 195 239 197 247 q 193 214 193 231 q 190 207 192 211 q 188 186 193 199 l 188 136 q 194 125 188 136 l 192 125 q 192 117 190 122 q 190 115 193 115 q 186 118 192 115 q 182 100 185 113 q 182 86 182 106 q 176 83 179 86 l 172 86 q 165 71 164 83 q 165 53 167 56 q 156 35 161 47 q 143 1 151 24 q 124 -7 140 -7 q 113 -6 122 -7 q 100 -4 103 -4 q 85 3 93 -4 q 82 19 86 8 q 78 42 78 47 q 86 64 78 53 q 101 74 89 67 q 104 81 101 75 q 107 88 107 86 q 103 93 107 89 q 103 100 104 100 q 101 103 103 101 q 104 115 101 106 q 97 121 101 117 q 104 138 108 122 q 107 142 107 140 q 104 146 106 143 q 108 146 108 142 q 106 154 108 150 q 101 154 104 153 q 103 174 103 157 q 104 178 103 175 q 106 182 106 181 q 104 196 106 183 q 101 214 103 208 q 99 218 101 215 q 90 215 96 217 q 89 221 90 219 q 96 228 96 221 l 96 235 q 94 236 96 235 l 90 233 q 97 246 97 240 q 94 251 97 247 q 89 258 90 256 q 83 300 83 278 l 93 392 l 93 410 q 80 415 88 411 q 56 429 72 418 q 54 435 56 432 q 49 500 43 450 q 43 503 46 503 q 29 508 40 503 q 28 532 26 521 q 25 536 26 533 q 25 571 25 575 q 21 589 21 578 q 24 606 21 590 q 28 622 28 621 q 28 629 28 631 q 17 644 17 643 q 26 660 17 650 q 38 674 36 671 q 40 692 42 682 q 64 833 33 758 q 72 844 67 839 q 85 858 76 850 q 149 894 124 883 q 156 903 156 897 q 136 943 156 911 q 122 956 131 947 q 108 1001 108 981 q 131 1069 108 1039 q 188 1099 153 1099 q 210 1093 190 1099 q 257 1060 243 1085 q 274 1003 274 1028 q 271 976 274 989 q 263 965 268 972 q 244 935 254 953 q 235 926 240 932 q 229 910 229 921 q 235 896 229 897 q 283 878 276 881 q 318 849 304 868 q 331 814 321 844 q 343 765 336 800 q 356 686 346 739 q 363 679 357 685 q 368 671 368 674 q 360 660 368 668 q 364 658 360 660 q 371 621 367 653 q 374 615 371 619 q 372 600 372 617 q 372 579 372 593 q 372 572 372 578 q 375 556 372 565 m 321 524 q 315 531 321 531 l 315 510 q 321 524 321 526 m 100 64 l 94 64 q 86 36 85 56 q 96 51 90 42 q 100 64 97 56 m 86 32 l 86 36 l 85 36 l 85 32 l 86 32 z "},"\"":{"ha":769,"x_min":21,"x_max":749,"o":"m 749 728 q 701 725 733 728 q 695 720 700 724 q 688 717 690 717 q 674 728 682 717 q 674 744 672 736 q 661 754 669 747 q 661 765 661 757 q 661 776 661 772 q 676 793 667 782 q 676 797 676 796 q 663 793 674 793 q 646 793 650 794 q 590 778 622 776 q 589 761 589 775 l 504 761 q 494 717 494 724 l 494 706 l 568 706 q 623 681 571 706 q 677 653 675 656 q 679 646 679 651 q 678 638 679 643 q 676 632 676 633 l 646 632 q 631 572 646 610 q 636 569 631 569 q 638 555 636 565 q 640 542 640 544 q 638 530 640 536 q 631 511 636 524 l 631 422 q 635 421 631 421 l 635 396 q 619 397 626 393 q 615 390 615 392 q 614 356 615 379 q 608 350 608 347 l 608 233 q 610 228 608 232 q 613 222 613 225 l 613 114 q 615 99 613 111 q 617 85 617 86 l 617 24 q 615 16 617 22 q 613 6 613 10 l 597 6 q 593 17 593 17 l 593 211 q 592 214 593 214 q 589 215 590 214 l 589 357 q 594 386 596 367 q 590 418 590 421 q 603 421 596 421 q 604 508 604 422 q 593 542 603 518 q 581 497 590 535 q 567 497 575 499 q 553 451 564 492 q 534 422 546 425 q 493 419 522 419 q 489 421 492 419 q 476 421 485 421 q 474 406 476 417 q 463 392 469 401 q 431 256 453 346 l 461 149 q 429 97 439 97 q 424 99 426 97 q 421 100 421 100 l 421 106 q 430 135 421 114 q 439 157 439 156 q 418 233 439 186 q 401 256 413 247 q 394 246 394 253 l 394 154 q 397 151 394 154 q 394 100 394 136 q 383 97 383 97 q 379 114 381 97 q 378 142 378 138 q 378 148 376 143 q 381 154 381 153 l 381 246 q 375 256 381 244 q 367 250 376 256 q 365 244 367 247 q 357 233 363 240 q 336 157 336 179 q 350 131 336 167 q 357 101 353 124 q 346 94 354 100 q 317 149 319 124 l 344 256 q 313 390 335 299 q 304 399 308 393 q 300 418 300 404 q 250 419 299 419 q 226 435 233 422 q 211 496 219 449 l 194 496 q 182 538 192 510 q 171 510 171 519 l 171 421 q 182 419 175 418 l 189 221 q 187 215 189 214 q 185 210 185 215 l 185 50 q 186 42 185 39 q 182 7 188 31 l 185 3 l 167 3 q 161 28 165 13 l 163 217 q 168 232 165 222 l 168 347 q 161 373 160 354 q 156 397 163 392 q 146 392 153 392 q 140 393 143 393 q 142 417 140 401 q 144 421 144 415 l 144 510 q 141 514 143 511 q 135 528 139 517 q 132 540 132 539 q 135 551 132 542 q 139 567 139 561 q 144 571 140 567 q 134 600 136 578 q 126 629 132 622 q 97 629 122 629 l 97 653 l 214 706 l 278 706 q 279 713 279 707 q 272 754 279 719 q 257 761 267 761 l 185 761 l 185 776 q 194 778 190 776 q 160 779 193 778 q 156 785 158 782 q 121 793 144 788 q 118 804 118 796 q 97 807 108 807 q 71 782 90 807 q 75 774 71 778 q 75 750 76 763 q 65 742 72 749 q 49 715 68 715 q 33 726 43 715 q 33 742 33 731 q 21 751 29 744 l 21 775 q 26 775 25 775 q 33 788 28 778 q 40 790 36 789 q 40 808 40 794 q 68 825 50 808 q 71 851 71 853 q 85 860 71 850 q 107 882 92 868 q 125 889 114 883 q 192 958 163 928 q 206 978 194 967 q 231 986 214 981 q 263 1001 249 992 q 283 1022 269 1010 q 336 1035 310 1035 q 347 1035 344 1035 q 355 1031 349 1035 q 364 1028 361 1028 l 425 1028 q 433 1026 428 1028 q 442 1024 439 1024 q 451 1026 444 1024 q 461 1028 458 1028 q 468 1051 464 1029 q 474 1026 474 1040 q 492 1024 483 1024 q 517 1034 501 1024 q 544 1043 533 1044 q 551 1024 550 1036 q 554 1008 551 1011 q 551 1005 554 1011 q 543 989 547 999 q 563 974 553 978 l 569 1094 l 582 1094 l 582 1024 q 583 1033 583 1024 l 593 1033 q 597 947 589 1003 q 651 888 617 926 q 681 843 663 872 q 676 822 683 836 q 700 821 683 821 q 701 793 700 813 q 715 776 706 786 q 717 765 717 774 q 703 744 717 753 q 704 733 704 740 q 726 731 711 732 q 749 728 742 729 m 431 401 q 429 411 431 404 q 428 421 428 418 q 404 421 404 421 q 401 393 404 411 q 401 392 401 392 q 399 390 400 392 l 399 275 q 413 286 406 279 q 419 326 415 297 q 428 388 428 392 q 429 394 428 390 q 431 401 431 399 m 378 389 q 369 403 369 392 q 371 419 369 419 l 347 419 q 346 409 347 415 q 344 400 344 403 q 364 286 344 394 q 376 275 374 279 l 378 389 z "},"#":{"ha":1389,"x_min":31,"x_max":1358,"o":"m 1358 -1 l 824 -1 q 864 15 838 4 q 856 19 864 19 q 857 39 856 26 q 863 42 858 39 q 867 69 864 51 q 893 82 876 74 q 906 106 899 86 q 869 106 906 106 q 865 117 865 108 q 875 163 865 140 q 904 193 881 178 q 899 206 904 204 q 907 235 894 214 q 929 257 919 256 q 938 329 932 281 q 940 397 935 351 q 1018 554 943 408 q 1015 563 1017 564 q 1051 629 1029 588 q 935 661 1013 639 q 921 675 929 663 q 899 676 917 676 q 864 667 878 676 q 813 651 846 656 q 676 622 764 644 q 671 605 675 621 q 660 589 667 589 q 656 593 657 589 q 654 597 656 597 q 649 590 654 597 q 624 499 640 560 q 615 496 621 499 q 583 399 599 432 q 581 364 581 392 q 617 321 581 361 q 672 285 671 313 q 706 272 689 279 q 735 249 735 258 q 714 222 735 250 q 731 215 728 215 q 747 223 733 215 q 763 231 760 231 q 775 222 765 231 q 788 213 785 213 q 792 215 792 213 q 794 218 793 218 q 810 197 796 217 q 853 196 832 196 q 781 132 821 186 q 783 119 782 129 q 757 88 758 88 q 753 88 754 88 q 750 89 753 89 q 707 46 736 89 q 688 8 700 32 q 688 46 689 18 q 668 57 685 49 q 665 67 663 60 q 646 92 646 94 q 651 108 646 96 q 657 124 657 121 q 642 139 657 125 q 624 113 642 138 q 591 142 608 117 q 574 192 574 168 q 563 178 571 186 q 583 115 583 165 q 582 108 583 113 q 581 103 581 104 l 551 103 q 547 108 553 103 q 546 103 546 107 q 558 80 546 85 q 583 71 569 75 q 586 39 582 54 q 593 36 589 38 q 589 18 593 24 q 606 6 593 8 q 625 -6 619 3 l 358 -6 q 394 13 369 0 q 390 36 390 25 q 396 39 393 36 q 400 71 401 64 q 424 78 411 74 q 438 94 438 82 q 435 106 438 99 q 426 100 429 100 l 403 100 q 400 119 400 106 q 439 193 400 165 q 426 211 426 204 q 438 233 426 214 q 457 257 450 251 q 465 297 458 268 q 471 329 471 326 q 464 338 471 333 q 433 386 433 343 q 437 408 433 403 q 440 413 440 413 q 443 432 440 419 q 490 539 460 467 q 488 546 493 544 q 538 672 504 589 q 544 714 540 686 q 565 750 544 715 q 500 753 546 753 q 494 778 501 761 q 485 783 479 783 q 470 781 482 783 q 454 778 458 778 q 445 781 451 778 q 435 783 439 783 q 426 781 432 783 q 417 778 421 778 q 404 781 414 778 q 390 783 394 783 q 376 776 390 783 l 376 765 q 386 747 381 758 q 357 728 372 754 l 263 728 q 257 714 261 728 q 239 707 250 707 q 225 714 236 707 q 210 721 214 721 q 197 710 203 721 l 125 710 q 115 732 125 718 q 33 733 93 735 l 31 746 q 57 747 33 747 q 65 757 63 747 q 72 776 69 772 q 36 785 61 775 q 72 788 58 785 q 51 803 67 792 q 61 824 56 807 q 101 846 76 829 q 108 865 103 853 q 139 871 118 868 q 153 889 146 875 q 210 901 210 901 q 222 897 213 901 q 236 893 232 893 q 291 906 239 893 q 347 919 343 919 l 365 919 q 367 911 365 917 q 368 900 368 906 q 381 900 372 900 q 390 899 388 899 q 422 902 394 899 q 454 906 450 906 q 460 903 457 906 q 467 901 464 901 l 492 901 l 492 1010 l 671 1071 q 676 1065 671 1071 q 685 1071 679 1067 q 715 1106 703 1106 l 994 1106 q 1025 1085 1004 1106 q 1032 1092 1032 1085 l 1279 992 q 1288 894 1279 954 q 1299 890 1292 894 q 1308 849 1301 875 q 1329 828 1318 840 l 1286 663 q 1271 663 1281 664 q 1258 643 1265 656 q 1253 642 1260 642 q 1218 644 1232 642 q 1217 638 1217 643 q 1222 589 1217 636 q 1232 519 1229 538 q 1228 514 1231 518 q 1242 403 1233 478 q 1258 264 1246 338 q 1288 217 1288 239 q 1281 200 1288 207 q 1281 193 1279 197 q 1317 121 1317 168 q 1315 113 1317 118 q 1313 106 1313 108 l 1285 106 q 1281 111 1286 106 q 1279 104 1279 110 q 1281 96 1279 100 q 1282 89 1282 92 q 1315 74 1294 83 q 1325 42 1314 58 q 1325 28 1328 36 q 1321 15 1321 19 q 1358 -1 1336 13 m 1282 143 q 1260 174 1260 174 q 1244 172 1257 174 q 1226 169 1231 169 l 1222 172 l 1222 147 q 1259 144 1240 146 q 1278 129 1278 143 l 1282 143 m 1171 110 q 1151 106 1164 106 q 1131 119 1131 106 q 1142 161 1131 131 q 1157 182 1146 174 q 1143 201 1143 200 q 1158 247 1143 232 q 1144 356 1156 285 q 1133 385 1140 367 q 1135 411 1135 394 q 1118 500 1121 471 q 1050 386 1108 482 q 1038 322 1047 381 q 1028 249 1028 264 q 1037 224 1028 247 q 1046 199 1046 201 q 1039 185 1046 194 q 1031 174 1032 175 q 1049 119 1049 167 q 1039 104 1049 104 q 1015 104 1015 104 l 1015 88 q 1049 72 1026 83 q 1053 49 1049 64 q 1058 40 1053 46 q 1063 31 1063 33 q 1054 14 1063 25 q 1075 8 1061 13 q 1092 3 1089 3 q 1128 14 1083 3 q 1129 43 1117 40 q 1163 85 1126 72 q 1171 110 1168 94 m 1217 144 q 1214 165 1214 156 q 1176 161 1200 164 q 1167 143 1167 150 l 1167 129 q 1179 143 1169 133 q 1217 144 1206 146 m 1015 149 q 1004 163 1011 153 q 974 163 996 158 l 971 142 q 1003 142 996 142 q 1008 131 1007 138 q 1013 131 1013 128 l 1015 149 m 965 163 q 944 169 960 164 q 925 174 928 174 q 910 160 919 174 q 900 143 900 146 l 900 126 l 906 129 q 931 143 911 143 q 963 143 963 143 q 965 163 961 156 m 699 240 q 671 254 683 250 q 659 237 669 247 q 649 225 649 226 q 650 219 649 221 q 651 215 651 217 q 682 242 665 226 q 699 240 692 235 m 651 208 q 639 215 644 215 q 625 201 638 215 q 604 197 617 193 l 604 183 q 615 156 604 183 q 624 153 618 156 l 625 158 q 622 164 625 160 q 619 169 619 168 q 651 208 631 182 m 549 124 l 549 143 q 535 160 549 153 l 528 156 q 506 160 521 156 q 504 151 506 158 q 503 139 503 143 q 542 139 525 140 l 542 124 l 549 124 m 496 168 q 483 161 492 161 q 469 165 479 161 q 456 168 460 168 q 433 143 450 168 l 438 124 q 444 139 439 129 l 493 139 q 494 147 493 139 q 496 168 496 156 z "},"$":{"ha":1090,"x_min":22,"x_max":1069,"o":"m 1068 490 q 1065 467 1069 483 q 1038 431 1061 444 q 990 418 1014 418 q 957 329 979 388 q 943 318 951 326 q 908 269 935 306 q 886 239 886 242 l 896 139 q 886 126 896 131 q 857 114 871 121 q 840 104 851 111 q 850 96 844 97 q 858 86 851 89 q 871 42 871 35 l 871 6 l 785 6 q 782 24 786 18 q 781 8 781 21 l 550 1 l 242 -3 l 242 7 q 257 40 240 15 q 379 88 299 57 q 478 124 481 124 q 481 122 481 124 q 483 122 481 122 q 490 126 486 122 q 496 132 494 131 q 478 183 485 160 l 582 294 q 588 293 582 293 q 613 326 589 293 q 651 378 642 365 q 663 383 656 379 q 706 409 685 397 q 728 429 726 421 q 726 433 728 429 q 725 440 725 438 q 727 445 725 442 q 729 449 729 449 q 738 467 726 457 q 736 479 736 468 q 746 483 739 479 q 749 489 747 485 q 761 494 751 493 q 768 506 763 499 q 779 501 771 506 q 788 510 783 510 q 792 508 790 510 q 797 506 794 506 q 802 509 800 506 q 807 513 804 513 q 812 510 810 513 q 814 508 814 508 q 849 558 819 515 q 847 571 847 563 q 882 618 879 618 q 885 618 885 618 q 886 617 883 617 q 896 632 896 617 q 888 657 896 640 q 863 650 876 656 q 867 617 863 651 q 819 617 818 617 q 819 594 819 618 q 760 581 758 581 q 726 592 757 581 q 692 603 694 603 l 685 603 q 652 541 681 571 q 589 507 624 511 q 578 503 579 503 q 522 518 550 503 q 476 557 490 533 q 403 553 449 558 q 426 517 415 532 q 454 517 435 517 l 454 497 q 408 497 433 500 q 382 543 394 522 q 365 518 367 519 q 346 513 360 513 l 228 513 q 182 542 211 535 q 138 549 160 544 l 138 569 q 164 569 146 564 q 150 583 150 588 q 158 603 150 586 q 165 622 165 619 q 162 631 165 625 q 157 639 158 636 q 153 682 153 658 q 147 685 149 685 q 144 686 144 685 q 140 688 143 688 l 81 688 q 66 684 78 688 q 51 681 54 681 l 24 681 l 22 706 l 140 706 q 160 710 146 707 q 179 733 167 721 q 172 735 178 735 q 197 755 178 746 q 226 764 215 764 q 232 769 229 765 q 319 967 261 835 q 426 996 354 976 l 426 1107 q 433 1106 428 1107 q 438 1104 438 1104 q 438 1079 438 1097 q 436 1060 436 1061 q 443 1003 436 1015 q 450 1004 446 1003 q 453 1004 453 1004 l 575 947 q 576 963 576 951 q 621 963 592 964 q 650 961 656 961 q 668 970 653 961 q 690 982 683 979 q 747 992 713 992 q 801 979 771 992 q 831 951 804 979 q 904 947 856 950 l 906 850 q 953 874 924 874 q 1013 838 990 874 q 1021 782 1017 818 q 1021 758 1006 778 q 1036 747 1026 754 q 1056 701 1056 731 q 1038 654 1056 697 l 1068 490 m 933 465 q 925 483 925 468 l 926 483 q 925 494 922 492 q 929 503 926 499 q 928 508 929 504 q 861 406 904 472 q 800 365 839 365 q 776 371 789 365 q 725 286 746 314 q 713 281 719 285 q 669 240 696 264 q 642 214 657 232 q 626 110 636 179 q 621 104 622 104 q 574 93 606 100 q 583 90 578 92 q 597 72 585 83 l 744 131 q 750 128 747 128 q 755 131 753 128 q 758 133 757 133 q 736 176 750 149 l 817 308 l 819 308 q 863 397 835 343 q 933 465 888 419 m 790 71 q 776 54 776 56 q 783 32 776 50 q 790 71 783 36 m 519 61 q 507 53 510 53 q 513 35 513 42 q 519 61 515 44 z "},"%":{"ha":685,"x_min":25,"x_max":660,"o":"m 660 628 q 650 599 660 611 q 636 583 643 593 q 628 464 628 499 q 633 417 628 435 q 631 403 636 407 q 647 396 638 401 l 647 386 q 638 383 643 383 q 633 379 633 383 l 643 249 q 638 235 643 247 q 633 242 632 238 q 636 250 633 244 q 635 253 636 251 q 635 258 635 257 q 633 261 636 260 q 607 196 617 226 q 592 172 607 193 q 592 165 592 169 q 547 104 578 144 q 515 57 529 85 q 513 42 515 51 q 504 25 511 32 l 504 19 q 513 18 506 18 l 513 -3 l 333 -3 q 340 11 336 1 q 332 13 339 13 q 314 10 339 13 q 300 0 306 0 q 293 4 299 0 q 289 0 290 3 l 269 0 q 272 7 271 4 q 260 13 268 10 q 307 28 294 28 q 313 26 310 28 q 318 26 317 26 q 340 31 338 26 q 340 42 340 33 q 382 54 386 54 q 385 54 385 54 q 386 53 385 53 q 424 69 386 53 q 425 60 425 67 q 451 46 446 64 q 458 63 454 53 q 469 74 461 74 q 471 74 471 74 q 474 72 471 72 q 478 78 475 72 q 483 85 481 85 q 485 83 485 85 q 486 83 485 83 q 560 200 493 83 q 564 232 564 208 q 557 240 564 233 l 557 253 l 563 253 q 563 274 569 257 q 561 279 561 275 l 581 574 q 581 588 581 581 q 564 610 572 597 q 547 621 560 607 q 531 636 535 635 q 449 658 472 658 l 363 658 q 363 667 363 667 q 338 674 328 674 q 329 672 335 674 q 321 671 324 671 q 275 682 318 671 q 275 696 275 682 q 307 692 281 696 q 300 707 304 696 q 299 703 299 706 q 297 700 299 701 q 290 703 293 700 q 329 744 301 740 q 310 778 310 768 q 308 783 310 781 q 306 786 306 785 q 307 799 307 790 q 282 801 294 801 q 260 767 275 801 q 228 733 244 733 q 210 736 226 733 q 190 739 193 739 q 181 734 189 739 q 171 729 174 729 q 156 726 163 726 q 125 738 140 726 q 124 749 124 740 q 121 756 124 750 q 118 763 118 761 q 128 785 118 757 q 132 786 129 785 q 124 794 125 788 q 121 801 122 800 q 101 803 115 803 q 83 803 88 803 q 79 800 83 800 l 25 800 l 25 819 l 78 819 q 83 815 79 819 l 132 815 q 138 818 133 817 q 157 819 143 819 q 161 831 161 824 q 174 914 161 860 q 188 992 188 968 l 188 996 q 185 997 189 997 q 147 983 196 997 q 140 989 146 983 q 169 1006 143 994 q 192 1014 192 1014 q 194 1013 194 1014 q 196 1011 193 1011 q 217 1019 190 1011 q 281 1038 239 1024 q 279 1045 281 1040 q 277 1052 278 1050 q 275 1054 276 1054 q 225 1040 268 1054 q 221 1043 224 1042 l 401 1099 q 410 1097 404 1097 q 427 1103 411 1097 q 444 1108 443 1108 q 463 1100 453 1108 q 464 1081 463 1097 q 474 1078 469 1078 l 500 926 q 515 922 506 925 l 515 911 q 506 900 506 906 q 514 872 506 897 q 522 844 522 846 q 519 839 522 842 q 517 833 517 836 q 488 833 503 833 q 474 803 481 824 q 478 800 476 800 q 521 814 469 800 q 524 818 522 815 q 544 826 544 826 l 554 826 q 579 751 565 796 q 576 739 576 747 q 583 718 579 732 l 533 700 q 564 678 567 678 q 565 679 565 678 q 568 681 565 681 q 576 675 569 681 q 583 669 582 669 q 589 672 586 669 q 593 674 592 674 q 611 676 611 676 q 660 628 660 676 m 383 1086 l 381 1086 l 379 1076 l 382 1076 l 383 1086 m 371 1063 q 371 1083 371 1063 q 339 1074 358 1079 q 347 1074 347 1074 q 363 1060 357 1074 q 366 1060 364 1060 q 371 1063 368 1061 m 336 1069 l 336 1072 l 331 1072 l 331 1069 l 336 1069 m 324 1067 l 324 1069 l 319 1069 l 319 1067 l 324 1067 m 319 1067 l 313 1067 q 311 1061 313 1063 q 304 1064 304 1064 q 285 1057 303 1064 q 289 1042 286 1051 q 315 1047 299 1044 q 319 1067 313 1058 m 478 833 l 460 833 q 454 824 457 829 q 469 818 461 821 q 478 833 474 829 m 467 797 q 443 810 449 800 q 436 800 436 806 q 447 785 436 794 q 467 797 450 792 m 426 813 q 424 821 426 811 q 400 819 406 818 q 407 793 407 782 q 426 813 426 799 m 435 779 q 425 793 429 783 q 404 783 411 785 q 403 767 406 774 q 408 765 404 767 q 414 763 411 763 q 435 779 424 779 m 561 629 l 554 631 l 554 628 l 561 626 l 561 629 m 406 671 l 406 674 l 364 675 l 364 672 l 406 671 m 631 285 l 625 382 q 608 289 624 343 q 618 290 611 290 q 631 285 625 290 z "},"&":{"ha":2803,"x_min":17,"x_max":2786,"o":"m 2786 296 q 2744 318 2749 297 q 2690 317 2715 319 q 2678 308 2688 313 q 2633 310 2664 310 q 2513 311 2572 311 q 2418 290 2446 311 q 2421 286 2418 288 q 2515 147 2515 247 q 2468 39 2515 83 q 2346 -6 2421 -6 q 2335 -10 2343 -6 q 2325 -14 2328 -14 q 2315 -10 2321 -14 q 2307 -6 2310 -6 l 1885 -6 q 1876 -10 1881 -6 q 1868 -14 1872 -14 q 1860 -10 1865 -14 q 1851 -6 1856 -7 q 1797 -1 1833 -4 q 1711 54 1747 6 q 1676 144 1676 99 q 1686 183 1676 158 q 1700 225 1697 218 q 1613 228 1689 226 q 1600 236 1608 231 q 1581 238 1594 238 q 1571 257 1579 243 l 1254 260 q 1224 239 1243 260 q 1194 218 1204 218 l 1178 218 l 1178 331 l 1194 331 q 1215 317 1203 331 q 1229 303 1222 308 q 1247 289 1236 297 l 1576 289 l 1576 306 q 1554 308 1575 307 q 1538 321 1549 321 q 1528 313 1529 321 q 1524 308 1526 310 q 1494 308 1518 308 q 1464 308 1492 308 q 1438 358 1438 351 q 1447 379 1438 361 q 1461 406 1457 397 q 1429 411 1444 411 l 1346 411 q 1319 413 1343 411 q 1288 415 1296 415 q 1265 454 1264 439 q 1261 458 1265 456 q 1122 467 1213 461 q 1094 518 1114 485 q 1082 511 1088 511 q 904 528 1104 511 q 882 539 893 529 q 875 538 882 536 l 389 538 q 369 521 382 521 q 349 536 361 521 q 294 538 342 538 q 290 550 290 540 q 144 571 218 560 q 17 653 17 597 q 79 715 17 688 q 146 738 113 726 q 224 767 193 763 q 240 781 229 772 q 293 786 257 781 q 240 813 282 800 q 168 818 215 814 l 168 836 l 250 836 q 331 808 274 836 q 386 779 382 785 q 389 756 386 772 l 1065 756 q 1081 790 1078 788 q 1113 804 1090 804 q 1140 794 1133 804 q 1154 758 1147 785 l 1300 758 q 1331 797 1310 797 q 1342 794 1336 797 q 1346 832 1340 808 q 1371 858 1353 849 q 1376 860 1369 860 q 1384 856 1381 860 q 1392 853 1388 853 l 1785 853 q 1799 856 1788 853 q 1814 860 1810 860 q 1843 856 1817 860 q 1874 853 1869 853 q 1904 853 1899 853 q 1915 858 1907 854 q 1926 863 1922 863 q 1954 836 1954 863 q 1944 819 1954 828 q 1926 811 1933 811 q 1907 819 1931 811 q 1874 821 1903 821 q 1840 819 1853 821 q 1831 803 1836 813 q 1850 794 1839 803 q 1885 760 1861 786 l 1919 760 q 1922 775 1922 763 q 1943 778 1926 778 q 1954 792 1953 779 l 2006 792 q 2007 785 2006 792 q 2008 772 2008 778 q 2035 771 2017 772 q 2056 769 2053 769 q 2078 771 2058 769 q 2106 772 2099 772 q 2111 793 2111 779 q 2111 815 2111 814 q 2136 846 2115 835 l 2361 846 q 2378 832 2367 846 q 2375 813 2381 821 q 2375 758 2382 790 q 2379 717 2375 743 q 2482 688 2456 700 q 2567 610 2539 663 q 2601 590 2578 604 q 2651 543 2632 569 q 2663 525 2653 542 q 2685 522 2671 525 q 2690 518 2685 522 q 2700 514 2696 514 q 2724 517 2733 514 q 2729 511 2722 511 q 2742 515 2726 511 q 2754 529 2746 519 q 2778 539 2761 533 q 2786 539 2782 539 l 2786 296 m 1796 801 q 1785 821 1792 810 l 1419 821 l 1419 794 q 1451 794 1444 794 q 1464 760 1457 782 l 1606 760 q 1611 785 1607 769 l 1710 785 q 1715 760 1717 774 l 1740 760 q 1769 789 1747 765 q 1796 801 1782 803 z "},"'":{"ha":2801,"x_min":17,"x_max":2785,"o":"m 2785 507 q 2726 554 2754 526 q 2721 578 2725 556 q 2708 585 2717 585 q 2656 579 2725 585 q 2647 569 2653 576 q 2596 558 2625 572 q 2543 535 2556 539 q 2467 528 2514 526 q 2389 529 2376 529 q 2382 524 2388 528 l 2382 292 q 2396 271 2386 286 q 2397 242 2397 267 q 2356 110 2397 164 q 2238 15 2300 38 q 2117 0 2197 0 q 1964 32 2022 0 q 1847 179 1889 72 q 1724 25 1801 65 q 1560 -3 1668 -3 l 1531 -3 q 1408 40 1474 -3 q 1318 144 1338 86 q 1306 171 1317 149 q 1186 25 1254 63 q 1033 -3 1133 -3 q 946 1 964 -3 q 801 99 853 26 q 754 242 754 164 q 756 263 754 257 q 771 285 763 269 l 771 642 l 511 642 q 508 653 511 650 q 436 656 483 651 q 431 659 435 657 q 421 661 428 661 q 394 658 415 661 q 368 654 372 654 q 332 656 344 654 q 326 661 336 661 l 224 661 q 206 652 219 661 q 189 643 193 643 q 168 642 185 643 q 140 640 151 640 q 169 676 161 660 q 178 707 172 681 q 189 728 183 728 q 221 708 208 728 l 326 708 q 369 719 336 719 q 404 718 385 719 q 421 708 414 708 q 435 714 425 708 q 449 722 444 719 q 453 749 453 724 l 453 800 q 519 801 490 801 q 519 917 524 804 q 518 899 518 915 l 492 899 q 492 846 490 875 l 286 846 q 258 776 264 783 q 210 769 251 769 q 174 772 182 769 q 138 801 156 778 q 139 821 140 808 q 129 843 136 829 q 17 900 38 853 q 131 958 56 918 q 206 1060 126 1060 q 271 1021 257 1060 q 366 1023 326 1021 q 399 1025 406 1025 q 518 1017 476 1025 q 521 994 518 1000 q 551 1010 553 1010 q 590 994 544 1010 l 843 1000 q 778 1005 822 1001 q 713 1010 733 1008 l 708 1036 q 781 1049 782 1049 l 894 1049 q 921 1060 901 1060 q 942 1049 933 1060 q 944 1071 946 1054 l 985 1071 q 989 1063 989 1071 q 992 1051 989 1054 q 1031 1022 994 1047 q 1047 997 1033 1014 l 1374 997 q 1424 1021 1386 1021 q 1464 1010 1457 1021 q 1475 1021 1468 1014 l 1836 1021 q 1844 1014 1843 1014 q 1854 1021 1846 1014 l 2215 1021 q 2224 1014 2222 1014 q 2244 1017 2228 1014 q 2264 1021 2260 1021 q 2296 1019 2289 1021 q 2315 1003 2300 1013 q 2361 1000 2329 1003 q 2369 994 2360 994 l 2399 994 q 2401 1008 2401 997 q 2375 1039 2401 1039 q 2364 1038 2369 1039 l 2364 1106 l 2501 1106 q 2503 1068 2503 1110 q 2490 1033 2503 1040 l 2490 997 q 2515 996 2506 992 q 2528 1001 2529 1001 l 2578 1001 q 2583 986 2583 997 q 2604 982 2588 982 q 2626 988 2621 982 q 2638 994 2632 994 q 2657 990 2640 994 q 2683 986 2674 986 q 2688 949 2689 969 q 2632 932 2653 932 q 2625 937 2626 932 q 2622 943 2624 942 q 2604 944 2621 944 q 2582 929 2585 944 l 2493 932 l 2490 929 l 2490 915 q 2501 913 2493 913 l 2501 721 l 2600 721 q 2607 733 2601 725 q 2628 735 2611 735 q 2651 724 2643 735 q 2683 724 2656 724 q 2715 725 2706 724 q 2724 746 2717 732 q 2785 797 2746 768 l 2785 507 m 2401 914 l 2401 929 q 2317 931 2329 928 l 2317 840 q 2379 728 2344 813 q 2386 736 2383 731 q 2393 764 2386 753 q 2390 768 2393 769 q 2386 771 2386 767 l 2386 914 l 2401 914 m 1899 824 l 1794 824 q 1842 678 1844 728 l 1849 682 q 1899 824 1861 785 m 1376 844 l 1376 858 l 1215 858 q 1258 810 1235 843 q 1286 756 1281 778 q 1306 693 1292 733 q 1317 739 1311 715 q 1343 801 1324 769 q 1364 828 1347 810 q 1376 844 1376 840 m 847 854 l 790 854 q 774 847 788 847 q 754 878 750 847 l 681 878 l 681 894 q 728 919 696 903 l 585 919 l 585 732 l 774 732 q 800 790 786 761 q 847 854 822 832 z "},"(":{"ha":2719,"x_min":19,"x_max":2700,"o":"m 2700 539 q 2688 389 2700 525 q 2664 158 2675 232 q 2582 69 2663 143 q 2489 -4 2501 -4 q 2368 92 2464 -4 q 2263 201 2315 147 q 2110 351 2210 256 q 2015 419 2063 394 q 1779 513 1904 479 q 1626 549 1689 535 q 1600 485 1600 499 q 1638 444 1600 471 q 1731 375 1671 424 q 1751 339 1739 365 q 1763 307 1763 313 l 1763 278 q 1757 276 1761 278 q 1747 274 1753 274 q 1733 282 1740 274 q 1658 392 1718 364 q 1597 432 1640 401 q 1556 458 1560 458 q 1542 456 1551 458 q 1529 454 1533 454 q 1503 478 1504 454 q 1501 515 1501 514 q 1458 528 1486 526 q 1436 567 1457 529 q 1375 571 1388 571 q 1365 565 1371 571 q 1354 560 1358 560 q 1306 564 1349 560 q 1258 568 1263 568 l 1071 564 q 1015 594 1053 568 q 1015 569 1011 575 q 1021 563 1021 563 l 1021 533 l 958 533 q 957 569 951 551 q 844 571 954 571 q 815 618 838 588 q 807 667 818 638 l 807 694 q 825 700 819 694 q 807 707 819 701 l 807 732 q 831 736 817 738 l 833 739 l 833 776 q 811 788 825 786 q 751 797 740 797 q 744 793 747 797 q 736 789 740 789 l 639 789 q 631 793 635 789 q 624 797 628 797 q 571 788 622 797 q 489 775 515 778 q 407 765 450 772 q 282 746 364 758 q 75 717 213 735 q 58 706 71 717 q 40 696 46 696 q 19 704 36 696 l 24 1036 q 35 1117 24 1069 l 57 1117 q 75 1096 63 1110 q 633 1008 665 1008 q 642 1015 635 1008 l 740 1015 q 748 1012 744 1015 q 756 1008 751 1008 q 829 1019 794 1008 q 838 1038 838 1028 q 838 1057 838 1056 q 853 1064 840 1064 q 868 1064 854 1064 q 904 1063 883 1063 q 975 1064 933 1063 l 975 1042 l 1256 1042 q 1263 1071 1263 1054 l 1340 1071 q 1342 1057 1340 1068 q 1343 1038 1343 1046 q 1361 1033 1350 1040 q 1375 1026 1372 1026 q 1401 1053 1394 1026 l 1419 1053 q 1425 1050 1422 1051 q 1425 1046 1424 1047 q 1443 1057 1431 1057 q 1476 1051 1460 1057 q 1499 1033 1492 1046 q 1503 1038 1500 1033 q 1507 1044 1506 1043 q 1531 1057 1514 1042 l 1668 1057 q 1685 1043 1672 1043 q 1701 1044 1703 1044 q 1704 1019 1703 1042 q 1710 1004 1704 1004 q 1719 1004 1715 1004 q 1724 1004 1722 1004 q 1724 946 1725 997 q 1739 917 1722 919 l 1739 869 l 1717 869 q 1717 785 1722 828 q 1828 782 1719 782 q 1840 778 1832 782 q 1851 772 1849 774 q 1968 658 1906 708 q 2118 593 2057 589 q 2136 590 2124 593 q 2153 586 2149 586 l 2297 586 q 2301 590 2301 586 q 2304 594 2300 594 q 2317 592 2308 594 q 2329 590 2325 590 l 2606 628 q 2667 599 2633 629 q 2700 539 2700 569 m 1544 475 q 1522 500 1526 492 l 1522 478 q 1544 475 1533 472 m 1510 743 q 1493 760 1510 743 q 1463 738 1478 738 q 1447 744 1454 738 q 1436 738 1447 738 q 1429 741 1432 738 q 1422 744 1426 744 q 1415 741 1417 744 q 1408 738 1414 738 q 1393 750 1403 738 q 1372 771 1379 767 q 1342 756 1357 756 q 1335 721 1342 743 l 1257 721 q 1256 742 1257 729 q 1254 758 1254 754 l 972 758 q 969 740 974 744 l 911 740 q 972 726 932 738 l 972 708 q 950 701 964 701 q 972 689 953 699 l 972 676 l 1008 676 q 1042 706 1019 689 q 1060 708 1050 706 q 1065 714 1058 711 l 1361 714 q 1363 708 1361 714 q 1371 703 1365 703 q 1410 705 1374 703 q 1464 707 1447 707 q 1479 724 1463 722 q 1506 722 1493 724 q 1510 743 1506 739 z "},")":{"ha":2788,"x_min":19,"x_max":2768,"o":"m 2768 711 q 2756 704 2764 710 q 2754 631 2756 681 q 2742 608 2753 628 q 2739 592 2742 603 q 2704 569 2728 569 q 2625 615 2668 569 l 2617 615 q 2603 590 2610 603 q 2579 576 2597 576 l 2454 576 q 2446 582 2454 576 q 2375 585 2422 583 q 2339 638 2363 603 q 2336 654 2342 646 l 2203 654 q 2192 640 2201 649 l 2040 640 q 2018 606 2032 628 q 1957 585 1988 594 q 1911 546 1911 565 q 1976 443 1911 543 q 2072 292 2050 331 q 2114 225 2093 258 q 2140 158 2140 181 q 2125 104 2140 125 q 2047 49 2119 97 q 1963 -3 1971 -3 q 1933 8 1951 -3 q 1913 38 1915 19 q 1915 110 1907 61 l 1700 393 q 1688 389 1700 393 q 1671 372 1683 379 q 1635 356 1653 363 q 1582 338 1593 340 q 1528 336 1571 336 q 1400 368 1453 336 q 1339 468 1339 404 q 1392 582 1339 528 q 1363 590 1389 590 q 1324 587 1358 590 q 1285 583 1289 583 l 1076 563 l 661 556 q 557 474 622 474 q 511 483 563 474 q 433 486 485 483 q 264 504 376 493 q 158 515 228 506 q 78 522 118 519 q 19 576 19 535 q 67 650 19 650 q 89 646 72 650 q 115 642 106 642 q 132 646 125 642 q 79 647 110 653 l 79 683 q 47 686 65 688 l 47 801 q 72 808 67 801 q 75 836 78 814 q 125 840 93 843 q 133 861 128 849 q 142 865 136 861 q 157 928 151 914 q 206 972 174 972 q 229 961 218 972 q 247 944 244 946 q 275 935 257 942 q 286 883 279 922 q 321 904 303 901 l 1051 908 q 1136 865 1056 907 l 1149 865 l 1149 925 q 1167 931 1153 925 q 1183 936 1181 936 q 1229 931 1189 936 q 1274 926 1269 926 q 1315 928 1269 926 q 1372 929 1354 931 q 1371 1033 1375 932 l 1485 1033 l 1485 1097 l 1629 1097 q 1633 1108 1633 1101 l 2158 1108 l 2158 913 l 2049 913 l 2044 904 l 2381 904 q 2388 872 2382 893 l 2435 872 q 2458 945 2432 911 q 2524 979 2483 979 q 2583 951 2557 979 q 2617 886 2610 924 l 2721 886 q 2750 861 2739 888 q 2756 811 2754 853 q 2768 806 2761 806 l 2768 711 m 1650 415 q 1569 476 1622 438 q 1575 442 1578 454 q 1503 383 1551 419 q 1476 381 1496 379 q 1501 378 1485 381 q 1519 375 1517 375 q 1650 415 1604 375 m 1513 451 q 1491 497 1513 458 q 1451 557 1469 535 q 1433 565 1444 560 q 1401 529 1403 532 q 1385 474 1385 506 q 1458 386 1385 413 q 1469 410 1456 396 q 1488 411 1478 410 q 1513 451 1513 438 m 1131 697 q 1110 710 1125 710 q 1085 694 1097 710 q 1110 686 1101 686 q 1131 697 1118 686 m 1032 690 l 1032 703 q 1011 710 1017 710 q 990 703 1006 710 l 990 690 q 1032 690 1014 683 m 936 699 q 915 710 931 710 q 896 706 921 710 q 890 694 890 693 l 899 686 l 929 686 q 936 699 936 694 m 838 690 l 838 703 q 815 710 822 710 q 796 703 804 710 l 796 690 q 815 682 811 682 q 838 690 817 682 m 743 694 q 735 707 735 701 l 704 707 q 697 690 697 699 q 719 682 713 682 q 743 694 731 682 m 643 694 q 636 707 642 699 l 610 707 q 599 690 599 696 q 619 682 614 682 q 643 694 638 682 m 544 699 l 536 707 q 513 705 522 707 q 503 703 503 703 l 503 686 q 513 684 507 686 q 524 682 519 682 q 544 699 543 682 m 260 894 l 260 911 l 254 911 l 254 894 l 260 894 m 450 694 q 426 707 443 707 q 404 690 407 707 q 428 679 426 679 q 450 694 442 679 m 219 935 l 213 943 l 200 943 q 183 924 190 942 q 175 899 179 911 q 219 935 190 911 m 350 686 l 350 699 q 329 707 335 707 q 308 700 325 707 l 308 686 l 313 682 q 318 681 314 682 q 328 679 322 679 q 350 686 335 679 z "},"*":{"ha":542,"x_min":15,"x_max":525,"o":"m 525 694 q 506 685 519 692 q 486 676 492 679 q 481 690 485 681 q 476 706 478 700 q 461 701 468 701 q 453 707 465 701 q 444 692 451 700 q 394 682 419 682 q 389 683 397 682 q 386 667 390 678 q 421 633 403 657 q 432 639 433 639 q 451 623 436 639 q 467 604 465 607 q 475 557 468 588 q 467 553 468 557 q 467 544 467 549 q 451 541 461 543 q 426 529 442 539 q 421 508 425 522 q 385 457 408 483 q 372 442 379 453 q 371 428 372 438 q 360 418 367 425 q 356 403 358 413 q 344 389 353 394 q 343 365 342 382 q 343 343 346 349 q 322 333 340 333 l 322 329 q 336 322 328 328 q 361 278 351 304 q 360 263 360 272 q 367 229 369 235 q 376 174 376 181 q 368 154 376 161 q 379 128 378 142 q 378 117 381 125 q 376 106 376 110 q 386 83 376 104 q 393 54 393 68 q 389 32 393 50 q 378 19 388 24 q 317 -7 324 -7 q 283 3 300 -7 q 272 21 272 8 q 278 30 272 29 q 294 33 283 31 q 317 61 301 43 q 319 72 319 65 q 313 83 319 75 q 307 93 307 92 q 310 114 307 94 q 314 135 314 133 q 297 159 314 146 q 270 194 279 172 q 251 238 261 217 q 242 214 242 233 q 246 194 242 203 q 250 181 250 185 q 247 171 250 179 q 243 160 243 163 q 250 143 243 158 q 257 126 257 128 q 256 115 257 125 q 253 100 254 104 q 251 93 253 96 q 240 90 249 90 q 228 90 239 90 q 214 92 217 92 q 186 90 213 92 q 157 88 160 88 q 114 99 128 88 q 114 106 114 100 q 113 113 113 110 q 126 124 113 121 q 147 126 136 125 q 179 147 158 135 q 183 176 181 161 q 194 197 186 190 q 139 331 165 247 q 133 342 136 335 q 135 357 131 349 q 125 368 125 369 q 136 389 125 374 q 149 406 142 397 q 179 465 179 463 q 176 476 179 467 q 174 486 174 485 q 188 501 174 489 q 203 515 203 514 q 233 565 213 532 q 246 572 240 565 l 246 578 q 233 585 236 581 q 228 607 228 594 q 232 622 228 614 q 238 628 233 624 q 239 631 239 626 q 236 638 239 632 q 233 646 233 644 q 236 668 233 658 q 200 679 204 679 q 179 654 183 654 q 165 657 176 654 q 153 660 154 660 q 145 654 153 660 q 132 649 138 649 q 114 658 122 649 q 106 678 106 668 q 110 688 106 683 q 103 692 107 688 q 104 703 101 693 q 101 713 101 717 q 85 716 96 713 q 57 725 75 719 q 28 728 47 726 q 24 751 25 740 q 22 765 15 757 q 17 771 21 767 l 17 776 q 49 789 33 789 q 111 756 83 789 q 115 758 115 758 q 147 753 115 758 q 207 840 165 779 q 219 856 211 846 q 246 871 228 861 q 249 874 249 875 q 240 883 249 878 q 226 886 236 885 q 214 888 217 888 q 192 883 219 888 l 192 897 q 193 908 192 899 q 194 922 194 918 q 196 974 194 943 q 201 976 197 974 q 194 988 194 986 q 206 1021 194 1000 q 264 1051 222 1051 q 276 1050 269 1051 l 276 1051 l 276 1079 q 273 1082 275 1081 q 269 1087 271 1083 q 268 1092 268 1090 l 268 1100 l 293 1100 q 296 1096 296 1099 q 292 1082 296 1090 q 286 1079 289 1082 l 286 1050 q 307 1043 304 1044 q 328 1022 319 1036 q 333 997 332 1017 q 335 994 333 997 q 336 988 336 990 q 335 975 336 993 q 335 918 335 956 q 322 914 329 918 q 324 911 322 913 q 342 915 336 915 q 368 911 357 915 q 376 907 379 907 q 382 908 378 907 q 388 908 385 908 q 386 922 389 913 q 376 931 381 925 q 378 994 378 960 q 375 992 376 993 l 361 1049 q 367 1051 365 1049 q 372 1092 367 1068 q 392 1056 378 1089 q 396 1054 392 1056 q 400 994 406 1004 q 421 939 421 928 q 417 933 421 938 q 414 928 414 929 q 417 916 414 919 q 435 897 421 913 q 438 897 436 897 q 443 897 440 897 q 449 899 446 899 q 463 890 458 899 q 465 867 463 882 q 472 851 468 861 q 479 808 475 842 q 489 760 482 790 q 497 750 492 757 q 497 732 500 743 l 525 694 m 242 378 q 224 365 238 374 q 235 347 229 358 q 242 358 235 354 q 242 378 242 365 z "},"+":{"ha":2842,"x_min":32,"x_max":2810,"o":"m 2810 376 q 2790 242 2810 364 q 2751 17 2769 99 q 2740 0 2750 10 q 2722 -10 2729 -10 q 2626 8 2718 -10 q 2494 32 2522 28 q 2491 38 2494 32 q 2481 43 2488 43 q 2474 41 2475 43 q 2468 39 2474 39 q 2408 54 2465 39 q 2304 81 2343 74 q 2076 129 2238 93 q 1935 161 1939 161 q 1867 133 1935 161 q 1764 104 1799 104 q 1729 113 1757 104 q 1731 132 1729 118 q 1733 150 1733 146 q 1699 264 1733 214 q 1585 343 1658 321 l 1574 343 q 1563 294 1571 338 q 1536 254 1558 265 q 1533 318 1536 304 q 1483 351 1524 351 q 1453 321 1453 351 q 1494 268 1453 290 q 1554 211 1542 244 q 1550 201 1550 206 l 1529 201 q 1499 219 1529 201 q 1443 243 1464 238 q 1192 271 1404 251 q 1103 324 1139 276 q 1033 372 1067 372 q 980 370 1029 372 q 925 368 931 368 q 833 369 839 368 q 793 383 819 375 q 665 389 710 389 q 569 378 614 389 q 493 368 525 368 q 404 381 492 368 q 400 333 404 379 q 375 315 392 319 q 342 304 344 306 q 285 181 339 225 q 169 140 238 140 q 117 160 157 140 q 53 224 78 181 q 32 301 32 261 q 81 408 32 363 q 193 453 131 453 q 261 431 222 453 q 331 360 307 404 q 369 375 344 364 l 369 393 q 349 389 357 389 q 314 399 332 389 q 292 431 292 411 l 313 606 q 296 607 310 607 q 282 602 290 607 q 271 596 274 597 q 222 592 254 592 q 203 595 221 592 q 176 596 186 599 q 165 604 174 600 q 118 608 157 608 l 118 656 q 181 668 142 658 q 188 835 188 722 l 282 835 l 282 656 l 1163 656 q 1177 658 1167 656 q 1190 662 1188 661 q 1196 671 1192 663 q 1269 679 1228 678 q 1400 679 1335 679 q 1386 682 1394 681 q 1374 701 1388 694 q 1365 695 1369 701 q 1354 689 1360 689 q 1348 687 1349 689 q 1342 685 1347 685 q 1325 700 1333 685 q 1279 701 1311 701 q 1243 691 1274 701 q 1207 681 1213 681 l 1056 681 l 1056 803 l 1203 803 q 1221 796 1211 803 q 1297 782 1283 782 q 1331 788 1331 782 q 1329 792 1329 789 q 1346 794 1335 794 q 1363 792 1358 794 q 1367 782 1363 789 l 1371 782 q 1386 796 1383 782 q 1406 803 1389 797 q 1431 807 1422 808 q 1469 831 1450 831 q 1508 815 1493 831 q 1540 799 1522 799 q 1563 803 1544 799 q 1588 807 1581 807 q 1622 799 1611 807 q 1646 825 1628 807 q 1675 831 1676 831 q 1708 815 1699 831 q 1725 799 1718 799 q 1739 806 1729 799 q 1776 802 1761 806 q 1794 799 1792 799 q 1815 807 1799 799 q 1838 815 1832 815 q 1878 813 1839 815 q 1936 810 1917 810 q 1932 789 1938 799 q 2069 794 1996 792 l 2151 794 l 2151 681 l 1936 693 q 1932 665 1931 685 l 1829 665 q 1813 671 1824 664 q 1793 681 1797 679 q 1790 628 1790 675 q 1846 539 1790 539 l 2482 539 q 2569 474 2486 539 q 2699 422 2626 431 q 2783 415 2729 421 q 2810 376 2810 408 m 2728 343 q 2597 369 2668 353 q 2479 440 2526 400 q 2397 461 2456 461 l 1825 461 q 1792 448 1806 461 q 1778 418 1778 435 q 1783 401 1778 406 q 1850 336 1815 378 q 1901 260 1872 301 q 1958 231 1926 236 q 2011 225 1985 228 q 2178 186 2071 210 q 2326 153 2226 175 q 2426 132 2425 132 q 2439 138 2431 132 q 2453 144 2447 144 q 2474 138 2458 144 q 2494 129 2490 131 q 2661 99 2551 119 q 2686 88 2672 96 l 2728 343 m 1558 675 l 1558 682 l 1503 682 l 1503 675 l 1558 675 m 978 425 l 978 531 l 704 531 q 685 531 694 531 q 649 532 665 532 q 536 488 536 532 q 543 467 536 481 q 567 449 553 449 l 736 449 q 790 437 742 449 q 843 425 838 425 l 978 425 m 458 601 l 458 610 l 382 610 l 382 601 l 458 601 z "},",":{"ha":465,"x_min":21,"x_max":444,"o":"m 444 1032 q 381 1006 436 1025 q 392 1004 383 1004 q 431 940 431 939 l 431 868 q 418 865 426 868 q 439 854 425 861 l 439 811 q 419 800 432 807 l 419 789 q 439 776 426 785 l 439 736 q 419 724 433 732 q 425 719 422 718 q 419 713 425 717 q 438 710 424 710 q 439 704 439 703 q 433 697 439 700 q 428 688 428 693 q 414 586 428 683 q 349 93 349 111 q 364 72 357 76 q 379 62 371 67 q 388 51 388 57 q 364 33 388 40 q 339 28 351 31 q 329 10 335 22 q 267 3 308 10 l 263 3 q 251 10 260 8 q 247 17 251 10 q 179 25 224 15 l 179 35 l 207 35 l 208 36 l 208 39 q 204 42 207 39 q 151 43 188 43 q 133 35 135 43 q 129 35 132 35 q 108 42 114 43 l 108 47 l 54 47 l 54 60 q 72 63 60 63 q 85 63 79 63 q 88 60 83 60 l 124 60 q 125 64 125 61 l 132 64 q 135 60 133 63 l 193 60 q 196 64 194 61 q 186 65 193 65 l 186 78 q 196 78 193 76 q 269 114 228 97 l 269 119 q 265 179 268 140 q 267 183 265 181 q 265 239 267 201 q 260 247 264 243 q 257 300 256 272 q 258 301 257 300 q 256 356 260 308 q 250 361 253 357 q 247 404 250 371 q 217 406 238 406 q 210 403 213 403 q 189 411 197 403 l 121 411 q 119 419 119 414 q 86 419 103 422 q 79 418 81 418 q 72 419 78 418 q 63 421 65 421 q 49 417 56 421 q 43 413 43 413 q 21 422 49 413 l 21 432 q 39 442 39 436 l 47 442 q 63 432 47 432 q 72 434 65 432 q 79 436 78 436 q 86 433 74 436 q 118 431 93 431 l 189 431 q 194 436 190 432 l 197 617 q 194 632 197 629 q 161 654 183 639 q 124 701 124 683 q 146 714 124 715 q 178 713 140 714 l 179 722 q 152 726 165 724 q 139 746 139 729 l 140 831 q 144 863 139 842 q 135 871 142 865 q 143 878 138 874 q 126 879 140 879 l 126 892 q 218 969 178 950 l 218 992 q 163 997 172 994 q 107 1014 131 1001 q 101 1024 106 1018 q 84 1026 96 1024 q 71 1028 72 1028 q 42 1028 57 1025 l 42 1040 l 57 1040 q 60 1039 58 1040 q 64 1038 63 1038 l 74 1038 q 79 1040 78 1038 q 82 1047 81 1043 q 89 1054 83 1050 q 90 1068 89 1058 q 169 1100 117 1093 q 221 1106 188 1103 q 253 1114 232 1104 l 265 1114 q 265 1103 265 1106 q 268 1106 265 1103 q 275 1113 271 1108 q 292 1113 278 1113 q 308 1113 307 1113 q 315 1107 310 1110 q 316 1101 315 1104 q 322 1099 317 1099 q 331 1107 331 1099 l 342 1107 q 343 1099 342 1104 q 344 1101 344 1100 l 363 1101 q 444 1076 419 1103 l 444 1032 m 400 865 l 400 868 l 378 868 l 378 865 l 400 865 z "},"-":{"ha":582,"x_min":18,"x_max":564,"o":"m 564 686 q 531 629 549 663 q 521 625 528 628 q 513 611 519 619 q 501 542 511 586 q 492 536 499 536 q 483 528 490 533 l 479 531 q 474 524 478 528 l 465 524 l 468 525 q 465 544 468 532 q 456 544 465 544 q 451 581 453 563 q 447 583 450 583 q 433 578 447 583 q 431 585 431 585 q 456 624 431 596 q 479 640 463 629 q 485 686 485 676 q 471 739 485 707 q 456 754 467 743 q 433 783 440 769 l 429 783 q 419 779 424 783 q 410 732 417 764 q 396 701 404 722 q 394 685 396 696 q 388 681 393 683 l 388 654 q 401 651 392 651 q 403 628 401 632 q 412 603 406 619 q 418 574 418 588 q 415 549 418 568 q 413 543 415 547 q 411 538 411 539 q 418 518 411 547 q 429 433 429 458 l 429 336 q 438 325 432 335 q 447 326 436 325 q 458 224 454 290 q 451 243 457 231 l 446 242 l 446 53 q 474 21 447 50 q 469 6 472 15 q 396 6 433 3 q 397 94 396 111 q 378 164 390 118 q 371 208 374 186 q 368 232 371 215 q 356 244 363 231 q 347 260 350 257 q 353 224 347 254 q 354 108 358 193 q 358 79 354 96 q 367 57 367 51 q 358 49 367 53 q 365 14 368 38 q 368 13 365 14 l 368 7 q 243 1 278 -1 q 249 13 243 8 q 303 42 267 22 q 307 51 303 42 q 310 72 310 56 q 301 125 310 104 q 264 253 263 217 q 243 294 243 275 q 247 315 243 308 q 251 322 251 321 q 238 355 251 322 q 219 406 225 388 q 210 456 213 432 q 204 540 204 513 l 204 551 l 211 551 q 209 576 213 560 q 206 596 206 592 q 208 628 206 590 l 207 629 l 214 628 q 215 631 215 626 q 212 640 215 632 q 208 649 208 647 l 208 658 q 221 647 214 656 l 221 649 q 219 659 221 651 q 218 671 218 667 q 218 683 218 686 q 207 692 217 688 q 206 783 207 722 q 175 747 190 765 q 143 722 154 722 q 142 708 143 718 q 121 675 142 707 q 86 628 110 660 q 89 621 88 629 q 82 614 86 619 q 81 538 82 589 l 72 538 q 65 558 69 551 l 61 558 q 56 551 58 557 q 53 532 54 544 q 50 528 50 528 q 59 513 50 524 q 69 500 68 501 l 69 490 q 40 501 58 494 q 31 511 36 504 q 18 544 18 529 q 46 619 18 538 q 46 628 43 622 q 54 650 50 631 q 75 728 63 683 q 83 746 79 742 q 93 756 88 750 q 93 767 96 761 q 171 846 151 821 q 168 861 171 849 q 194 892 176 872 q 222 906 213 906 q 228 903 224 906 q 236 901 233 901 q 242 903 238 901 q 249 906 247 906 q 271 918 264 906 q 279 919 274 918 q 274 928 274 929 q 283 932 278 928 q 275 943 281 935 q 271 931 274 942 q 269 954 268 936 q 258 974 269 972 q 257 994 258 981 q 256 1008 256 1008 q 258 1013 256 1010 q 260 1018 260 1017 q 261 1056 260 1050 q 297 1104 268 1085 q 319 1111 308 1111 q 381 1044 368 1111 q 381 1017 379 1035 q 385 1008 385 1006 q 379 975 385 990 q 372 958 372 971 q 367 933 371 940 q 363 944 364 940 q 359 940 361 943 q 356 935 357 936 q 358 931 356 933 q 361 925 361 928 q 357 919 357 921 q 367 918 360 918 l 367 913 q 400 908 382 911 q 421 897 418 906 l 425 897 q 426 901 426 899 q 472 872 450 892 q 492 836 493 851 q 488 832 490 835 l 553 728 q 546 726 550 726 q 544 719 546 721 q 549 718 547 718 q 554 722 554 718 l 561 722 q 556 694 556 699 q 559 690 556 693 q 564 686 563 688 m 497 715 q 489 721 494 717 q 482 726 483 725 q 489 703 483 718 q 497 715 492 707 m 344 325 l 344 343 q 329 383 344 343 q 329 372 329 381 q 328 364 328 365 q 332 336 328 350 q 344 325 338 333 z "},".":{"ha":579,"x_min":22,"x_max":557,"o":"m 121 738 q 118 714 121 729 q 114 688 115 694 q 103 718 103 707 q 121 738 103 719 m 557 744 q 546 735 553 742 q 522 685 538 718 q 528 683 524 683 q 531 678 531 676 q 525 669 531 675 q 519 663 519 664 q 511 640 517 654 q 503 610 499 618 q 494 606 499 606 q 490 607 492 606 q 483 597 483 601 q 486 593 483 597 q 486 574 486 588 q 489 542 488 563 q 492 535 489 540 q 494 528 494 529 q 482 497 494 521 q 474 506 478 497 q 471 488 472 500 l 461 488 q 460 506 463 499 q 461 482 458 497 l 450 482 q 443 517 447 493 q 443 490 442 511 q 439 489 442 490 q 433 490 439 489 q 425 546 428 517 q 418 531 419 538 q 407 535 407 531 q 408 549 407 542 q 436 599 422 599 q 461 672 461 664 q 458 677 461 674 q 454 682 456 681 q 442 753 449 706 q 404 789 421 774 q 396 783 401 788 q 392 724 392 753 q 371 678 371 683 q 376 665 371 678 q 383 644 382 651 q 388 642 385 644 q 390 597 389 633 q 401 594 396 593 q 400 582 401 599 q 400 531 400 565 l 408 436 q 404 390 408 424 q 401 374 404 386 q 399 361 399 363 q 407 335 399 358 q 408 347 408 338 l 414 347 q 423 326 424 329 q 424 322 422 324 q 436 267 425 301 l 436 251 l 432 249 q 422 264 425 254 q 422 274 422 267 q 415 303 421 283 l 414 303 q 419 278 415 294 q 413 271 413 275 q 415 258 413 269 q 418 240 418 246 q 422 238 419 240 q 424 222 424 235 q 403 110 424 192 q 403 67 403 81 q 401 56 401 53 q 404 50 401 58 q 425 24 425 28 q 423 15 425 22 q 421 4 421 8 l 347 4 q 336 21 336 4 q 340 51 336 35 q 338 63 338 60 q 347 117 347 101 q 338 164 347 119 q 329 211 329 208 q 332 226 329 211 q 336 254 335 240 q 328 258 336 254 q 313 342 319 301 q 303 364 308 349 q 289 454 301 397 q 278 372 279 424 q 268 338 274 361 q 253 257 263 310 q 244 253 244 257 q 249 225 244 239 q 251 221 249 222 q 253 217 253 219 q 244 167 253 215 q 235 117 235 119 q 240 85 235 107 q 243 51 244 63 q 246 7 247 32 q 229 3 226 3 l 165 3 q 158 24 158 17 q 167 34 158 25 q 178 47 176 43 q 181 75 181 51 q 169 149 181 108 q 158 224 158 189 q 163 246 158 225 q 168 269 168 267 q 161 276 168 274 q 165 303 165 299 q 158 263 160 285 q 153 249 157 257 q 149 246 151 249 q 144 257 144 254 q 147 268 144 264 q 158 325 150 288 q 160 335 158 329 q 167 347 163 340 q 172 344 168 344 q 174 333 172 338 q 182 357 182 357 q 178 374 182 349 q 171 438 171 413 l 179 529 l 178 592 q 188 594 182 594 q 192 642 188 611 q 200 660 193 649 q 207 674 207 672 q 188 722 207 678 q 183 781 186 742 q 175 788 181 782 q 135 751 168 782 q 125 697 138 735 q 117 674 125 686 l 138 608 l 140 608 q 143 597 143 600 q 172 533 157 586 q 161 528 172 533 q 154 544 158 538 q 146 489 153 526 l 135 489 q 136 493 138 490 q 136 511 136 496 q 136 515 136 514 q 129 481 133 504 l 118 481 q 119 504 121 483 q 118 486 117 500 l 108 486 q 106 504 108 492 q 103 499 104 501 q 97 496 101 496 q 85 526 85 519 q 87 533 85 528 q 89 540 89 539 q 93 586 93 567 q 89 606 93 597 q 85 603 86 603 q 81 606 82 603 q 78 617 79 608 q 65 642 76 621 q 49 672 63 654 l 49 678 q 57 682 50 679 q 33 733 50 700 q 22 738 29 735 l 22 743 q 71 800 69 800 q 75 799 72 800 q 81 797 78 797 q 113 831 79 797 q 108 850 110 856 q 136 883 113 861 q 169 904 160 904 q 174 899 168 904 q 203 906 181 904 q 236 917 226 907 q 246 926 239 921 l 246 932 q 236 932 246 932 q 233 942 235 935 q 231 953 231 950 q 239 958 232 954 q 224 1017 224 1018 q 228 1022 224 1015 q 226 1035 226 1028 q 274 1107 226 1094 q 281 1111 276 1107 q 289 1115 286 1115 q 297 1110 290 1115 q 307 1106 304 1106 q 333 1086 321 1101 q 349 1058 346 1071 q 350 1025 350 1042 q 352 1021 350 1024 q 354 1017 354 1018 q 349 983 354 1003 q 340 963 340 957 q 347 954 340 956 l 347 949 q 342 932 347 947 l 332 933 q 339 925 333 933 q 365 908 347 910 q 400 903 383 906 q 404 899 403 901 q 406 902 406 900 q 407 906 407 904 q 438 889 418 901 q 471 850 471 857 q 464 835 471 854 q 499 800 493 800 q 501 801 500 800 q 506 801 503 801 q 531 778 511 801 q 557 744 556 747 m 543 749 q 510 783 531 761 l 506 783 l 540 744 q 543 749 543 746 m 476 722 q 454 740 467 729 q 464 688 461 713 q 476 722 465 690 m 69 779 l 69 783 q 38 744 64 778 q 69 779 51 757 z "},"/":{"ha":2049,"x_min":25,"x_max":2024,"o":"m 2024 625 q 1982 621 2018 624 q 1975 613 1982 618 q 1981 610 1978 610 l 1981 567 l 2022 567 l 2022 419 q 1978 416 2001 418 q 1951 404 1954 414 l 1776 404 q 1753 395 1769 404 q 1724 386 1738 386 q 1703 393 1710 386 l 1601 221 q 1597 224 1600 222 q 1592 228 1593 226 l 1690 403 q 1679 401 1686 407 q 1638 576 1644 471 q 1617 582 1629 582 q 1609 580 1613 582 q 1601 578 1606 578 q 1565 589 1590 578 q 1535 614 1535 600 q 1544 629 1535 622 q 1513 642 1526 642 q 1503 640 1510 642 q 1493 639 1496 639 q 1463 645 1489 639 q 1433 651 1436 651 q 1413 649 1431 651 q 1392 646 1396 646 q 1372 651 1389 646 q 1351 657 1354 657 l 1268 657 q 1260 661 1265 657 q 1253 665 1256 665 l 1072 668 q 1056 661 1078 668 q 1024 660 1053 660 q 990 661 1004 660 q 985 665 992 665 q 982 663 982 665 q 978 660 982 660 q 972 663 975 660 q 965 665 968 665 q 958 661 961 665 q 950 657 954 657 q 942 658 947 657 q 933 660 936 660 q 919 658 921 660 q 899 646 913 653 q 853 643 869 643 q 850 625 849 638 q 768 613 792 619 q 732 597 757 610 q 703 585 707 585 l 628 585 q 625 576 626 582 q 610 574 621 576 q 596 572 600 572 q 556 574 550 572 q 542 571 551 574 q 597 569 563 568 q 571 550 589 550 q 536 546 544 551 q 553 543 540 543 l 556 521 q 515 522 536 526 q 531 485 521 521 q 571 439 539 457 q 565 418 571 438 l 526 418 q 524 406 525 414 q 513 400 519 404 q 531 394 524 394 q 525 368 531 375 q 533 349 533 346 q 524 324 533 350 q 526 300 526 306 q 490 278 508 276 q 494 275 493 275 l 494 239 q 483 236 486 239 q 547 214 507 235 q 494 192 531 194 q 493 156 496 167 q 575 157 519 157 q 615 147 589 153 q 625 139 618 143 q 626 124 626 136 q 625 108 626 131 q 578 90 604 90 l 492 90 q 471 81 488 81 q 443 79 447 81 l 443 69 l 494 69 l 494 40 l 446 40 q 443 21 442 35 q 410 18 433 17 q 407 24 414 24 l 369 24 q 368 4 367 18 q 354 0 364 0 q 342 7 346 0 q 331 24 333 21 l 272 24 l 272 39 l 238 47 l 240 68 q 250 68 240 57 q 281 71 260 68 q 225 69 256 75 l 225 90 l 246 90 l 249 92 l 249 103 q 238 111 244 111 q 225 111 232 111 l 225 133 q 236 135 228 133 q 249 136 244 136 l 249 156 q 333 156 296 151 q 290 178 332 156 q 290 186 289 182 q 226 213 260 196 q 224 231 226 217 q 222 253 222 246 q 275 272 240 268 q 336 278 306 275 q 261 286 308 278 q 229 318 250 297 q 228 326 228 321 q 251 360 228 336 q 243 364 251 363 q 242 369 243 364 q 240 378 240 374 q 263 403 240 379 q 217 410 247 404 l 214 414 l 214 424 q 251 438 225 428 q 215 433 228 447 l 203 433 q 201 457 201 440 q 194 463 199 458 q 193 468 193 461 q 201 479 193 467 q 203 493 201 479 q 243 513 215 500 q 214 531 232 518 q 225 547 218 535 q 211 550 224 550 q 214 565 211 560 q 150 590 190 571 l 150 601 q 185 622 163 610 q 153 628 168 628 q 140 619 143 628 q 86 639 94 635 q 35 672 56 653 q 32 683 33 676 q 28 683 32 685 q 25 688 25 683 l 25 696 q 32 706 25 693 q 122 760 38 746 q 165 765 143 764 q 178 776 169 769 q 200 782 188 782 q 200 796 200 786 q 214 797 204 796 q 226 799 224 799 q 239 790 229 799 q 260 782 249 782 q 276 790 263 782 q 298 798 290 797 q 325 800 306 799 q 349 821 336 815 q 397 838 381 838 q 422 833 403 838 l 422 1064 l 431 1064 q 433 1040 431 1049 q 436 1100 433 1043 q 447 1117 440 1101 q 453 1065 450 1114 q 465 1054 454 1064 q 464 871 464 983 q 471 858 467 867 q 471 844 472 857 q 475 835 471 835 q 483 836 479 835 q 490 838 486 838 q 502 832 500 838 q 510 824 504 826 q 542 822 515 822 q 563 799 543 810 q 599 776 592 783 q 640 804 619 797 q 643 865 640 817 q 644 926 644 903 l 657 926 q 657 867 653 892 q 658 913 660 878 q 665 911 661 913 q 665 888 668 901 q 674 879 669 881 q 679 810 675 857 q 733 786 696 801 q 797 769 757 783 q 829 739 803 764 q 853 726 842 726 q 877 729 857 726 q 901 732 897 732 l 1088 713 q 1111 717 1090 713 q 1135 721 1132 721 q 1170 717 1139 721 q 1204 713 1201 713 q 1240 718 1239 713 l 1322 718 q 1324 715 1324 717 q 1326 713 1325 714 q 1381 711 1344 713 q 1386 707 1381 707 l 1490 707 q 1503 710 1494 707 q 1514 713 1511 713 q 1525 711 1518 713 q 1535 710 1532 710 q 1576 716 1538 710 q 1636 724 1615 722 q 1639 736 1638 725 q 1657 757 1644 743 q 1678 769 1660 761 q 1697 781 1697 776 q 1714 792 1714 783 q 1704 803 1714 797 q 1686 814 1694 808 q 1672 831 1678 819 q 1706 863 1699 863 q 1711 860 1708 863 q 1718 878 1711 864 q 1724 860 1719 872 q 1726 871 1725 864 q 1736 874 1731 871 q 1746 901 1740 883 q 1760 874 1764 883 q 1774 871 1763 871 q 1769 846 1772 853 q 1751 829 1764 832 q 1749 821 1751 826 q 1786 782 1761 807 q 1803 774 1792 781 l 1878 774 q 1893 761 1881 774 q 1901 774 1894 761 q 1926 758 1908 758 q 1944 760 1933 758 q 1947 769 1946 763 q 1954 769 1951 769 q 1957 756 1956 765 q 1960 742 1958 746 q 1989 744 1968 744 q 1992 706 1993 728 q 2024 706 1999 701 l 2024 625 m 456 1015 l 456 1025 l 451 1025 l 451 1015 l 456 1015 m 436 997 l 436 1025 l 431 1025 l 431 997 l 436 997 z "},":":{"ha":638,"x_min":17,"x_max":622,"o":"m 621 606 q 611 589 622 597 q 599 554 615 574 q 599 547 599 551 q 586 508 596 533 q 549 522 542 522 q 544 521 551 522 q 542 518 543 519 q 544 507 542 500 q 525 475 536 496 q 504 482 518 476 q 511 500 507 492 q 508 507 513 504 q 515 525 513 525 l 519 522 q 519 528 521 528 q 515 540 515 535 q 523 562 515 544 q 535 582 531 579 q 528 585 533 582 q 513 558 522 576 q 490 490 497 519 q 488 469 490 483 q 467 443 479 461 q 457 449 464 443 q 454 444 457 447 q 450 438 451 440 q 440 446 444 439 q 438 435 438 440 q 446 429 438 428 q 440 375 440 382 q 451 364 440 367 l 451 301 q 436 288 447 296 q 436 282 436 288 q 440 256 436 268 q 451 242 444 251 q 458 217 458 233 q 452 192 458 197 q 446 183 446 188 q 453 50 446 88 q 461 34 454 46 q 467 19 468 22 l 467 -4 l 182 -4 l 182 21 q 194 49 181 28 q 194 56 194 50 q 196 63 196 61 l 196 135 q 198 156 196 136 q 200 178 200 176 q 190 193 200 179 q 186 215 186 200 q 193 242 186 231 q 203 251 197 244 q 207 282 207 269 l 207 286 q 200 288 206 288 q 192 297 201 300 l 192 360 q 200 363 193 363 q 200 376 200 357 q 201 433 201 394 q 199 446 201 440 q 197 440 197 443 q 192 436 196 436 q 183 446 188 436 q 175 442 175 442 q 153 467 175 442 q 111 581 143 526 q 108 580 110 581 q 104 578 106 579 q 121 529 124 543 q 119 519 118 522 q 124 517 119 519 q 131 506 128 515 q 128 501 131 504 q 135 479 131 494 q 114 471 131 475 q 107 488 111 481 q 101 492 104 489 q 93 507 99 496 q 96 509 94 508 q 99 511 97 510 q 97 514 97 511 q 96 517 97 517 q 56 503 79 513 q 50 508 53 503 q 42 547 50 504 q 35 554 39 549 q 26 583 28 565 q 17 603 25 585 q 47 615 28 615 q 49 621 49 621 q 28 667 49 618 q 63 682 40 671 q 60 690 60 692 q 74 699 65 693 l 74 764 q 72 792 72 778 q 72 838 72 821 q 76 876 72 860 q 74 900 74 886 q 85 901 82 900 q 97 938 92 919 q 122 949 103 949 q 144 940 139 949 q 156 911 150 925 l 160 911 q 163 914 161 911 q 183 919 169 917 q 190 925 186 922 q 239 933 207 928 q 251 950 243 935 q 275 986 260 965 q 239 1007 257 1006 q 236 1014 236 1015 q 242 1031 236 1008 q 239 1039 240 1033 q 246 1049 242 1043 q 256 1076 250 1056 q 265 1087 263 1076 q 270 1101 268 1097 q 281 1106 272 1104 q 318 1106 286 1106 q 364 1100 357 1110 q 369 1087 365 1099 q 378 1076 372 1075 q 388 1049 381 1067 q 396 1040 390 1046 q 394 1026 392 1035 q 397 1011 397 1011 q 386 1007 393 1010 q 360 988 374 1001 q 390 938 367 968 q 413 931 399 932 q 440 929 428 929 q 475 914 453 924 q 483 929 481 917 q 496 949 486 942 q 514 951 499 951 q 539 940 535 951 q 549 906 543 922 q 561 904 551 903 q 560 886 561 893 q 558 885 560 886 q 561 860 561 876 l 561 701 q 575 696 568 699 q 585 681 572 686 q 608 672 597 676 q 599 644 606 663 q 593 640 596 643 q 589 625 590 636 q 604 619 596 619 q 608 615 606 618 q 621 613 621 613 l 621 606 m 585 599 q 585 608 583 600 q 578 600 578 601 q 585 599 578 599 m 493 681 q 488 729 493 683 q 471 746 474 729 q 465 792 465 775 l 458 792 q 449 761 461 781 q 433 740 442 753 q 413 706 425 728 q 400 683 400 683 q 413 663 400 667 q 413 638 414 649 q 424 643 418 643 q 444 554 439 643 q 456 558 453 558 q 460 572 454 563 q 465 583 465 582 q 465 640 465 639 q 489 651 474 644 q 491 668 489 657 q 493 681 493 679 m 236 682 q 203 740 236 688 q 182 764 194 749 q 171 789 178 774 q 167 751 169 771 q 156 726 164 732 q 147 726 149 725 q 145 699 147 718 q 143 679 143 679 q 145 665 143 676 q 147 650 147 654 q 172 632 157 646 q 175 601 176 621 q 175 574 172 581 q 179 565 176 569 q 184 558 182 560 q 193 551 186 556 q 199 603 194 569 q 213 642 206 642 q 221 639 211 642 q 222 658 221 656 q 228 663 224 661 q 232 673 228 665 q 236 682 236 681 m 83 633 l 81 642 l 78 642 l 79 633 l 83 633 m 349 289 q 340 297 342 289 q 333 300 338 297 q 333 306 333 301 q 332 313 332 311 q 332 363 332 368 l 339 363 q 341 368 339 365 q 343 374 343 371 q 336 394 343 375 q 328 422 329 414 q 319 521 324 454 q 317 463 319 500 q 307 400 315 453 q 302 384 306 393 q 299 374 299 375 q 310 361 299 367 l 310 300 q 303 296 308 299 q 301 291 303 293 q 296 289 299 289 l 310 118 l 310 72 q 313 47 310 54 q 324 26 317 40 q 338 68 338 57 l 338 113 l 349 289 z "},";":{"ha":708,"x_min":19,"x_max":689,"o":"m 689 697 q 667 683 682 692 q 647 681 661 683 q 643 647 644 676 q 636 628 642 633 l 613 628 q 605 645 604 632 q 603 663 606 658 q 601 646 600 657 l 589 644 l 589 653 l 556 653 q 553 679 554 650 q 547 685 550 681 q 542 706 544 690 q 539 709 540 707 q 534 719 538 711 q 529 728 531 726 q 526 733 528 731 q 522 742 524 736 q 519 750 519 747 q 522 758 519 751 q 524 769 524 765 l 535 769 q 539 774 535 771 q 522 813 524 786 q 521 829 522 817 q 514 831 519 829 q 490 785 490 783 q 503 772 490 781 l 503 733 q 478 718 493 724 q 463 696 478 694 q 469 693 464 693 q 480 676 469 689 q 490 642 490 663 q 490 610 490 626 q 497 601 493 607 q 500 585 500 594 l 489 411 q 497 410 492 411 q 506 408 503 408 q 503 339 503 400 q 499 338 500 339 q 492 315 500 326 l 503 149 q 497 142 501 147 q 517 131 503 138 l 517 104 q 500 96 511 101 q 515 83 507 92 q 515 60 517 75 q 513 57 515 60 q 517 25 513 46 q 522 15 522 14 q 521 6 522 13 q 519 -6 519 -1 l 193 -6 q 193 19 193 3 q 197 22 194 19 q 200 56 197 33 q 197 71 197 60 q 217 93 197 86 q 197 103 210 97 l 197 131 q 217 139 200 131 l 217 313 q 211 317 214 314 q 210 335 211 326 q 208 340 210 336 q 204 360 206 343 q 203 378 203 376 l 203 406 q 219 410 219 411 l 206 585 q 206 600 206 599 q 214 608 208 601 q 213 646 213 626 q 232 681 214 669 q 238 694 231 686 q 219 740 225 707 q 210 789 211 785 q 188 831 201 800 q 186 826 186 829 q 169 833 176 833 q 164 833 165 833 q 151 808 151 814 q 160 783 151 810 q 174 743 167 764 q 183 699 183 717 q 150 668 183 668 q 140 670 149 668 q 129 672 131 672 q 120 669 126 672 q 108 665 114 665 l 108 650 q 94 644 97 651 q 94 627 93 639 q 94 613 96 615 l 65 613 l 65 667 q 56 676 65 676 q 42 683 46 676 l 42 758 q 46 767 42 760 q 46 776 46 767 q 49 796 46 788 q 55 808 51 800 q 58 828 58 817 q 53 833 58 832 q 50 849 53 838 q 49 844 49 847 l 39 844 q 19 853 31 844 l 19 917 q 26 922 24 921 q 35 924 28 922 q 46 926 43 926 q 50 921 44 926 q 50 925 50 922 q 99 933 65 925 q 115 954 103 942 q 132 960 121 956 q 183 974 157 969 q 231 996 199 989 q 235 1032 231 1013 q 275 1040 250 1036 q 281 1044 278 1043 q 350 1103 297 1103 q 378 1099 365 1103 q 424 1042 411 1086 q 469 1031 442 1039 q 471 999 469 1021 q 514 981 485 993 q 521 974 515 978 q 571 960 538 972 q 582 958 575 960 q 603 936 588 949 q 649 929 603 935 q 650 922 649 924 q 658 928 653 928 q 682 915 678 928 q 682 888 682 914 q 682 861 682 863 q 661 849 678 849 q 655 850 658 849 q 649 851 651 851 q 674 822 658 842 q 675 814 675 821 q 674 804 675 807 q 666 793 674 801 q 658 782 658 785 q 663 771 658 776 q 671 771 667 771 q 678 746 679 756 q 674 742 676 744 q 674 732 672 738 q 689 724 678 728 l 689 697 m 158 694 q 153 732 158 697 l 153 690 q 158 694 156 692 m 386 140 q 379 163 381 150 q 381 183 379 169 q 382 199 382 196 l 382 314 q 374 322 374 314 q 374 336 374 335 q 369 343 369 338 q 368 408 369 410 q 376 410 371 408 q 383 411 382 411 l 363 540 l 342 540 q 326 408 326 404 q 340 407 336 410 l 340 340 q 334 325 333 336 q 326 314 335 314 l 326 140 q 342 122 342 133 q 333 106 342 111 q 342 94 342 103 q 340 81 342 88 q 338 74 338 75 q 351 22 351 50 l 361 22 q 376 78 364 40 q 371 93 369 83 q 378 107 371 103 q 371 122 371 114 q 386 140 371 133 z "},"<":{"ha":415,"x_min":19,"x_max":397,"o":"m 396 504 q 389 500 392 500 q 378 515 388 500 q 369 482 378 501 l 363 482 q 354 514 360 493 q 351 501 353 511 q 342 490 349 490 q 333 497 333 490 q 333 543 333 493 q 315 531 318 531 q 308 540 308 531 q 317 560 308 549 q 347 589 326 572 q 349 593 349 589 l 347 682 q 338 683 344 683 q 340 729 338 710 q 336 733 339 731 q 336 739 336 735 q 340 747 336 743 q 340 768 340 751 q 349 769 347 767 l 349 800 q 339 792 344 799 q 333 792 338 792 q 333 746 332 790 l 283 746 q 281 721 283 738 q 256 714 279 717 q 249 708 256 713 l 247 703 q 254 700 250 701 l 254 681 q 247 676 253 679 l 247 672 q 254 671 249 671 q 250 649 257 661 q 265 647 257 646 q 282 650 275 650 q 307 636 299 650 q 315 632 310 635 q 322 610 322 624 q 315 589 322 597 q 308 585 313 588 q 304 571 304 582 l 307 406 q 321 404 313 404 q 322 360 322 403 q 319 354 319 353 q 328 317 319 361 q 336 264 332 300 q 351 97 351 104 q 351 83 351 90 q 332 63 332 64 q 335 53 332 61 q 338 42 338 44 q 331 36 338 38 l 331 24 q 338 24 332 24 q 338 6 338 6 l 250 6 l 249 19 q 256 22 250 21 q 256 26 256 22 q 254 35 256 26 q 249 40 249 39 q 254 65 249 29 q 236 81 238 79 q 235 97 235 83 q 260 354 235 222 q 258 357 258 353 l 258 403 q 271 404 264 404 l 271 569 q 267 574 269 571 l 225 574 q 215 582 221 582 q 197 581 203 582 q 186 572 190 579 q 144 572 144 572 l 144 404 q 158 403 149 403 q 161 357 161 401 q 160 346 161 342 q 189 113 185 225 q 190 98 189 110 q 192 85 192 86 q 169 64 192 82 q 173 51 169 60 q 176 39 176 42 q 171 33 176 42 q 171 28 171 33 q 176 19 169 21 l 176 4 l 88 4 l 88 19 l 93 21 l 93 35 q 88 36 90 36 l 88 42 q 90 51 88 43 q 93 64 93 60 q 72 81 86 69 q 82 236 74 143 q 99 350 85 272 q 96 354 97 350 l 96 401 q 110 403 101 403 l 110 556 q 106 585 108 569 q 90 608 90 590 q 94 625 90 621 q 106 635 99 629 q 114 647 107 640 q 161 649 118 649 q 158 649 160 649 l 158 671 q 165 672 161 669 l 165 676 q 156 681 163 676 l 156 699 q 165 701 160 699 l 165 707 q 158 708 165 707 q 156 714 157 710 q 138 716 147 714 q 128 728 129 718 q 128 743 128 736 q 78 743 126 744 l 78 788 q 69 790 78 789 q 63 797 69 794 q 61 793 61 794 q 61 782 61 792 q 63 765 63 771 q 69 765 63 765 q 71 751 69 764 q 75 744 71 744 l 75 682 q 67 679 72 679 l 64 597 q 70 585 64 588 q 92 563 76 583 q 107 538 107 543 q 100 529 107 529 q 90 534 96 529 q 81 542 85 539 q 82 518 81 536 q 82 493 82 503 q 74 489 78 489 q 61 510 71 489 q 58 493 60 501 q 50 479 56 479 q 44 485 46 479 q 38 513 42 492 q 29 497 38 506 q 19 519 19 497 q 24 579 19 529 q 38 594 38 588 q 35 626 38 593 q 33 678 33 660 q 24 683 31 679 q 22 699 22 704 l 22 743 q 28 753 28 744 q 26 765 26 765 l 40 765 q 40 789 40 764 q 36 824 40 792 q 30 839 33 829 q 26 871 26 849 q 47 933 26 908 q 50 926 47 931 q 50 932 50 928 q 71 949 60 938 q 76 949 74 949 q 85 944 83 949 l 135 944 q 153 981 140 957 q 147 983 151 983 l 147 989 q 160 1049 147 986 q 158 1065 156 1056 q 204 1097 167 1097 q 250 1054 251 1097 q 247 1051 250 1053 q 261 985 256 1024 q 258 982 260 985 q 275 946 264 971 l 326 946 q 328 950 326 947 q 333 950 329 950 q 339 950 338 950 q 365 932 340 949 q 385 875 385 921 q 381 840 385 854 q 372 825 376 835 l 372 769 q 385 768 375 768 q 385 749 383 767 q 388 745 386 747 q 389 739 389 743 q 385 732 389 735 q 389 683 386 718 l 378 683 l 378 589 q 385 585 381 588 q 392 558 389 582 q 396 504 397 522 z "},"=":{"ha":783,"x_min":21,"x_max":763,"o":"m 763 672 q 760 653 763 672 q 753 644 757 650 q 746 629 750 638 q 725 617 740 626 q 732 601 725 621 q 725 597 731 600 q 717 589 719 593 q 722 576 722 578 q 711 558 722 571 q 710 550 710 556 q 653 528 678 528 q 633 532 646 528 q 631 523 633 529 q 621 514 629 517 q 617 513 621 513 q 607 536 607 513 q 597 540 600 540 q 554 525 589 540 q 564 518 558 524 q 565 428 565 488 q 569 421 567 425 q 568 388 568 411 q 588 369 581 385 q 594 340 596 353 q 590 335 593 339 q 590 306 590 307 q 617 175 594 275 q 621 176 618 176 q 619 156 619 169 q 622 138 636 144 q 629 133 625 133 q 633 136 632 133 q 633 138 633 138 q 640 124 640 132 q 650 99 644 124 q 642 92 643 99 q 640 82 642 85 q 651 79 644 79 q 664 53 664 56 q 658 46 664 53 q 658 32 658 29 q 640 19 651 28 q 635 0 640 19 l 421 0 q 419 13 419 4 q 427 40 419 13 q 432 75 435 68 q 458 100 440 83 q 453 106 458 101 q 449 118 449 110 q 461 144 449 122 q 461 226 461 146 q 457 282 458 247 q 443 290 453 285 q 424 335 439 322 q 422 347 422 338 q 424 358 422 358 q 435 376 435 374 q 428 383 435 382 q 424 410 426 388 q 426 413 425 411 q 419 414 425 414 q 411 461 411 442 q 400 497 408 464 q 375 521 394 521 q 356 485 368 506 q 303 392 335 453 q 313 382 303 392 q 317 366 314 376 q 319 354 319 356 q 314 319 319 349 q 308 311 311 317 q 310 286 311 303 q 304 282 307 285 q 296 179 296 171 q 300 167 296 176 q 304 154 304 158 q 299 144 304 147 q 313 142 306 142 l 313 110 q 304 97 313 104 q 311 92 304 93 q 322 64 314 83 q 325 47 321 54 q 315 39 315 46 q 313 26 314 32 q 296 8 304 11 q 258 1 276 3 l 60 1 l 60 21 q 61 43 71 29 q 92 82 69 58 q 149 110 110 92 q 150 124 146 117 q 156 138 156 136 q 161 193 160 156 q 163 246 161 226 q 163 261 163 261 q 153 279 163 264 q 144 297 144 294 q 151 309 144 300 q 158 321 158 318 q 151 335 158 322 q 144 351 144 349 q 158 378 144 356 q 163 390 161 385 q 176 399 168 401 q 174 411 174 393 q 183 435 174 401 q 200 503 189 461 q 219 551 204 518 q 232 583 232 581 q 228 629 232 588 q 179 568 208 614 q 183 549 183 557 q 129 501 183 501 q 97 511 111 501 q 85 524 93 517 q 74 526 82 526 q 57 514 68 526 q 42 501 46 501 q 21 522 21 501 q 31 544 21 525 q 40 567 40 564 q 36 576 40 568 q 32 586 32 583 q 56 617 32 603 q 61 633 56 622 q 85 661 67 643 q 119 681 106 675 q 133 704 122 688 q 131 722 129 717 q 134 734 131 725 q 138 746 138 743 q 131 759 138 749 q 124 772 124 769 q 126 776 124 771 q 144 842 125 807 q 132 851 139 844 q 122 889 122 879 q 136 928 122 918 q 171 940 149 931 q 211 967 185 950 q 210 997 210 967 q 233 1014 224 1004 q 235 1024 235 1017 q 239 1026 236 1024 q 265 1088 240 1061 q 321 1115 290 1115 q 417 1063 369 1115 q 438 1051 422 1057 q 447 1043 440 1049 q 478 1036 463 1040 q 504 1007 497 1028 q 558 992 524 1001 q 584 980 565 990 q 606 969 603 969 q 608 971 608 969 q 610 971 608 971 q 639 950 619 971 q 642 946 640 949 q 676 933 643 943 q 692 931 682 933 q 721 924 703 929 q 724 903 724 918 q 699 869 724 875 q 704 858 704 857 q 699 851 704 857 q 694 842 694 844 q 708 794 694 829 q 719 781 714 789 q 728 740 728 760 q 714 697 728 719 q 731 690 719 694 q 739 684 732 688 q 763 672 746 681 m 715 672 l 715 675 l 703 678 l 703 675 l 715 672 m 538 760 q 529 781 529 774 q 524 772 528 778 q 519 764 519 767 q 531 754 519 764 l 538 760 m 508 726 l 501 726 q 497 708 497 714 q 508 726 501 714 m 581 574 q 576 574 581 574 q 569 576 574 574 q 558 565 568 571 q 553 575 556 572 l 540 575 q 540 550 543 563 l 550 550 l 581 574 m 167 814 l 164 814 l 160 793 l 163 793 l 167 814 m 275 676 q 257 706 269 686 q 249 681 257 699 l 249 663 l 256 663 q 275 676 253 672 m 182 594 q 167 586 176 592 l 171 583 q 182 594 175 588 z "},">":{"ha":1122,"x_min":36,"x_max":1086,"o":"m 1086 35 q 1064 0 1079 22 l 876 0 q 850 8 857 0 q 833 36 842 22 l 894 147 q 885 153 894 149 l 885 206 q 894 210 888 210 q 899 232 896 221 q 914 258 900 249 l 914 371 l 958 371 q 958 410 956 392 q 928 413 947 411 q 911 422 917 414 l 911 433 q 929 442 913 433 q 911 457 911 451 q 924 474 911 461 q 911 496 914 478 q 893 519 901 503 q 883 508 888 518 q 735 357 831 410 q 563 313 653 313 q 233 522 349 313 q 211 496 226 511 q 193 474 217 476 q 206 470 199 472 q 213 461 213 468 q 200 444 213 453 q 211 428 211 436 q 194 414 211 415 q 167 413 168 413 q 168 376 169 397 q 206 374 181 374 q 211 258 207 335 q 226 231 225 251 q 240 208 228 211 l 240 156 q 228 151 235 156 l 289 38 q 267 3 282 25 l 56 3 q 36 38 43 19 l 97 147 q 86 161 93 151 q 85 183 85 163 q 86 206 85 189 q 94 214 89 208 q 99 240 94 222 q 114 256 104 244 q 119 276 115 263 q 86 299 106 279 q 78 357 86 319 q 54 360 69 361 q 50 415 50 381 q 51 467 50 464 q 72 492 51 471 l 72 674 q 99 779 72 725 q 130 803 103 790 q 168 817 157 817 l 192 817 l 192 660 l 200 660 l 200 693 l 211 696 l 211 706 q 201 707 208 707 l 201 722 q 224 811 200 747 q 339 967 258 906 q 435 1019 358 981 q 451 1040 440 1026 q 446 1042 450 1042 q 434 1032 443 1042 q 419 1019 425 1022 q 369 1018 403 1019 q 314 989 356 989 q 296 989 308 989 q 279 990 285 990 q 257 988 265 990 q 247 935 253 946 q 208 913 238 913 q 163 946 171 913 q 161 996 161 950 q 163 1047 161 1035 q 174 1063 163 1053 q 192 1074 185 1074 q 211 1076 199 1074 q 224 1089 215 1078 q 240 1090 228 1090 q 260 1078 264 1090 l 338 1078 q 347 1074 342 1078 q 386 1072 361 1074 q 424 1071 411 1071 l 532 1071 q 547 1078 535 1071 q 563 1085 560 1085 q 581 1078 572 1085 q 599 1071 590 1071 q 604 1072 601 1071 q 610 1074 607 1074 q 623 1065 614 1074 q 636 1054 632 1056 q 665 1044 646 1051 q 688 1019 671 1036 q 733 999 703 1013 q 821 935 769 979 q 861 882 839 919 q 864 865 858 876 q 879 836 875 847 q 897 788 883 825 q 911 778 903 783 q 924 708 924 726 q 919 701 924 707 q 914 690 914 694 q 915 685 914 686 q 921 686 919 686 q 926 660 922 678 l 933 660 l 933 814 l 957 814 q 1001 795 971 815 q 1036 763 1031 775 q 1054 700 1054 722 l 1054 489 q 1071 467 1054 485 l 1071 360 q 1046 357 1061 356 q 1044 328 1043 350 q 1035 296 1044 307 q 1013 282 1026 285 q 1008 268 1008 279 q 1008 258 1008 260 q 1025 211 1028 251 q 1033 210 1026 210 l 1038 207 l 1038 153 q 1028 149 1033 153 l 1086 35 z "},"?":{"ha":851,"x_min":19,"x_max":832,"o":"m 832 394 q 831 375 832 381 q 818 358 829 365 q 807 353 813 354 q 761 353 801 353 q 751 349 751 349 q 748 351 749 349 q 744 353 747 353 l 692 353 q 677 363 685 353 q 669 378 669 374 l 669 490 q 671 515 669 521 q 665 543 665 538 q 672 576 665 546 q 678 608 678 606 q 657 661 678 611 q 647 669 653 668 q 617 674 636 674 q 525 617 589 674 q 458 563 501 599 q 458 526 458 518 q 451 518 458 522 q 449 507 451 515 q 447 496 447 499 q 457 478 447 497 q 465 443 467 458 q 460 440 463 442 q 465 435 460 436 q 465 421 465 429 l 468 311 q 486 308 475 308 q 490 250 485 290 l 506 250 l 506 328 l 653 328 q 651 301 653 328 q 661 283 651 286 l 661 143 q 654 133 654 140 q 656 118 656 118 q 646 115 653 115 l 646 0 l 519 0 l 519 38 q 504 40 513 42 l 504 64 q 493 65 501 65 q 490 94 493 86 q 489 79 488 90 l 342 79 q 338 94 342 83 q 338 68 333 83 q 328 61 336 67 q 326 40 326 58 q 311 38 322 38 q 311 -1 308 19 l 186 -1 l 186 110 q 174 111 182 113 q 174 126 174 119 q 167 138 174 136 l 167 282 l 172 282 q 172 324 174 300 l 319 324 l 319 250 l 338 250 l 338 307 q 356 308 343 310 l 356 435 q 363 436 361 435 q 357 442 363 442 l 357 451 q 365 473 357 453 q 374 496 374 493 q 372 505 374 497 q 369 515 369 513 q 363 533 363 519 q 363 563 363 549 q 318 594 347 572 q 206 671 236 671 q 191 669 204 671 q 172 668 178 668 q 163 657 167 664 q 146 613 146 625 q 149 603 146 611 q 151 592 151 594 q 154 533 154 572 q 128 417 154 468 q 128 403 125 413 q 119 374 119 394 q 121 353 119 367 q 122 332 122 339 q 88 290 122 290 q 69 298 82 290 q 56 314 56 306 l 56 394 q 47 399 53 394 q 46 421 49 406 q 26 465 39 436 q 19 547 19 494 q 53 663 19 618 q 71 714 71 686 q 56 731 71 710 q 26 796 38 758 q 26 821 26 797 q 33 868 26 842 q 41 883 33 872 q 49 897 49 894 q 39 910 49 899 q 179 974 96 974 q 229 964 196 974 q 249 957 257 957 q 269 969 249 957 q 269 997 269 969 q 288 1014 271 1014 q 307 994 303 1014 q 326 1019 317 1011 l 326 1097 q 360 1115 326 1115 q 390 1097 390 1115 l 390 1019 q 410 999 406 1008 q 432 1019 415 1006 l 432 1099 q 464 1115 432 1115 q 494 1097 494 1115 l 494 1022 q 517 994 508 1013 q 521 1011 518 1000 q 535 1014 525 1014 q 553 997 553 1014 q 553 969 551 969 q 574 960 582 960 q 586 964 569 960 q 649 976 622 976 q 783 917 729 976 q 772 903 783 914 q 799 829 799 871 q 775 751 799 788 q 751 721 751 715 q 761 688 751 710 q 789 624 771 667 q 801 574 792 606 q 800 515 810 542 q 800 493 797 506 q 808 474 804 488 q 822 437 813 460 q 832 394 832 414 z "},"@":{"ha":664,"x_min":17,"x_max":647,"o":"m 647 704 q 624 647 647 707 q 607 592 614 621 q 604 587 607 590 q 601 581 601 583 q 606 572 601 578 q 610 565 610 567 q 596 553 610 561 q 597 546 599 550 q 578 511 593 538 q 571 508 576 510 q 551 489 564 501 q 539 488 547 489 q 533 465 536 481 q 538 461 535 463 q 531 433 533 451 q 521 433 531 433 q 518 411 517 422 q 521 408 518 410 q 518 378 524 392 q 494 364 517 372 q 513 353 501 361 q 526 333 517 346 q 522 310 529 315 q 531 286 531 286 q 514 254 531 294 q 515 246 514 243 q 508 240 513 243 q 513 222 513 238 q 510 203 513 213 q 498 156 506 188 q 490 115 490 125 q 501 89 490 106 q 496 81 496 82 q 503 56 496 78 q 510 32 510 35 q 494 7 510 19 q 465 -6 478 -6 q 428 36 428 -6 q 432 56 428 51 q 446 72 442 65 l 444 81 q 424 63 435 65 q 386 57 403 57 q 300 75 300 57 q 324 94 300 82 q 350 106 343 106 q 374 108 357 107 q 399 138 383 110 q 406 138 401 138 q 399 168 400 151 q 400 199 399 179 q 401 225 401 219 q 388 240 388 236 q 393 247 388 240 q 388 275 393 264 q 369 293 381 281 q 372 298 369 294 q 374 303 374 301 q 370 312 374 306 q 367 321 367 318 q 367 344 364 338 q 371 356 371 353 q 371 376 371 374 q 360 422 374 390 q 340 471 350 446 q 315 542 329 496 q 308 581 314 554 q 299 592 308 581 q 289 611 289 604 q 299 624 289 618 q 315 629 310 631 q 319 644 315 635 q 317 660 317 654 q 333 671 317 661 q 331 714 333 686 q 328 717 331 714 q 325 724 325 721 q 333 733 325 719 q 328 744 329 738 q 319 747 326 747 q 315 747 318 747 q 310 746 313 746 l 306 750 q 313 761 308 757 q 306 763 311 764 q 304 772 307 768 q 292 736 294 753 q 293 726 294 731 q 275 682 275 681 q 266 676 271 681 q 253 663 261 672 q 218 643 238 643 q 196 650 206 643 q 174 658 186 657 q 171 672 174 658 q 163 683 168 675 q 164 714 164 678 l 164 761 q 165 788 164 790 q 121 801 160 801 q 113 824 119 810 q 82 853 94 847 q 53 854 68 854 q 17 872 26 856 l 117 878 q 97 903 103 886 q 92 929 94 915 l 178 931 q 185 924 181 931 q 204 908 204 925 q 197 893 204 903 q 182 883 189 883 q 175 889 178 883 q 168 884 172 888 q 161 878 164 881 q 243 878 176 875 q 244 874 244 878 q 188 856 244 856 q 186 853 186 857 q 192 836 186 850 q 213 800 217 826 q 218 761 211 793 q 224 751 219 758 q 246 813 229 774 q 242 825 244 818 q 249 865 240 844 q 275 890 258 885 q 301 890 276 890 q 321 882 308 890 q 333 897 325 888 q 365 913 344 901 q 353 938 353 944 q 356 948 353 939 q 360 960 360 957 l 353 1054 q 394 1101 353 1101 q 414 1094 408 1101 q 426 1058 425 1083 q 428 1022 428 1040 q 433 967 433 988 q 447 961 443 964 q 454 939 454 944 q 453 933 454 938 q 450 928 451 929 q 443 925 449 928 q 458 919 447 925 q 486 897 468 913 q 506 910 492 903 q 532 917 521 917 q 559 904 544 917 q 575 881 574 892 q 576 854 576 876 q 593 835 593 840 q 590 829 593 831 q 606 810 601 824 q 615 783 611 796 q 615 779 615 782 q 633 757 625 768 q 632 750 632 754 q 647 704 647 714 m 576 685 q 569 694 569 688 q 569 700 569 697 q 571 706 571 704 q 565 718 565 714 q 572 735 565 726 l 519 803 q 519 782 519 786 q 513 769 514 765 q 515 753 522 765 q 513 751 514 751 q 494 756 508 751 q 492 749 494 754 q 508 744 504 749 q 510 719 510 713 q 508 693 510 725 q 496 685 504 690 q 494 678 494 681 l 494 671 q 505 668 499 674 q 508 657 511 663 q 519 651 513 656 q 519 642 519 649 q 518 633 518 636 q 532 624 526 624 q 535 626 535 624 q 539 628 536 628 q 547 621 543 628 q 551 611 551 614 q 557 611 556 611 q 561 619 561 614 q 561 639 557 626 q 569 656 564 651 q 576 685 571 658 m 190 904 q 190 911 189 906 q 179 901 186 908 q 190 904 183 904 m 167 842 q 164 854 167 854 q 160 854 163 854 q 156 856 157 854 q 160 842 157 849 l 167 842 m 229 740 l 228 751 l 224 751 l 226 740 l 229 740 m 515 285 q 514 294 515 283 q 506 288 511 292 q 501 282 501 283 q 507 267 503 282 q 515 285 515 279 z "},"A":{"ha":529,"x_min":26,"x_max":503,"o":"m 503 401 q 492 374 503 393 q 472 353 481 354 q 467 343 472 349 q 444 335 449 335 q 432 351 433 335 q 433 375 432 364 q 432 385 433 379 q 415 361 425 379 q 403 364 414 363 q 399 369 399 367 q 400 407 397 383 q 397 413 397 413 q 405 425 397 414 q 415 442 413 436 q 422 476 417 454 q 439 488 428 479 q 447 554 447 536 q 444 564 447 556 q 440 574 442 572 q 433 581 439 576 q 432 586 433 582 q 419 607 419 604 q 421 612 419 611 q 424 615 422 613 q 432 651 432 654 q 421 685 432 664 q 421 689 421 686 q 408 707 417 694 q 388 710 407 710 q 383 705 386 710 q 376 700 381 700 q 369 700 374 700 q 364 699 365 699 q 363 708 364 694 q 351 688 358 710 q 369 678 360 683 q 378 667 379 674 q 403 663 399 667 q 406 621 403 649 q 413 613 407 614 q 399 597 411 604 q 383 582 388 589 l 383 579 q 397 583 389 583 q 417 581 410 583 q 429 544 429 565 q 403 494 429 493 q 401 490 403 494 q 388 426 404 474 q 386 414 390 419 q 385 396 388 407 q 381 375 381 378 q 386 355 381 372 q 392 335 392 338 q 378 296 392 329 q 376 272 376 297 l 376 219 q 374 206 376 218 q 371 189 372 194 q 368 147 368 168 q 372 135 368 143 q 374 122 376 128 q 385 100 385 115 q 378 78 385 88 q 376 76 376 81 q 392 50 376 79 q 396 31 396 42 q 353 -10 396 -10 q 308 4 331 -10 q 296 35 296 13 q 305 63 296 42 q 314 85 314 85 q 324 124 303 100 q 327 140 322 129 q 332 153 332 150 l 340 249 q 339 265 340 260 q 333 271 338 267 q 336 293 333 268 q 324 329 324 303 q 339 365 324 346 q 340 388 339 372 q 346 397 343 392 q 360 496 350 431 q 363 499 360 496 q 335 513 356 506 q 333 503 335 513 q 319 496 326 496 q 297 498 318 496 q 257 501 276 500 l 256 500 q 257 488 256 496 q 258 478 258 479 q 244 436 258 482 q 236 429 240 433 q 222 389 232 415 l 222 385 q 246 349 246 379 q 242 335 246 346 q 239 321 239 324 q 242 314 239 319 q 246 306 244 308 q 247 279 247 294 q 246 271 247 267 q 233 256 233 253 q 239 237 233 247 q 246 225 244 226 q 249 192 247 219 q 256 181 256 189 q 256 169 256 174 q 263 156 257 164 q 268 146 268 149 q 264 140 268 147 q 264 97 261 107 q 265 81 265 82 q 254 74 261 74 q 149 67 165 67 q 106 81 106 67 q 133 100 106 89 q 165 111 150 106 q 199 149 182 124 q 207 183 207 161 q 206 210 207 188 q 201 217 203 213 q 196 232 199 222 q 174 219 185 219 q 167 224 172 219 q 167 250 165 231 q 160 257 167 244 q 157 276 157 261 q 160 307 157 299 q 164 317 164 315 q 157 333 164 322 q 143 310 153 325 l 138 310 q 135 315 138 311 q 133 321 133 319 q 140 339 133 322 q 157 353 147 343 q 161 364 158 357 q 172 385 164 371 q 176 408 174 393 q 185 431 179 417 q 183 444 183 435 q 190 478 183 456 q 197 503 197 501 q 188 518 197 494 q 185 539 185 528 q 192 557 185 540 q 199 576 199 574 q 194 582 199 578 q 188 589 189 586 q 181 631 181 607 q 198 651 181 639 q 215 663 215 663 q 229 685 208 675 q 229 696 229 688 q 228 710 228 704 q 210 711 225 710 q 204 724 210 711 q 201 726 203 725 q 183 736 192 728 q 175 729 175 729 q 172 729 172 729 q 171 731 172 731 q 143 671 169 731 q 138 665 140 669 q 115 625 129 653 q 114 606 115 619 q 113 601 114 604 q 108 590 111 599 q 104 579 104 582 q 103 549 104 568 q 99 542 101 544 q 99 525 99 539 q 99 514 99 524 q 100 499 100 503 q 119 490 107 496 l 119 471 q 113 467 117 471 q 119 460 114 465 q 128 432 119 451 q 124 425 129 429 l 129 422 q 124 403 129 421 q 117 374 118 385 q 106 368 110 368 q 94 381 100 368 q 89 394 92 388 q 88 386 86 392 q 89 374 90 378 q 86 350 90 365 q 67 349 79 350 q 68 353 67 351 q 60 354 68 353 q 49 367 50 367 q 47 365 47 367 q 44 365 47 365 q 33 406 33 365 q 26 413 32 408 q 53 461 35 429 q 49 466 53 463 q 43 481 46 469 q 60 492 49 485 q 63 517 60 500 q 67 535 67 533 q 65 556 67 535 q 63 588 63 578 q 58 592 61 589 q 60 606 58 593 q 54 617 54 614 q 60 621 54 614 q 64 638 61 626 l 68 725 q 57 728 67 726 q 53 740 56 729 q 36 743 44 735 l 36 800 q 40 814 38 803 q 49 825 43 817 q 67 854 56 833 q 71 875 67 861 q 136 904 96 885 q 138 915 138 907 q 133 933 138 931 q 114 939 124 936 q 107 974 107 979 l 107 981 q 119 992 117 988 q 128 1028 122 1004 q 165 1073 135 1053 q 219 1093 196 1093 q 227 1094 222 1093 q 235 1096 232 1096 q 267 1086 244 1096 q 296 1076 289 1076 q 310 1080 297 1076 q 324 1083 322 1083 q 345 1070 336 1083 q 354 1047 354 1057 q 347 1026 354 1042 q 332 1017 344 1025 q 314 986 314 1003 q 317 967 314 974 q 324 957 324 954 q 311 939 324 951 q 349 926 342 926 q 353 928 351 926 q 356 929 354 929 q 374 924 358 929 q 390 918 389 918 q 394 920 393 918 q 399 922 396 922 q 421 914 399 922 q 426 903 422 910 q 443 892 432 892 q 446 893 444 892 q 449 893 446 893 q 465 879 460 893 q 478 847 465 867 q 492 817 492 826 q 485 763 492 804 q 464 753 485 763 q 468 715 464 747 q 469 661 468 697 q 479 650 472 657 q 483 635 479 644 q 492 632 486 635 q 497 611 497 617 q 494 592 497 599 q 486 576 492 586 q 482 550 485 574 q 476 483 479 526 q 489 472 483 481 q 488 460 488 467 q 497 438 494 447 q 503 401 503 417 m 422 772 l 414 772 q 413 764 414 769 q 413 757 413 760 q 417 728 413 743 q 421 724 421 725 q 422 772 422 729 m 154 733 q 143 742 149 742 q 128 742 142 742 q 107 740 114 740 q 106 732 107 738 q 106 724 106 725 q 110 709 106 722 q 114 693 114 696 q 110 677 114 693 q 108 656 106 661 l 111 656 q 154 733 118 671 m 193 257 q 188 303 188 274 q 179 306 185 306 l 179 254 q 185 250 181 253 q 189 253 186 251 q 193 257 192 256 m 174 285 q 169 297 172 290 q 169 271 167 285 q 174 285 174 283 m 179 242 l 178 243 l 175 238 l 178 238 l 179 242 z "},"B":{"ha":799,"x_min":24,"x_max":775,"o":"m 775 1007 q 761 994 772 1003 q 756 947 760 976 q 703 899 744 911 q 571 854 663 886 q 488 826 489 826 q 486 828 485 826 q 485 831 488 831 q 472 824 488 831 q 465 831 472 824 q 460 825 460 826 q 481 774 460 828 q 536 621 497 722 q 542 619 538 619 q 546 621 543 619 q 551 622 549 622 q 569 599 564 622 q 572 557 572 589 l 572 497 q 574 474 572 494 q 576 453 576 454 l 576 394 q 578 376 576 393 q 579 356 579 358 l 579 307 q 583 268 579 296 l 586 194 q 604 240 592 203 l 621 238 q 621 185 619 186 q 611 82 613 93 q 579 -8 603 25 q 576 -7 578 -8 q 572 -7 574 -7 q 574 58 574 29 l 553 140 q 560 144 553 144 q 557 157 557 140 q 560 163 557 160 q 564 169 564 167 q 544 465 564 163 q 528 479 539 468 q 519 529 526 482 q 518 547 518 539 q 519 579 514 558 q 510 582 517 579 q 501 629 511 604 q 482 671 492 650 l 479 526 q 493 474 481 507 q 510 464 499 471 q 515 443 511 461 q 526 392 518 425 q 532 383 528 389 q 536 374 536 376 q 529 360 536 375 q 519 325 519 339 q 532 244 525 244 q 544 250 532 244 q 553 194 547 235 q 549 194 551 194 q 544 193 544 193 q 528 232 543 208 q 519 218 522 228 q 528 211 522 217 l 528 203 q 506 217 519 201 q 508 238 506 219 q 508 258 510 253 q 492 333 492 349 q 501 353 492 335 q 510 375 510 372 q 475 432 510 388 q 472 419 474 428 q 436 365 435 375 l 436 363 q 489 289 474 332 q 469 292 483 290 q 479 276 476 286 q 411 303 449 279 q 356 361 374 328 q 371 356 363 363 q 392 340 388 343 l 397 340 q 403 349 399 343 q 408 358 408 356 q 396 376 408 364 q 381 393 383 389 q 417 376 406 386 q 437 406 424 382 q 450 435 450 431 q 450 444 450 431 q 449 494 449 458 q 390 536 431 508 l 332 428 q 326 431 338 428 l 326 239 q 331 235 329 239 q 333 225 333 232 l 329 100 l 319 -8 l 314 -8 l 299 181 l 299 238 q 301 242 299 240 q 303 243 303 243 l 301 536 q 292 514 292 515 q 295 508 292 511 q 299 503 299 506 q 283 446 299 507 q 263 367 278 419 q 264 357 264 356 q 256 344 261 354 q 242 314 251 335 q 236 317 238 317 q 242 349 242 340 q 239 353 242 349 q 239 372 240 360 q 231 411 231 397 q 231 428 231 425 q 268 494 235 440 q 219 550 268 494 q 228 557 225 557 q 233 554 231 557 q 236 551 236 551 q 254 569 244 558 q 253 578 254 571 q 282 607 263 586 q 203 649 243 646 q 171 605 188 628 q 151 558 154 582 q 149 554 150 557 q 146 546 147 551 q 144 539 144 540 q 147 521 144 538 q 149 497 149 504 q 154 492 150 497 q 161 474 158 488 q 157 467 161 472 q 171 413 158 453 q 192 367 186 367 q 196 368 194 367 q 197 369 197 369 l 204 357 q 200 353 203 356 q 196 351 197 351 q 225 293 203 325 q 228 280 226 288 q 238 257 231 272 q 242 221 242 233 q 235 214 242 218 q 226 136 226 132 q 232 123 226 128 q 238 110 238 118 q 233 90 238 101 q 226 83 231 88 q 222 14 222 50 l 199 14 q 199 24 199 17 q 200 33 200 31 q 193 83 200 42 q 190 89 192 86 q 185 98 188 92 q 183 107 183 104 q 188 122 183 111 q 193 129 190 125 l 201 201 q 197 224 201 204 q 188 249 193 232 q 183 279 186 258 q 186 289 183 276 q 179 311 186 290 q 168 339 176 321 l 161 339 q 136 299 156 325 q 129 304 129 299 q 133 322 129 306 q 138 340 138 338 q 119 361 138 361 q 110 354 117 361 q 103 344 103 347 q 107 315 103 340 q 124 301 115 308 q 144 289 138 289 q 158 292 153 289 q 140 271 151 285 q 82 308 111 286 q 78 328 81 314 q 76 346 76 343 q 83 363 76 356 q 92 375 89 369 q 101 399 101 399 q 97 419 101 400 q 92 446 93 439 q 88 515 88 493 q 90 531 88 526 q 97 536 93 536 q 113 557 104 542 q 113 607 111 574 q 110 611 111 608 q 128 706 117 642 q 111 688 122 701 q 94 638 106 675 q 85 586 82 594 q 81 579 82 585 l 81 482 q 61 453 61 464 q 64 421 61 451 q 67 368 65 386 q 76 171 71 288 q 81 164 78 168 q 85 147 85 160 q 82 143 85 150 q 83 140 82 142 q 69 47 69 54 q 74 -10 69 46 q 42 67 57 -3 q 29 171 29 126 l 29 236 l 42 236 q 49 217 43 228 l 24 588 q 36 617 24 592 q 54 618 42 618 q 72 668 60 629 q 74 688 72 675 q 82 699 76 692 q 106 772 106 771 q 93 796 106 781 q 118 810 100 801 q 149 907 129 842 q 133 917 144 913 l 176 994 l 200 994 q 199 992 200 993 q 199 986 199 989 q 206 971 199 982 q 219 963 211 969 q 242 942 228 957 q 267 925 254 936 q 271 956 268 935 q 268 976 268 963 q 272 997 268 993 q 282 1024 278 1007 l 304 1024 l 301 1021 q 306 949 301 999 q 321 967 311 954 q 350 1001 331 981 q 360 1028 354 1010 q 369 1029 363 1028 q 378 1031 376 1031 q 429 957 379 1031 q 414 943 425 953 q 419 932 417 939 q 518 1021 475 986 q 582 1081 549 1051 q 646 1111 615 1111 q 687 1101 667 1111 q 706 1090 707 1090 q 719 1099 703 1090 q 728 1089 722 1096 q 736 1088 731 1089 q 772 1026 750 1068 q 771 1014 772 1025 q 775 1007 772 1008 m 386 917 l 363 976 q 336 947 336 951 q 340 939 336 949 q 318 918 321 918 q 307 918 303 918 l 307 907 q 350 929 347 929 q 386 917 347 929 m 288 899 q 276 893 276 893 q 275 894 275 893 q 272 896 275 896 q 249 872 268 896 q 288 899 267 882 m 246 908 q 225 926 239 914 q 199 944 215 933 q 189 913 196 929 q 199 918 193 914 q 217 889 206 908 q 231 901 218 896 q 246 908 244 906 m 247 871 l 246 874 l 242 871 l 242 868 l 247 871 m 196 846 q 178 881 189 858 l 153 804 q 170 834 161 819 q 196 846 179 849 m 361 556 q 326 581 349 564 l 326 490 q 358 533 336 510 q 361 556 357 543 m 301 565 q 274 532 274 529 q 286 519 274 525 q 301 565 292 531 m 467 299 l 461 303 l 460 301 l 464 297 l 467 299 m 457 307 l 449 313 l 446 310 l 456 304 l 457 307 m 443 318 l 439 322 l 438 321 l 442 315 l 443 318 m 447 314 l 444 317 l 443 315 l 446 313 l 447 314 m 433 325 l 425 332 l 424 329 l 432 324 l 433 325 m 268 481 q 236 411 236 439 q 244 375 236 401 l 268 481 m 160 353 q 125 457 147 388 q 118 460 122 458 q 113 482 113 485 q 119 486 113 478 q 114 525 114 532 q 111 467 111 496 q 115 404 111 417 q 146 375 117 399 q 160 353 151 369 z "},"C":{"ha":1249,"x_min":25,"x_max":1224,"o":"m 1224 697 q 1150 656 1194 682 q 1175 651 1164 651 q 1174 638 1175 644 q 1172 632 1172 632 q 1162 633 1167 632 q 1157 635 1157 635 q 1147 621 1154 631 q 1156 619 1149 619 q 1161 626 1169 618 q 1200 617 1174 622 q 1201 610 1200 615 q 1203 604 1203 606 q 1192 600 1200 604 q 1182 596 1185 596 q 1174 601 1179 596 q 1167 607 1169 607 q 1126 596 1153 607 q 1110 582 1121 593 q 1122 557 1122 569 q 1119 544 1122 554 q 1117 532 1117 535 q 1072 521 1108 529 q 1060 497 1065 511 q 1097 465 1100 465 q 1101 471 1101 465 q 1111 456 1103 468 q 1119 440 1119 443 l 1119 428 l 1111 428 q 1093 439 1100 428 q 1089 451 1093 443 q 1032 489 1071 463 q 1044 517 1040 497 q 1032 518 1042 518 q 994 501 1024 518 q 958 485 974 490 q 942 476 951 481 q 838 443 907 463 l 829 443 l 829 451 q 780 463 806 456 q 738 490 754 469 q 726 461 729 486 q 719 432 722 436 q 704 408 714 421 q 703 397 703 408 q 704 386 703 389 q 710 382 706 383 q 714 360 710 374 q 729 339 719 353 q 731 328 731 338 q 711 293 731 310 l 711 210 l 704 210 q 703 203 703 208 q 706 196 703 200 q 708 189 708 192 q 786 153 747 174 q 781 138 781 143 q 782 85 781 104 q 783 69 783 65 q 768 63 776 65 q 753 40 763 56 q 754 32 753 38 q 746 1 753 22 l 622 -1 q 567 -1 575 -1 q 547 10 560 3 q 611 79 569 44 q 669 126 640 103 q 674 142 671 131 q 678 156 678 153 q 675 165 678 158 q 671 172 672 171 q 658 215 668 189 l 658 286 q 651 289 657 286 q 583 564 600 403 q 582 515 583 547 q 575 511 579 514 q 574 490 576 504 q 563 464 563 461 q 603 415 563 442 q 574 381 603 403 q 528 356 546 358 q 550 467 550 460 q 543 474 550 465 q 542 500 543 507 q 529 528 531 511 q 531 561 531 544 q 528 563 529 561 q 524 564 528 564 q 499 551 518 564 q 490 568 497 553 q 482 579 486 579 q 474 575 479 579 q 465 571 468 571 q 458 579 465 571 q 444 533 440 560 q 451 522 447 529 q 442 499 447 515 q 422 536 431 503 q 428 543 422 532 q 431 578 428 546 q 425 603 433 597 q 447 617 432 607 q 440 618 444 618 q 425 612 435 618 q 414 605 415 606 q 368 600 413 604 q 351 588 364 600 q 385 582 378 582 q 392 587 388 582 q 400 592 397 592 q 410 589 403 592 q 421 586 418 586 q 408 570 421 575 q 382 561 394 565 q 382 569 382 569 q 371 568 379 569 q 358 567 363 567 q 314 590 314 567 q 336 604 336 594 q 325 624 336 607 q 315 619 319 619 q 304 626 304 619 q 310 638 304 631 q 313 651 315 644 q 258 617 256 617 q 249 626 254 617 q 231 613 231 621 q 233 607 232 610 l 204 607 q 191 628 201 613 q 181 647 181 644 q 187 658 181 650 q 193 671 193 667 q 204 664 197 671 q 224 675 208 667 q 204 685 222 676 q 199 710 199 699 q 216 736 199 713 q 238 771 233 760 q 246 790 239 778 q 264 803 253 801 q 282 806 281 804 q 354 829 297 814 l 354 838 q 319 836 343 840 l 319 854 l 389 854 q 433 878 389 863 q 436 856 433 865 q 467 857 465 854 q 462 886 461 865 q 461 914 463 907 q 444 943 461 915 q 435 976 431 967 q 429 981 431 981 q 418 993 424 981 q 403 986 415 992 l 397 990 q 386 985 394 986 q 381 976 385 982 q 293 936 308 936 q 263 940 283 936 q 263 911 263 932 q 246 889 256 903 q 206 835 233 857 q 147 793 178 814 q 133 793 138 790 q 194 857 156 815 q 204 884 197 865 q 224 940 211 903 l 224 943 q 206 931 213 931 q 193 932 203 931 q 181 933 183 933 q 165 932 167 933 q 85 874 106 894 q 82 858 85 868 q 25 810 81 858 q 46 888 29 840 q 151 985 57 901 q 167 986 157 985 q 174 993 168 988 q 183 999 179 999 q 187 997 186 999 q 190 996 188 996 q 215 1014 190 996 q 250 1035 239 1032 q 254 1046 253 1035 q 280 1062 267 1053 q 292 1086 293 1071 q 371 1094 364 1094 q 395 1088 383 1094 q 424 1081 407 1081 q 446 1082 425 1081 q 471 1083 467 1083 q 499 1083 488 1083 q 504 1079 506 1079 q 515 1082 503 1079 q 518 1090 518 1083 l 657 1099 q 651 1090 656 1096 q 658 1067 658 1078 q 648 1051 658 1060 q 635 1043 638 1043 q 631 1044 631 1043 q 629 1046 632 1046 q 614 1017 626 1046 q 594 972 597 979 q 575 958 586 969 q 563 893 563 933 q 754 949 658 939 q 800 956 768 950 q 831 960 828 961 l 894 960 l 894 946 q 864 932 879 943 q 876 931 867 931 q 890 934 879 931 q 903 938 900 938 q 912 933 906 938 q 921 929 918 929 q 996 914 946 925 q 1042 890 1018 908 q 1078 846 1069 868 q 1057 836 1072 844 q 1090 788 1081 817 l 907 732 q 906 731 907 732 q 904 726 904 731 q 951 681 904 713 q 990 674 969 679 l 1099 707 q 1101 694 1104 700 q 1097 679 1097 683 l 1101 674 q 1110 678 1107 674 q 1106 692 1106 682 q 1121 717 1111 694 q 1136 746 1131 740 q 1190 782 1149 758 l 1190 768 q 1164 744 1189 767 q 1150 724 1150 733 l 1150 710 q 1190 726 1164 715 q 1196 771 1193 749 q 1210 797 1199 789 l 1224 697 m 569 1040 q 544 1034 563 1039 q 522 1029 525 1029 q 519 1033 519 1029 q 517 1036 519 1036 q 503 1032 511 1036 q 479 1017 497 1022 q 447 1006 450 1007 l 447 989 l 453 983 q 460 981 457 983 q 488 929 468 961 q 506 915 494 925 l 569 1040 m 253 1011 q 219 990 214 990 q 213 990 215 990 q 208 990 210 990 q 225 978 221 978 q 253 1011 238 978 m 583 579 l 583 590 l 579 590 l 579 579 l 583 579 m 510 589 l 508 592 l 503 589 l 503 586 l 510 589 m 764 89 q 763 112 764 90 q 761 143 761 133 q 693 164 718 158 l 693 156 q 701 133 693 153 q 714 100 711 110 q 724 93 721 99 q 735 74 728 88 q 757 74 750 78 q 764 89 764 81 z "},"D":{"ha":529,"x_min":17,"x_max":513,"o":"m 513 608 q 496 574 513 588 q 486 574 494 574 q 472 578 476 574 q 461 547 467 568 q 422 524 447 540 q 410 500 421 522 q 396 472 406 486 q 390 447 393 464 q 384 433 386 443 q 376 403 382 422 q 367 390 374 399 q 367 382 367 390 q 374 328 367 360 q 372 307 374 319 q 389 276 376 301 q 401 264 394 272 q 408 243 408 250 q 397 222 408 240 q 381 218 393 222 l 381 167 q 386 160 383 164 q 389 153 389 157 q 408 137 396 147 q 419 81 419 126 q 401 53 419 63 q 403 -10 401 15 q 374 -10 394 -10 q 343 -11 353 -11 q 335 -13 342 -11 q 325 -15 328 -15 l 314 -15 q 307 47 311 10 q 300 63 300 53 q 306 82 300 57 q 310 86 306 86 q 322 83 318 86 q 325 92 325 88 q 322 129 325 107 q 317 167 317 171 l 317 179 q 326 182 321 181 q 317 192 318 183 q 317 206 317 199 q 310 219 310 208 q 319 236 310 235 q 308 267 319 238 q 294 278 308 268 q 282 313 290 281 q 306 350 282 313 q 313 354 308 351 q 307 383 313 365 q 297 391 300 383 q 289 418 293 399 q 285 440 290 425 q 249 419 269 435 q 249 413 249 418 q 251 404 249 411 q 253 394 253 397 q 250 385 253 401 q 253 354 250 378 q 256 346 253 351 q 267 330 260 340 q 274 301 274 319 q 253 251 274 276 q 260 250 254 250 q 263 231 260 244 q 265 217 265 218 q 263 203 265 221 q 258 201 261 203 q 256 182 260 194 q 260 179 257 182 q 269 107 263 154 q 276 60 276 100 q 279 54 279 54 q 275 17 279 22 q 186 -11 197 -11 q 132 6 168 -11 q 124 21 129 11 q 181 68 124 21 q 174 85 174 78 q 182 106 174 88 q 190 125 190 124 q 186 131 190 126 q 182 149 182 136 q 189 160 182 156 q 199 170 196 164 q 203 183 203 176 q 201 190 203 185 q 199 197 199 194 q 197 217 199 207 q 189 233 196 226 q 181 254 178 243 q 193 265 186 258 q 193 281 192 271 q 201 299 194 288 q 203 307 203 300 q 201 313 203 308 q 199 319 199 318 q 195 354 197 336 q 183 382 193 372 q 179 425 183 397 q 168 435 175 428 q 167 446 168 439 q 153 465 160 457 q 153 471 153 467 q 156 485 156 478 q 150 513 156 496 q 142 539 142 535 q 136 538 139 538 q 126 575 126 561 q 135 590 126 583 q 147 613 144 596 q 135 621 143 614 q 128 639 128 628 q 130 649 128 640 q 132 661 132 657 q 133 688 129 679 l 143 688 q 143 667 142 675 q 147 675 147 671 q 140 701 147 689 q 144 703 142 701 q 150 703 147 703 q 158 689 157 703 q 161 671 160 681 q 167 668 163 669 q 168 663 167 665 q 176 707 176 703 q 172 732 176 710 q 165 764 167 754 q 142 739 156 757 q 140 729 142 738 q 118 703 135 703 q 92 711 113 703 q 85 689 85 704 q 89 681 85 686 q 93 674 93 675 q 86 656 93 672 q 76 651 82 656 q 83 615 83 629 q 81 603 83 608 q 71 594 78 599 q 64 586 64 589 q 66 577 64 585 q 69 566 68 569 q 78 558 71 563 q 79 546 81 554 q 83 529 88 542 q 93 525 86 528 l 93 519 q 82 488 93 514 l 74 488 q 68 503 72 489 q 67 476 67 499 q 56 463 68 464 l 56 464 q 50 463 57 463 q 39 468 47 463 q 33 476 38 472 q 24 488 29 481 q 17 514 17 500 q 19 540 17 514 q 29 554 24 546 q 25 585 26 565 q 43 606 31 592 q 47 631 43 615 q 33 633 40 632 q 22 642 22 636 q 28 664 22 653 q 35 672 35 664 q 39 682 35 681 q 29 697 29 690 q 36 725 29 707 q 63 734 49 729 q 77 749 78 739 q 82 781 76 760 q 133 835 100 797 q 143 861 133 844 q 153 864 144 863 q 163 869 156 867 q 185 872 178 872 q 185 892 185 878 q 183 909 183 906 q 178 922 182 913 q 181 947 171 946 q 175 954 175 953 q 211 1022 175 1003 q 236 1031 229 1031 q 245 1029 238 1031 q 256 1028 253 1028 q 260 1030 257 1028 q 267 1033 264 1032 q 292 1033 271 1033 q 293 1042 293 1033 q 296 1046 294 1043 q 294 1069 296 1054 q 293 1092 293 1085 q 301 1094 296 1092 q 308 1068 306 1094 q 304 1056 304 1060 q 311 1026 304 1040 q 324 1018 315 1024 q 336 994 335 1007 q 335 957 339 960 l 339 957 q 315 925 339 938 q 285 899 290 913 q 349 874 308 875 q 357 864 350 869 q 400 856 371 863 q 397 835 400 843 q 392 822 392 817 q 426 772 392 818 q 432 769 428 772 q 442 760 436 767 q 446 729 443 750 q 456 714 450 724 q 456 708 456 711 q 467 694 464 694 q 471 694 468 694 q 475 696 474 696 q 501 667 501 696 q 499 658 501 665 q 496 646 496 650 q 500 633 496 639 q 497 622 499 629 q 506 618 500 621 q 513 608 513 615 m 290 876 q 281 885 283 879 q 281 881 281 883 q 279 876 279 878 q 282 869 279 878 l 288 869 l 290 876 m 488 672 q 483 682 488 671 q 479 681 482 681 q 483 676 481 679 q 488 672 486 672 m 444 665 q 431 690 444 674 q 417 696 424 690 q 444 665 418 674 m 458 642 q 440 657 450 656 q 422 662 431 658 q 407 682 414 665 q 396 707 401 694 l 389 706 q 377 719 383 706 q 365 736 371 732 l 343 608 q 361 579 353 589 q 358 564 360 574 q 367 536 363 554 q 364 532 364 539 q 386 544 389 544 q 390 543 388 544 q 393 543 392 543 q 436 599 401 543 q 441 617 438 606 q 458 642 444 629 m 318 675 q 310 678 317 676 q 307 672 307 672 q 317 667 307 674 q 318 675 317 674 m 314 644 l 307 644 q 310 635 308 640 q 314 644 313 640 m 213 668 l 213 675 q 206 668 207 672 l 213 668 m 208 633 l 208 646 q 204 649 204 646 q 201 654 204 651 q 200 635 200 640 q 206 618 200 624 q 208 633 207 624 m 124 729 q 104 722 111 725 q 115 718 113 718 q 124 729 125 718 m 61 717 q 54 719 54 719 q 42 703 42 719 q 46 692 42 699 q 61 717 49 700 m 394 250 q 385 260 394 254 q 386 256 385 257 q 378 243 378 244 q 383 231 378 242 q 392 233 381 231 q 393 242 392 235 q 394 250 394 249 m 324 300 l 324 306 q 317 314 317 308 q 317 324 317 318 q 313 322 315 322 q 304 326 315 322 q 296 311 296 314 q 301 298 296 308 q 307 283 306 288 q 314 289 310 285 q 324 300 314 300 m 263 299 q 256 322 263 308 q 250 325 254 324 q 250 317 250 322 q 249 311 249 313 q 258 293 249 307 q 263 299 263 294 m 403 86 q 389 131 399 131 q 385 129 392 131 l 386 85 q 396 83 390 88 q 400 76 401 79 q 401 81 400 78 q 403 86 403 85 m 199 249 q 196 254 199 251 l 193 247 q 199 249 196 247 m 200 139 l 200 151 l 196 150 l 196 140 q 200 139 199 140 m 201 119 q 185 88 185 81 q 189 83 185 88 q 201 119 203 115 z "},"E":{"ha":538,"x_min":26,"x_max":513,"o":"m 513 593 q 506 574 513 593 q 499 565 504 571 q 500 563 500 564 q 490 533 496 547 q 485 533 489 533 q 486 526 486 531 q 472 489 483 514 q 458 483 469 483 q 443 493 447 483 q 424 457 435 474 q 394 414 422 404 q 388 428 390 418 q 381 431 386 429 q 375 439 375 433 q 388 486 375 436 q 386 497 389 489 q 390 517 386 497 l 388 519 q 375 493 374 508 q 378 478 376 478 q 367 454 378 478 q 350 436 361 440 q 342 436 347 436 q 326 428 336 433 q 324 413 326 424 q 322 400 322 403 l 322 389 q 326 387 322 386 q 331 386 329 388 q 340 371 338 383 q 340 306 353 331 q 357 261 367 292 q 357 235 353 251 q 358 213 360 218 q 361 186 357 208 q 371 179 365 185 q 376 156 376 174 q 373 147 376 154 q 369 136 369 139 q 374 128 369 135 q 378 119 378 121 q 382 86 385 93 q 397 42 397 71 q 393 18 397 31 q 387 17 392 18 q 379 15 382 15 q 367 18 376 15 q 355 22 357 21 q 350 25 353 22 q 344 28 347 28 q 337 22 340 28 q 331 11 333 15 q 274 -3 314 -3 q 235 1 281 -3 q 222 4 229 1 q 206 36 221 17 q 186 39 201 39 q 172 29 185 39 q 154 17 160 19 q 126 14 149 14 q 97 17 114 14 q 67 24 93 18 q 61 39 61 31 q 75 72 61 44 q 89 100 81 83 q 101 111 94 111 q 104 111 103 111 q 107 110 106 110 q 117 128 117 110 l 117 219 q 113 228 117 222 q 110 236 110 235 q 119 278 110 239 q 128 319 128 318 q 125 328 128 321 q 122 340 122 336 q 126 371 125 347 q 117 399 122 381 q 113 432 113 417 q 117 435 117 432 l 117 449 q 111 442 113 447 q 111 433 111 433 q 107 431 111 431 q 94 438 96 431 q 93 446 93 446 q 81 440 92 446 q 68 435 69 435 q 60 439 65 435 q 49 432 44 432 q 29 467 31 432 q 29 489 29 481 q 26 494 26 493 q 36 521 26 501 q 47 528 38 521 q 47 532 49 531 q 57 544 50 536 q 65 585 65 558 q 64 619 64 621 q 71 635 65 622 q 76 650 76 647 q 74 660 76 651 q 69 671 71 668 q 53 693 63 678 q 50 733 50 701 q 57 740 50 736 q 36 781 50 754 q 28 821 28 803 q 39 843 28 825 q 103 919 71 893 q 117 922 114 922 q 144 917 131 922 q 163 963 163 958 l 163 969 q 133 978 151 971 q 106 996 115 986 q 106 1000 106 997 q 126 1031 106 1010 q 121 1038 121 1035 q 134 1047 121 1039 q 153 1063 147 1056 q 246 1097 188 1097 q 271 1083 260 1097 q 286 1063 278 1074 q 300 1056 293 1060 q 313 1038 313 1047 q 302 1013 313 1025 q 292 1001 292 1000 q 332 928 292 978 l 346 928 q 386 949 361 949 q 421 914 410 949 q 432 868 426 890 q 451 861 442 861 q 456 831 451 856 q 463 824 458 829 q 467 807 467 818 q 463 797 467 800 q 458 790 460 793 q 453 747 453 771 q 453 729 453 735 q 460 715 460 722 q 435 688 460 697 q 442 683 436 686 q 443 644 442 671 q 453 682 446 657 q 488 692 479 692 q 496 679 496 692 q 488 648 496 664 q 479 632 479 632 q 485 621 479 629 q 495 610 492 613 q 503 606 499 607 q 513 593 513 601 m 193 947 q 190 957 193 954 l 182 957 q 178 917 179 940 q 190 922 182 919 q 193 947 193 956 m 476 594 q 472 611 476 603 q 468 596 468 599 q 472 594 471 596 q 476 594 475 594 m 363 651 l 363 661 q 360 682 363 672 q 344 711 353 693 q 344 738 344 706 l 299 701 q 296 703 297 703 q 276 690 294 703 q 282 678 278 686 q 290 675 282 678 q 297 669 292 674 q 308 661 301 665 q 317 628 313 653 q 321 583 322 588 q 326 550 322 572 q 332 615 326 574 q 351 632 339 621 q 354 646 353 633 q 363 651 356 654 m 450 528 q 439 510 439 517 q 443 501 439 507 q 450 528 446 511 m 101 469 q 97 478 97 476 q 97 456 97 467 q 101 469 99 458 z "},"F":{"ha":497,"x_min":24,"x_max":472,"o":"m 472 835 l 471 828 l 453 828 q 451 836 453 831 l 440 679 q 444 669 440 678 q 447 658 447 660 q 444 649 447 660 q 439 646 443 649 q 442 640 439 643 q 444 635 444 636 q 442 630 444 632 q 440 625 440 628 q 436 582 439 611 q 428 576 429 582 q 425 525 425 549 q 432 508 425 515 q 431 497 431 514 q 440 496 433 494 l 440 483 q 436 479 439 482 q 435 426 438 463 q 436 407 436 419 q 432 392 436 403 l 421 392 l 418 394 q 415 379 415 385 l 404 379 q 401 388 403 382 q 397 383 400 386 l 386 383 q 383 426 385 388 q 379 439 382 428 q 365 426 365 426 q 356 432 365 426 q 374 475 361 446 q 385 485 378 478 q 386 499 386 489 l 396 499 q 399 511 397 500 q 403 513 399 511 q 410 551 407 515 q 411 585 411 572 q 404 592 411 590 q 404 606 404 597 q 407 607 407 604 q 403 631 407 603 q 404 667 404 642 q 390 700 400 682 q 382 706 386 701 q 363 753 374 721 q 356 781 363 760 q 356 725 354 728 l 299 725 q 290 700 296 717 q 326 700 317 696 l 326 686 q 321 685 322 686 q 336 683 324 683 q 338 631 338 665 q 354 629 342 628 l 354 549 l 349 549 q 347 542 347 546 l 347 471 q 340 468 344 469 l 340 340 q 351 336 344 339 l 351 304 q 342 304 351 306 q 338 281 338 294 q 343 271 338 274 q 331 167 335 206 q 322 163 331 165 l 322 157 q 328 156 324 156 q 324 110 328 161 q 333 106 328 108 q 339 94 339 103 q 332 82 339 83 q 345 51 333 76 q 357 19 357 25 q 346 1 357 13 l 296 1 q 263 19 263 1 q 272 44 263 21 q 290 81 278 56 q 286 88 290 83 q 282 94 282 92 q 288 106 282 103 q 296 111 289 107 q 299 126 296 115 l 318 303 q 303 308 314 304 q 296 314 301 315 l 296 328 q 314 342 301 332 q 315 347 314 340 l 317 425 q 314 429 317 426 l 314 469 q 310 472 313 469 l 310 540 q 322 544 315 539 l 322 551 l 296 551 q 294 561 296 558 l 290 561 q 286 539 289 554 l 204 539 q 199 561 206 547 q 197 554 197 561 q 169 553 189 553 q 169 549 169 551 q 168 544 168 546 q 181 542 174 542 l 181 472 l 175 472 l 175 431 q 171 429 174 432 l 171 342 q 182 336 175 339 q 182 332 182 336 q 185 329 182 329 q 189 329 182 329 l 189 296 q 182 282 189 294 q 183 279 183 283 l 183 242 q 181 233 183 240 q 178 224 178 225 q 190 201 178 222 q 203 172 201 179 q 206 156 206 165 q 182 124 206 124 q 183 111 182 125 q 189 108 186 110 q 197 96 197 104 q 193 88 197 94 q 189 81 189 82 q 196 66 189 79 q 204 44 203 53 q 208 40 206 43 q 215 21 215 21 q 210 10 215 17 q 200 3 206 3 q 161 3 200 3 q 121 21 121 3 q 131 46 121 22 q 147 82 133 53 q 139 96 140 83 q 144 107 139 101 q 154 110 149 113 q 150 157 154 122 q 157 158 156 157 l 157 164 q 149 165 156 165 q 146 189 149 189 q 144 188 144 189 q 143 188 144 188 q 132 193 139 188 q 138 209 132 199 q 144 224 143 219 q 140 274 143 221 q 146 276 143 274 q 143 304 146 290 q 133 285 133 300 q 128 267 133 269 q 122 285 122 279 q 132 308 122 285 q 135 340 135 313 l 143 340 q 146 350 146 344 l 147 471 q 143 472 146 472 l 143 549 q 138 551 140 550 l 138 631 l 157 631 l 157 683 q 174 685 167 683 q 167 688 174 688 l 167 699 l 203 699 q 204 701 204 699 q 196 726 204 692 q 190 729 194 729 q 183 725 185 729 q 174 725 179 725 q 142 725 140 725 l 140 782 q 135 765 139 781 q 135 758 135 758 q 113 707 132 747 q 106 703 110 706 q 90 671 93 683 q 92 633 89 664 q 88 625 86 632 q 89 614 89 608 l 89 594 q 85 592 88 593 q 82 579 82 590 q 85 521 82 554 q 90 514 88 518 q 92 503 93 510 q 103 501 94 501 q 103 488 103 488 q 121 458 117 479 q 132 433 124 450 q 122 429 126 429 q 110 442 121 429 q 104 429 106 429 q 103 389 106 415 q 97 386 100 386 q 86 394 89 386 q 83 382 86 390 l 72 382 q 68 400 71 388 q 68 394 68 399 l 57 394 q 53 431 56 410 q 53 485 53 431 q 49 486 51 486 l 49 499 q 58 500 53 500 l 58 514 q 63 514 61 514 q 67 522 67 521 q 63 586 67 526 q 54 588 58 585 l 54 629 q 49 639 49 632 q 54 647 49 640 q 49 653 54 647 q 49 671 49 658 q 53 676 50 672 q 53 690 53 681 q 51 701 51 701 l 51 738 l 46 835 q 40 831 43 831 q 33 832 39 831 q 25 833 28 833 l 25 839 q 50 899 24 864 q 89 929 64 915 q 97 935 94 931 q 103 940 99 940 q 107 940 106 940 q 110 939 108 939 q 118 944 117 939 q 126 950 119 950 q 131 948 128 950 q 135 946 133 946 q 147 949 136 946 q 163 951 157 951 q 214 958 179 951 l 214 961 q 171 975 197 965 q 181 986 176 979 l 181 1010 q 167 1017 176 1011 q 168 1038 168 1028 q 178 1056 169 1056 q 179 1056 179 1056 q 181 1054 179 1054 q 183 1058 181 1054 q 200 1096 183 1078 q 250 1114 217 1114 q 294 1101 278 1114 q 322 1071 303 1090 q 346 1063 331 1068 q 350 1032 350 1051 q 335 1024 343 1029 q 317 986 317 1007 q 328 975 317 983 q 296 964 317 968 q 267 958 268 958 l 267 956 l 268 954 q 280 956 275 954 q 286 957 285 957 q 324 951 288 957 q 363 944 361 944 q 367 946 364 944 q 371 946 369 946 q 380 941 378 946 q 388 936 382 936 q 391 938 390 936 q 394 939 392 939 q 400 934 399 939 q 403 929 401 929 q 431 911 411 924 q 453 889 444 899 q 472 835 456 883 m 418 836 q 394 836 397 836 q 382 813 388 813 q 379 814 381 813 q 376 815 378 815 q 367 807 374 815 q 361 796 361 799 q 369 771 361 779 q 401 711 378 763 q 401 701 401 708 q 413 681 406 693 l 413 729 q 408 731 410 729 l 408 740 q 414 743 411 743 q 408 747 411 744 q 408 774 410 760 l 418 774 q 418 836 418 796 m 338 611 l 338 626 l 314 626 l 314 621 q 329 619 325 621 l 329 611 l 338 611 m 136 799 q 130 808 136 800 q 121 817 124 817 q 117 815 119 817 q 114 815 115 815 q 106 824 107 815 q 100 839 101 838 q 79 839 82 839 l 79 778 q 86 775 81 776 q 86 747 86 746 l 82 747 q 88 743 85 746 l 88 733 l 83 732 l 83 683 q 94 707 88 692 q 94 717 93 711 q 117 765 103 740 q 122 771 118 769 q 136 799 136 790 m 179 621 l 179 628 l 157 628 l 157 614 l 164 614 q 167 622 164 619 q 179 621 175 621 m 179 301 l 179 308 l 176 308 l 176 301 l 179 301 m 171 257 l 171 274 l 168 274 l 168 257 l 171 257 m 193 157 q 175 196 193 161 l 181 136 l 186 136 q 193 157 193 144 z "},"G":{"ha":1325,"x_min":31,"x_max":1296,"o":"m 1294 519 q 1250 510 1240 510 q 1236 525 1251 510 q 1185 507 1210 507 q 1118 558 1142 507 q 1025 478 1100 492 q 1025 400 1026 451 q 1021 390 1025 397 q 1017 379 1017 382 l 1019 154 q 1029 99 1029 97 q 1115 67 1044 92 q 1122 57 1117 63 q 1186 32 1124 57 q 1179 -4 1186 8 l 675 -4 q 669 6 675 -1 l 669 32 q 733 54 690 39 q 739 67 735 58 q 825 99 778 78 q 826 126 826 108 q 832 131 832 124 l 832 221 q 829 267 832 217 q 826 336 825 313 q 838 356 831 343 q 838 368 838 358 q 838 381 838 378 q 832 388 838 382 q 826 397 826 393 l 826 472 q 856 500 826 476 q 857 551 857 492 q 828 575 846 560 q 794 629 807 599 q 786 635 792 635 q 774 622 779 635 l 613 622 q 608 640 611 624 q 594 658 607 650 q 576 608 589 654 q 543 550 567 575 q 507 536 531 547 q 470 498 493 528 q 439 447 447 468 q 432 400 438 431 q 406 367 419 388 q 404 339 406 357 q 388 288 399 322 q 365 269 378 281 q 378 232 371 260 q 362 229 374 232 q 346 226 350 226 l 246 226 q 222 247 242 229 q 150 226 176 229 q 86 219 90 219 q 69 222 83 219 q 49 224 56 224 q 31 251 43 233 q 167 342 79 281 q 163 344 165 344 l 56 281 q 36 313 50 292 q 125 410 61 349 q 122 418 122 419 q 174 463 129 433 q 240 492 219 492 q 250 483 240 492 q 267 489 261 489 q 272 485 269 489 q 278 481 275 481 q 315 499 285 481 q 351 528 344 518 q 357 565 357 539 q 355 626 357 563 q 353 722 353 689 q 329 624 332 632 q 258 535 301 535 q 227 548 243 535 q 207 575 211 561 q 171 672 189 624 q 149 778 149 740 q 163 803 149 790 q 190 829 176 815 q 197 854 192 838 q 325 940 233 890 q 336 958 328 947 q 404 1011 350 971 q 457 1049 435 1035 q 607 1115 579 1115 q 610 1113 610 1115 q 614 1110 610 1110 q 646 1113 617 1110 q 681 1115 675 1115 q 719 1113 685 1115 q 758 1110 754 1110 q 766 1113 761 1110 q 775 1115 771 1115 q 882 1099 810 1115 q 1007 1060 960 1079 q 1136 963 1090 1022 q 1265 688 1226 844 q 1294 536 1296 567 l 1294 519 m 1068 571 q 1021 544 1051 554 q 978 526 986 533 l 989 526 q 1032 542 1017 535 q 1068 571 1060 554 m 542 676 q 540 685 542 682 q 538 689 538 688 q 474 653 506 653 q 425 676 456 653 q 418 674 422 674 q 416 658 418 668 q 414 643 414 647 q 433 507 414 604 q 479 563 450 525 q 488 590 483 575 q 511 632 499 613 q 531 654 513 635 q 542 676 542 667 m 378 483 q 326 447 360 468 l 346 447 q 365 462 353 447 q 378 483 376 476 m 386 428 q 360 415 385 428 q 367 411 363 415 q 386 428 379 411 m 357 369 q 347 382 357 375 q 333 389 338 389 q 349 356 343 372 q 357 369 357 364 z "},"H":{"ha":476,"x_min":33,"x_max":443,"o":"m 443 53 q 429 29 443 36 q 392 21 422 26 q 378 -1 386 8 l 51 -1 q 38 18 38 13 q 39 19 38 13 q 71 58 35 32 q 64 68 67 65 q 67 72 65 69 q 72 117 68 86 l 65 361 q 46 451 58 392 q 33 561 33 510 l 35 631 q 56 775 39 679 q 61 833 57 793 q 74 872 63 842 q 82 890 76 878 q 64 904 64 908 q 82 940 64 913 q 103 986 89 956 q 147 1076 118 1017 q 176 1101 153 1089 q 203 1114 199 1114 q 229 1107 221 1114 q 242 1099 233 1104 q 290 1063 244 1094 q 325 1022 319 1042 q 318 997 326 1015 q 311 969 310 978 q 326 947 313 968 q 375 871 346 918 q 389 836 379 860 q 400 818 394 831 q 413 781 406 806 q 415 751 413 771 q 419 749 417 751 q 435 710 435 724 q 426 646 435 725 q 422 633 424 642 q 419 560 419 581 q 418 563 419 560 q 417 560 417 561 q 422 543 417 558 q 426 526 426 528 q 418 454 426 514 q 418 439 418 449 q 397 396 407 417 q 385 351 385 371 q 392 321 385 343 q 399 297 399 299 q 376 271 399 286 l 376 231 q 378 213 376 229 q 381 194 381 197 q 383 189 382 190 q 407 106 390 161 q 426 81 408 103 q 443 53 443 60 m 383 192 l 381 192 l 381 196 l 383 196 l 383 192 m 383 185 l 383 189 l 381 189 l 381 185 l 383 185 z "},"I":{"ha":542,"x_min":17,"x_max":525,"o":"m 525 697 q 515 696 522 694 l 453 236 q 463 235 457 235 l 414 183 q 428 172 417 181 q 432 161 432 168 q 401 136 432 136 q 383 149 383 136 q 382 174 383 171 q 370 174 379 174 q 357 174 361 174 q 351 163 351 164 q 356 154 351 156 q 363 154 363 154 l 363 132 q 371 131 364 131 l 397 6 l 336 6 q 336 -4 336 6 l 194 -4 q 193 6 190 0 q 131 4 192 7 l 131 11 q 160 131 132 0 q 169 140 169 133 q 168 154 168 147 q 172 154 168 154 q 179 156 176 156 q 179 160 179 157 q 181 164 181 163 q 167 165 176 165 q 164 175 164 168 q 157 175 163 175 q 146 167 146 175 q 147 158 146 164 q 149 150 149 153 q 131 138 149 138 q 100 164 100 138 q 118 185 100 168 q 71 238 94 208 l 79 238 q 71 319 79 233 q 56 443 65 378 q 51 488 53 461 q 44 542 49 506 l 26 696 q 18 699 25 699 l 17 713 q 31 721 31 714 q 31 726 31 725 q 26 731 29 728 q 26 743 26 732 q 17 744 24 744 l 17 757 l 26 757 q 51 971 32 832 q 81 997 51 972 q 131 1044 106 1015 q 121 1046 128 1046 q 129 1053 124 1050 q 110 1074 110 1071 q 140 1100 110 1100 q 158 1092 150 1100 q 160 1069 158 1085 q 165 1086 165 1075 q 164 1103 164 1100 q 181 1114 171 1107 q 232 1114 185 1114 l 361 1113 q 381 1100 371 1110 q 385 1067 378 1092 q 385 1088 385 1074 q 403 1097 388 1097 q 433 1072 433 1097 q 415 1051 433 1067 q 424 1044 418 1049 l 414 1044 q 413 1042 413 1044 q 458 1000 413 1033 q 492 971 474 992 q 507 864 501 929 q 515 754 515 760 l 525 754 l 525 742 q 517 739 524 739 q 511 725 518 735 l 511 713 l 525 708 l 525 697 z "},"J":{"ha":567,"x_min":29,"x_max":538,"o":"m 538 757 q 536 753 538 756 l 531 753 q 468 772 519 774 l 468 756 q 478 742 478 750 q 457 713 478 738 l 457 693 q 464 692 458 692 q 465 674 467 686 l 468 671 q 469 674 468 672 l 474 674 q 481 671 472 674 q 482 686 482 678 q 496 674 486 682 l 496 597 q 482 586 489 590 l 482 597 q 478 600 479 600 q 475 599 475 600 q 472 597 475 597 q 467 600 475 597 q 465 560 465 599 q 483 557 475 557 l 483 540 q 467 538 474 538 l 467 126 q 454 117 467 119 q 304 451 357 264 q 263 429 290 446 q 258 411 261 424 q 244 344 253 386 q 218 226 232 286 q 211 197 215 217 q 214 190 214 192 q 210 186 213 189 q 213 182 210 185 q 206 175 213 179 q 183 72 203 156 q 172 22 181 54 q 113 4 142 13 q 58 -3 83 -4 q 53 1 57 -1 q 57 83 53 3 q 31 83 46 86 l 29 103 l 33 107 q 38 103 35 106 l 57 103 q 67 300 60 165 q 90 743 74 454 q 103 806 90 744 q 163 913 114 857 q 265 986 213 968 q 267 994 265 989 q 322 1022 286 1011 q 371 1028 342 1028 q 403 1071 378 1040 q 430 1096 408 1078 q 457 1114 451 1114 q 464 1106 463 1114 q 467 1092 465 1099 q 476 1099 469 1094 l 476 988 q 465 985 472 986 l 465 976 q 475 975 468 975 l 475 861 q 468 868 474 863 q 467 860 467 865 q 470 851 467 851 q 479 849 474 850 l 479 808 q 460 799 474 807 l 460 790 q 538 757 522 792 m 56 92 l 56 94 l 40 94 l 40 92 l 56 92 z "},"K":{"ha":1269,"x_min":11,"x_max":1250,"o":"m 1250 1 l 364 1 l 364 64 q 426 129 383 89 q 493 149 439 138 q 497 161 494 153 l 524 401 q 514 426 524 400 q 500 417 506 417 q 485 424 494 417 l 485 461 q 500 472 489 472 q 517 472 508 472 q 525 513 522 483 q 543 549 543 525 q 542 589 542 589 q 554 697 553 643 l 554 713 l 510 713 q 481 743 508 733 q 440 756 440 756 q 426 774 436 758 q 364 783 407 776 q 354 792 361 786 q 250 794 325 792 q 181 796 185 796 q 158 791 164 796 q 143 779 151 786 q 108 778 138 778 l 60 778 q 50 783 56 778 q 42 789 44 788 q 22 790 22 793 l 19 831 q 44 831 11 831 q 50 835 50 831 q 51 840 50 839 q 110 842 65 842 q 143 840 132 842 q 157 828 149 835 q 204 826 169 826 q 270 825 210 826 q 335 824 331 824 q 351 828 343 824 q 368 836 360 833 q 424 842 386 838 q 432 846 431 843 q 432 851 432 847 q 429 858 429 857 q 592 903 511 881 q 775 946 749 946 q 793 942 779 946 q 810 939 807 939 q 847 947 801 939 q 840 963 840 954 q 953 997 840 997 l 953 1106 l 961 1106 l 961 997 q 1019 993 988 997 q 1097 969 1046 985 l 1097 953 q 1067 914 1067 951 q 1067 893 1067 901 q 1192 851 1069 892 l 1192 758 q 1132 735 1185 754 q 1114 710 1113 728 l 1068 710 q 1067 697 1067 707 q 1119 151 1067 703 q 1188 126 1143 144 q 1250 64 1192 124 l 1250 1 z "},"L":{"ha":2006,"x_min":25,"x_max":1981,"o":"m 1981 903 l 1774 903 q 1763 906 1769 903 q 1751 910 1757 910 q 1724 894 1742 910 q 1704 869 1706 878 q 1700 821 1700 850 l 1700 767 q 1741 760 1711 760 q 1779 760 1771 761 q 1795 747 1788 758 q 1803 729 1803 735 q 1742 697 1803 694 q 1735 658 1740 683 q 1713 621 1732 651 q 1697 583 1697 596 q 1733 501 1697 582 q 1747 489 1739 499 q 1871 214 1871 218 l 1871 124 q 1844 74 1871 104 q 1807 42 1817 43 q 1813 25 1813 29 q 1801 6 1813 13 q 1783 -1 1790 -1 q 1764 8 1769 -1 q 1753 28 1758 18 q 1738 31 1746 31 q 1696 43 1721 31 q 1660 74 1671 56 q 1621 117 1644 88 q 1604 165 1610 136 q 1597 210 1597 210 q 1582 272 1592 231 q 1582 282 1581 276 q 1568 346 1579 297 q 1557 410 1557 386 q 1558 431 1557 421 q 1546 507 1553 469 q 1497 535 1540 535 q 1443 501 1460 535 q 1411 438 1414 440 q 1315 403 1382 403 l 893 407 q 894 440 890 417 q 878 456 896 454 l 878 614 q 878 628 876 618 q 881 643 881 639 q 886 663 881 656 q 881 665 883 665 q 881 682 881 668 q 886 701 881 694 q 881 703 883 703 l 881 757 q 893 760 890 757 l 893 774 l 826 774 q 822 799 821 785 l 635 799 l 635 746 l 401 746 q 396 719 400 738 l 361 719 q 357 743 357 728 q 317 779 314 757 q 310 781 317 781 l 25 756 l 25 954 l 65 954 l 317 929 q 319 944 317 933 q 350 964 326 965 l 558 964 l 558 1071 l 917 1071 q 917 1099 914 1081 q 926 1115 924 1117 l 1086 1115 q 1086 1074 1088 1075 q 1093 1071 1089 1071 q 1106 1076 1097 1071 q 1117 1082 1115 1082 q 1163 1090 1140 1090 q 1221 1071 1176 1090 l 1407 1071 q 1414 1076 1406 1071 q 1467 1088 1454 1088 q 1501 1082 1486 1088 q 1531 1068 1511 1076 q 1590 1068 1535 1068 q 1650 1068 1646 1068 q 1715 1089 1669 1072 q 1760 1103 1757 1103 l 1981 1103 l 1981 903 m 1410 514 q 1392 569 1410 544 q 1393 553 1393 561 q 1372 492 1393 521 q 1324 457 1350 464 q 1301 449 1292 449 q 1290 453 1296 449 l 1290 461 q 1354 533 1354 489 q 1341 566 1354 549 q 1328 600 1328 583 l 1282 600 q 1233 570 1254 600 q 1213 515 1213 540 q 1313 432 1213 432 q 1410 514 1410 432 m 299 899 l 281 903 q 283 888 276 894 q 299 899 293 888 m 299 849 l 299 861 q 294 868 297 864 l 276 864 l 276 849 q 288 842 281 847 q 299 849 292 844 m 254 903 l 235 906 q 232 899 235 903 l 239 890 q 254 903 247 890 m 299 815 l 281 822 l 276 810 l 292 807 l 299 815 m 208 897 l 208 910 l 190 910 l 190 897 q 196 895 192 897 q 201 893 200 893 q 208 897 204 897 m 254 849 l 254 864 q 246 866 251 864 q 239 868 240 868 q 232 854 232 860 q 243 842 232 853 q 254 849 246 844 m 167 904 l 160 913 l 149 913 l 144 900 l 163 897 q 167 904 163 900 m 208 846 l 208 864 l 190 867 q 190 846 190 867 l 208 846 m 254 815 l 235 819 l 232 807 q 239 804 235 807 q 254 815 247 801 m 121 904 q 119 910 121 906 q 118 915 118 914 l 103 915 l 99 904 q 121 904 110 899 m 163 867 l 147 867 l 144 846 l 163 846 q 163 867 168 857 m 208 804 q 206 811 208 806 q 204 819 204 817 q 186 807 186 813 l 193 800 q 201 802 194 800 q 208 804 207 804 m 76 915 l 61 919 l 54 911 q 57 903 57 908 l 72 903 q 76 915 76 907 m 118 867 l 103 867 l 99 849 l 118 846 q 118 867 124 857 m 163 800 l 163 813 q 157 814 161 813 q 151 815 153 815 l 144 813 l 144 800 l 163 800 m 76 864 q 54 864 75 864 l 54 849 l 72 846 l 76 864 m 121 806 l 103 813 l 99 800 l 114 797 l 121 806 m 76 806 l 61 810 q 54 797 54 803 l 72 793 q 74 800 72 796 q 76 806 76 804 z "},"M":{"ha":2554,"x_min":18,"x_max":2536,"o":"m 2536 669 q 2535 633 2536 646 q 2440 547 2454 547 l 2365 547 q 2361 565 2361 554 q 2363 576 2361 568 q 2363 588 2363 585 q 2338 610 2363 610 q 2319 596 2331 610 q 2199 574 2214 572 l 2146 574 l 2146 629 q 2115 632 2138 632 q 2088 631 2099 632 q 2069 607 2079 624 q 1992 606 2064 607 q 1975 575 1986 593 q 1946 564 1975 572 q 1923 540 1936 561 q 1910 506 1910 519 q 1978 400 1910 496 q 2057 293 2018 347 q 2126 167 2126 193 q 2117 139 2126 147 q 2026 63 2088 111 q 1940 3 1953 3 q 1913 31 1917 3 q 1911 76 1911 54 q 1906 100 1910 92 q 1714 368 1833 199 q 1672 426 1704 390 q 1614 457 1653 436 q 1574 385 1594 421 q 1503 342 1546 342 q 1396 371 1460 342 q 1318 454 1318 407 q 1331 510 1318 458 q 1344 567 1344 563 q 1315 632 1344 575 q 1275 632 1310 632 q 1243 618 1244 632 l 838 610 q 827 614 833 610 q 817 618 821 618 l 358 614 q 346 628 356 614 q 293 629 336 629 l 293 649 q 63 675 258 654 q 49 701 64 699 q 18 700 33 700 l 18 774 l 56 774 q 58 796 60 781 l 286 822 q 290 844 290 828 q 313 849 297 849 q 336 849 324 849 q 357 863 353 850 l 567 863 q 569 896 571 876 q 678 917 606 904 q 686 925 681 919 q 714 926 692 926 q 743 925 735 926 q 756 919 747 922 q 794 915 764 915 l 1461 924 q 1511 929 1476 924 q 1404 946 1461 940 q 1400 1053 1400 950 q 1525 1083 1442 1061 q 1526 1094 1526 1086 l 1622 1094 q 1625 1079 1622 1082 q 1683 1117 1636 1117 q 1722 1098 1708 1117 q 1763 1079 1736 1079 q 1789 1081 1786 1079 q 1822 1104 1799 1089 q 1871 1110 1835 1110 q 1917 1104 1896 1110 q 1934 1093 1921 1103 q 1953 1083 1947 1083 q 1961 1086 1960 1083 q 2017 1117 1963 1117 q 2069 1083 2056 1117 l 2281 1083 q 2314 1108 2286 1083 l 2460 1108 l 2460 901 q 2335 901 2460 901 q 2335 874 2335 893 l 2474 874 q 2496 862 2482 875 q 2510 843 2510 849 l 2510 738 q 2521 723 2510 733 q 2534 708 2532 713 q 2536 669 2536 703 m 1590 482 q 1569 490 1567 490 q 1546 482 1563 490 q 1551 435 1553 451 q 1531 425 1544 432 q 1488 383 1517 410 q 1471 396 1471 392 q 1478 419 1471 400 q 1486 443 1486 438 q 1443 544 1486 460 q 1382 558 1396 558 l 1371 558 q 1344 461 1344 450 q 1404 393 1344 424 q 1488 368 1454 368 q 1551 397 1533 368 q 1590 482 1571 440 z "},"N":{"ha":2790,"x_min":10,"x_max":2781,"o":"m 2781 167 q 2646 99 2764 151 q 2632 85 2642 93 q 2542 50 2601 79 q 2447 6 2494 28 q 2428 33 2440 8 q 2453 51 2432 40 l 2453 68 q 2297 403 2406 168 q 2206 588 2274 456 q 2208 606 2203 599 q 2142 607 2183 607 q 2074 606 2111 607 q 2036 604 2036 604 q 1943 618 1969 604 q 1907 678 1932 624 q 1872 733 1882 733 q 1858 725 1867 733 l 1839 725 q 1836 742 1839 739 q 1821 724 1828 724 q 1806 742 1814 724 q 1803 725 1801 738 q 1735 724 1804 724 q 1719 742 1728 724 q 1717 725 1715 738 q 1696 725 1710 725 q 1676 724 1682 724 q 1663 731 1675 724 q 1617 746 1632 731 q 1586 789 1601 768 l 1411 789 q 1376 808 1389 789 q 1353 847 1364 828 l 997 847 q 993 839 992 847 q 993 825 994 828 q 965 806 983 806 q 955 810 960 806 q 946 814 950 814 q 936 810 940 814 q 926 806 932 806 q 917 810 921 806 q 907 814 913 814 q 897 810 901 814 q 888 806 893 806 q 878 810 882 806 q 868 814 874 814 q 858 810 863 814 q 849 806 854 806 q 839 810 843 806 q 829 814 835 814 q 822 811 822 814 q 821 807 822 808 q 790 808 808 804 q 779 808 785 810 q 767 806 771 806 q 757 810 761 806 q 747 814 753 814 q 742 811 742 814 q 740 807 742 808 q 708 808 736 807 q 589 808 647 813 q 581 805 588 808 q 569 801 575 801 q 559 806 564 801 q 550 810 554 810 q 540 806 544 810 q 531 801 536 801 q 516 808 525 801 q 503 814 507 814 q 429 799 497 814 q 356 785 361 785 l 239 785 q 235 811 239 793 l 10 811 l 10 972 l 231 972 q 233 999 236 985 q 296 1004 254 1004 q 431 989 347 1004 q 507 974 514 974 q 517 976 511 974 q 531 978 524 978 q 540 974 536 978 q 550 969 544 969 q 559 974 554 969 q 569 978 564 978 q 578 974 574 978 q 588 969 583 969 q 598 974 593 969 q 607 978 603 978 q 617 974 613 978 q 626 969 621 969 q 636 974 632 969 q 646 978 640 978 q 656 974 651 978 q 665 969 660 969 q 672 972 672 969 q 674 976 672 975 q 703 975 669 975 q 824 975 703 975 q 832 978 824 975 q 846 982 840 982 q 856 978 851 982 q 865 974 860 974 q 877 978 871 974 q 888 982 883 982 q 896 978 893 982 q 904 974 899 974 q 914 978 910 974 q 924 982 918 982 q 935 978 929 982 q 946 974 940 974 q 954 978 946 974 q 974 978 963 981 q 978 1068 978 1006 q 1006 1070 986 1068 q 1032 1072 1026 1072 q 1082 1024 1082 1072 q 1081 956 1082 942 l 1638 953 q 1659 963 1642 953 q 1682 974 1676 974 l 1782 974 q 1786 969 1788 974 q 1790 965 1785 965 l 1960 965 q 1986 999 1975 993 q 2014 1004 1993 1004 q 2051 992 2039 1004 q 2074 947 2060 982 l 2085 947 q 2111 976 2100 972 q 2142 978 2115 978 q 2176 976 2163 978 q 2185 969 2175 969 l 2300 969 q 2308 1003 2300 981 q 2350 1029 2326 1029 q 2404 969 2383 1029 q 2415 985 2408 976 q 2444 990 2449 990 q 2458 990 2444 990 q 2499 989 2474 989 q 2594 990 2536 988 l 2594 778 q 2593 751 2596 756 q 2604 731 2596 746 q 2585 715 2604 715 q 2570 723 2579 715 q 2554 733 2561 731 q 2556 707 2556 733 q 2549 705 2554 707 q 2538 703 2543 703 q 2519 715 2526 703 q 2483 688 2497 701 q 2518 653 2489 660 q 2564 624 2553 644 q 2781 167 2635 471 m 2113 674 l 2113 750 q 2103 714 2108 740 q 2025 656 2049 656 q 2010 658 2013 656 l 2010 669 q 2049 718 2049 696 q 2035 750 2049 736 l 1925 750 q 1968 664 1947 707 q 2040 651 1981 651 q 2113 674 2113 651 z "},"O":{"ha":2797,"x_min":17,"x_max":2781,"o":"m 2781 276 q 2772 263 2771 268 q 2743 244 2764 254 l 2443 383 q 2356 411 2418 390 q 2297 428 2303 428 q 2278 426 2292 428 q 2260 424 2265 424 q 2199 438 2268 424 l 2447 21 q 2438 -6 2447 13 l 2422 -6 l 2157 424 q 2118 406 2146 406 q 2071 406 2069 406 q 2072 246 2074 396 q 2063 206 2071 233 l 2042 206 q 2037 225 2042 211 q 2033 247 2032 239 l 2033 406 l 1931 406 q 1883 338 1918 392 q 1840 293 1858 296 q 1838 298 1840 294 q 1836 307 1836 301 q 1889 401 1836 310 l 1029 401 q 936 428 1024 401 q 843 454 849 454 q 654 439 828 454 q 351 408 454 422 q 169 381 303 401 q 47 363 53 363 q 17 382 38 363 q 1094 625 628 592 q 1128 632 1114 626 l 1128 651 l 1119 658 l 910 658 l 910 689 l 1129 689 q 1152 701 1136 694 q 1196 708 1168 707 q 1396 717 1269 710 q 1471 740 1421 726 q 1644 778 1531 750 q 1676 806 1654 782 q 1710 836 1697 829 q 1789 861 1731 849 q 1889 874 1847 874 q 1938 865 1926 874 q 1988 808 1944 861 l 2108 808 q 2151 792 2131 808 q 2201 746 2176 768 l 2321 746 l 2321 732 q 2358 731 2325 731 q 2381 728 2372 731 q 2390 722 2383 726 q 2406 717 2396 717 q 2426 729 2418 717 l 2490 729 l 2490 615 l 2426 615 q 2406 629 2418 629 q 2392 624 2400 629 q 2381 617 2383 618 q 2324 615 2363 617 q 2321 594 2321 613 l 2199 594 l 2199 574 l 2203 567 q 2235 572 2213 567 q 2264 576 2258 576 q 2315 565 2296 576 q 2657 358 2419 500 q 2781 276 2696 331 z "},"P":{"ha":1578,"x_min":24,"x_max":1554,"o":"m 1554 394 q 1504 319 1538 369 q 1404 174 1476 275 q 1293 8 1394 158 q 1274 7 1289 8 q 1257 6 1260 6 l 1147 6 l 1147 388 q 1189 415 1164 394 l 1186 417 q 1169 419 1183 419 q 1153 418 1158 419 q 1103 363 1136 396 q 1051 321 1064 321 l 904 321 l 904 333 l 724 333 q 721 321 721 332 l 510 321 q 488 343 499 321 q 478 368 479 358 q 481 410 476 388 q 474 411 479 411 q 430 399 471 411 q 385 386 389 386 q 376 390 382 386 q 371 381 375 389 q 271 354 264 354 q 261 363 269 354 q 240 351 258 353 q 204 350 221 350 l 32 347 q 24 369 31 349 l 444 560 q 494 511 457 554 q 596 524 579 524 q 613 522 599 524 q 629 519 626 519 q 642 522 632 519 q 654 524 651 524 q 688 516 671 524 q 711 508 704 508 q 747 533 714 508 q 765 536 754 533 q 771 543 767 539 q 764 542 768 546 q 737 568 758 553 q 696 597 715 583 q 900 985 764 728 q 964 1100 921 1024 q 980 1102 968 1100 q 996 1104 992 1104 l 1133 1104 l 1133 567 l 1029 567 q 996 513 996 518 q 1006 501 996 513 l 1158 501 q 1161 515 1161 506 l 1453 524 q 1483 524 1474 524 q 1501 511 1496 522 q 1513 478 1513 488 q 1496 429 1513 447 q 1483 424 1493 428 q 1474 415 1472 421 q 1507 413 1475 415 q 1524 394 1507 396 q 1554 394 1539 394 z "},"Q":{"ha":1456,"x_min":24,"x_max":1432,"o":"m 1432 344 q 1418 317 1432 325 q 1411 334 1410 322 q 1408 351 1413 346 q 1383 300 1407 333 l 1369 300 q 1374 325 1369 307 q 1378 346 1378 343 q 1374 357 1378 356 l 1371 356 q 1364 326 1372 344 l 1353 326 q 1332 432 1349 361 q 1306 514 1324 458 q 1292 585 1301 539 q 1281 608 1288 592 q 1224 514 1264 576 q 1143 415 1199 483 q 1113 368 1135 400 q 1047 307 1083 332 q 1011 292 1036 301 q 935 269 968 275 q 856 263 897 263 q 843 265 851 263 q 832 267 835 267 q 760 269 808 267 q 690 289 733 274 q 619 314 635 310 q 613 320 618 318 q 492 365 608 322 q 390 383 446 383 q 372 381 388 383 q 353 379 357 379 q 257 395 313 379 q 203 411 201 411 q 194 404 199 411 q 189 392 190 393 q 164 375 188 390 q 186 347 169 364 q 360 231 247 304 q 525 156 399 207 q 636 111 560 139 q 715 75 663 97 q 858 29 794 49 q 875 15 865 26 q 846 8 867 8 q 819 8 825 8 q 805 17 815 10 q 790 24 794 24 q 787 20 786 24 q 783 17 788 17 q 760 22 793 17 q 676 35 718 29 q 578 61 626 43 q 546 63 567 61 q 400 92 496 71 q 269 142 361 107 q 215 172 253 153 q 164 186 196 175 q 39 321 47 258 q 31 347 38 325 q 24 383 24 369 q 27 407 24 386 q 31 436 31 428 q 39 449 33 440 q 143 604 57 525 q 176 615 154 607 q 253 656 196 629 q 317 672 276 660 q 361 694 332 679 q 388 715 369 703 q 447 733 406 724 q 504 753 488 743 q 539 789 517 765 q 582 817 554 800 q 661 846 608 824 q 669 899 663 881 q 739 940 693 914 q 743 957 742 942 q 803 1005 781 985 q 869 1065 825 1025 q 960 1110 899 1088 q 1014 1111 963 1111 q 1056 1093 1021 1111 q 1089 1066 1063 1090 q 1129 1022 1115 1042 q 1150 989 1139 1006 q 1231 893 1181 956 q 1293 789 1249 856 q 1293 769 1292 781 q 1358 703 1339 728 q 1386 633 1376 678 q 1419 413 1413 519 q 1426 378 1421 407 q 1432 344 1432 349 z "},"R":{"ha":2849,"x_min":40,"x_max":2808,"o":"m 2808 158 q 2299 99 2699 132 q 2256 81 2285 92 q 2194 65 2236 74 q 2157 64 2182 65 q 2138 -14 2150 39 q 2125 58 2133 10 q 2076 67 2097 67 q 2062 65 2069 67 q 2051 64 2054 64 q 2024 86 2038 64 q 1996 82 2014 88 q 1969 63 1983 72 q 1932 58 1961 58 q 1874 79 1897 58 l 1300 79 q 1279 56 1296 79 q 1250 54 1272 54 q 1219 56 1235 54 q 1207 78 1214 72 q 1146 83 1143 83 l 857 90 q 838 89 847 90 q 811 72 821 72 l 800 72 q 779 92 794 81 q 697 97 756 97 l 593 97 l 426 107 q 422 106 422 107 l 422 106 q 417 104 421 104 q 360 118 396 104 q 301 143 331 131 l 40 143 q 43 156 40 154 q 97 194 63 169 q 279 303 169 235 q 511 399 317 326 q 560 417 526 401 l 471 528 q 483 530 474 528 q 497 532 493 532 q 526 518 514 532 l 911 518 q 968 493 926 518 l 1013 494 q 908 540 976 519 q 793 561 840 561 q 667 553 743 561 q 551 532 576 543 q 546 542 546 532 l 1761 867 q 1757 857 1761 864 q 1319 647 1481 776 q 1326 646 1321 646 l 2667 1006 q 2563 958 2654 996 q 2275 793 2417 899 q 2075 582 2118 678 q 2214 635 2118 629 q 2369 639 2292 638 q 2571 671 2436 647 l 2571 657 q 2536 625 2554 649 q 2511 588 2524 606 q 2515 578 2513 582 q 2503 563 2515 571 q 2594 425 2558 474 q 2610 424 2600 425 q 2636 396 2619 413 q 2638 386 2638 389 q 2617 383 2622 388 l 2710 238 q 2678 217 2699 231 q 2779 211 2689 217 q 2808 218 2800 210 l 2808 158 m 2528 642 l 2508 642 q 2461 582 2497 642 l 2488 582 q 2528 642 2511 621 m 2432 628 q 2357 621 2382 621 q 2354 582 2358 604 l 2413 582 q 2432 628 2422 600 m 2335 582 l 2335 621 q 2304 617 2324 617 l 2304 582 l 2335 582 m 2289 615 l 2200 615 l 2200 582 l 2285 582 q 2287 592 2285 582 q 2289 615 2289 603 m 2182 582 l 2182 610 l 2156 610 q 2101 579 2144 611 q 2101 550 2101 568 q 2182 582 2156 585 m 2079 610 q 1986 614 2024 617 q 1986 529 1986 613 l 1999 529 q 2044 554 2036 546 q 2079 610 2056 575 m 2085 536 l 2085 564 q 2047 535 2071 553 l 2047 511 l 2051 507 q 2085 536 2065 517 m 2021 517 q 1986 510 2004 510 l 1986 475 l 2003 475 q 2021 517 2015 500 m 1957 529 l 1957 607 q 1893 581 1935 597 q 1938 529 1913 563 l 1957 529 m 1925 529 q 1908 550 1921 539 l 1908 538 q 1925 529 1911 529 m 1936 475 l 1936 510 l 1876 510 q 1849 494 1871 506 q 1833 475 1833 486 l 1936 475 m 1904 558 q 1574 664 1786 664 q 1385 647 1486 664 q 1299 631 1353 643 q 1268 590 1279 621 q 1251 553 1254 554 l 1251 497 l 1596 497 q 1621 511 1604 511 q 1735 510 1708 511 q 1744 497 1743 504 q 1772 496 1754 496 q 1818 513 1806 496 q 1811 526 1811 519 l 1704 526 l 1704 540 q 1710 543 1707 543 q 1755 545 1726 543 q 1790 549 1783 547 q 1807 556 1797 550 q 1842 557 1815 557 q 1876 556 1874 557 q 1893 547 1896 547 q 1904 558 1893 560 m 1583 474 l 1474 475 l 1474 436 q 1564 436 1504 438 q 1574 456 1567 442 q 1583 474 1581 469 m 1454 436 l 1454 475 q 1324 475 1454 475 q 1325 446 1324 457 q 1326 436 1326 435 l 1454 436 m 1308 436 l 1308 475 l 1251 475 l 1251 461 q 1292 458 1282 461 l 1292 436 l 1308 436 m 1222 461 q 1221 467 1222 463 q 1219 475 1219 472 l 1169 475 l 1169 444 q 1183 436 1176 436 q 1186 461 1183 454 l 1222 461 m 1215 497 q 1204 542 1204 519 q 1182 544 1197 542 q 1163 546 1167 546 q 1001 508 1064 546 q 1015 503 1006 508 q 1028 497 1025 497 q 1074 493 1060 493 q 1131 495 1074 493 q 1215 497 1188 497 m 1151 443 l 1151 474 l 1088 474 q 1151 443 1115 464 m 1140 438 q 1096 460 1132 442 q 1064 474 1069 475 l 1001 474 q 1140 438 1069 432 m 963 465 q 893 496 901 496 l 832 496 l 832 465 l 963 465 m 813 465 l 813 496 l 799 496 l 799 465 l 813 465 m 781 465 l 781 496 l 685 496 q 696 465 696 463 l 781 465 m 674 469 q 663 496 669 479 l 585 496 q 640 464 597 464 q 674 469 663 464 m 581 465 q 563 496 569 483 l 542 496 q 561 465 549 483 l 581 465 z "},"S":{"ha":1410,"x_min":11,"x_max":1399,"o":"m 1396 576 l 1189 576 q 1119 615 1181 576 q 1053 658 1065 647 l 1047 658 l 1047 583 q 1035 576 1043 576 l 932 576 l 932 890 l 1144 890 q 1171 886 1150 890 q 1271 788 1271 861 q 1225 706 1271 735 q 1214 693 1214 699 q 1231 676 1214 685 q 1257 667 1247 667 l 1396 667 l 1396 576 m 910 579 l 806 579 q 782 626 799 594 l 717 626 q 703 581 706 596 l 600 581 l 600 590 l 682 894 l 818 894 l 910 579 m 1399 463 q 1397 457 1399 461 q 1397 453 1397 454 l 1257 453 q 1247 439 1247 451 q 1267 422 1247 428 q 1290 418 1279 421 q 1363 319 1363 394 q 1315 247 1363 272 q 1229 228 1279 228 l 974 229 q 957 235 968 231 q 833 311 915 261 q 832 293 832 308 l 832 231 l 714 231 l 714 547 l 921 547 q 981 533 946 549 q 1051 439 1051 504 q 1046 400 1051 424 q 1006 358 1038 371 q 997 346 997 354 q 999 339 997 349 q 1039 319 1018 319 l 1213 319 q 1221 331 1218 319 q 1192 350 1221 344 q 1164 361 1185 351 q 1140 375 1149 369 q 1106 451 1106 403 q 1178 539 1106 519 q 1207 547 1208 547 l 1399 547 q 1397 496 1397 517 q 1399 472 1399 482 q 1399 463 1399 463 m 635 801 l 540 801 l 540 579 l 428 579 l 428 760 q 428 801 428 774 l 292 803 q 274 789 274 803 q 283 776 274 778 q 324 765 310 771 q 372 724 354 754 q 385 674 385 703 q 299 586 385 600 q 292 583 297 585 q 283 581 286 581 l 14 581 l 14 671 l 232 671 q 246 682 246 671 q 225 700 246 693 q 200 706 213 703 q 154 736 164 725 q 131 801 131 763 q 153 858 131 832 q 210 890 176 883 q 242 896 243 896 l 635 896 l 635 801 m 699 232 l 596 232 q 574 276 589 247 q 538 281 571 281 q 505 278 508 281 q 489 233 501 275 l 388 233 l 464 549 l 600 549 l 699 232 m 424 540 l 343 232 l 264 232 q 250 236 251 232 q 222 303 240 258 q 192 233 219 299 l 96 233 l 11 551 l 124 551 q 164 417 138 499 q 215 510 192 458 q 224 517 217 514 l 271 414 q 275 418 272 415 q 310 551 285 461 l 424 551 l 424 540 m 1163 771 q 1156 793 1163 786 q 1135 804 1144 806 l 1043 804 l 1043 740 l 1139 740 q 1163 771 1163 740 m 776 690 l 776 696 q 751 769 767 719 q 738 732 743 757 q 725 692 731 703 q 776 690 738 689 m 946 424 q 906 460 946 460 q 825 458 879 460 l 825 393 l 924 393 q 939 405 932 393 q 946 424 946 417 m 564 344 q 539 421 557 367 q 533 425 538 422 q 513 344 529 403 q 564 344 563 344 z "},"T":{"ha":528,"x_min":29,"x_max":499,"o":"m 499 51 q 485 31 499 39 q 324 10 451 10 q 300 11 322 10 q 278 11 279 11 q 251 1 276 11 q 194 -8 226 -8 q 172 -7 193 -8 q 150 -7 151 -7 q 140 -3 157 -7 q 114 11 124 1 q 92 17 106 17 q 82 15 90 17 q 72 15 75 15 q 43 33 57 15 q 29 63 29 50 q 42 124 29 65 q 103 374 81 300 q 106 414 106 388 q 104 431 106 424 q 91 445 100 433 q 82 479 82 457 q 53 511 54 500 q 51 518 51 517 q 65 560 51 510 q 90 663 79 610 q 100 764 94 713 q 135 857 107 822 q 108 903 108 881 q 114 919 108 911 q 136 947 128 936 q 175 1040 149 979 q 242 1100 201 1100 q 269 1096 257 1100 q 286 1089 276 1094 q 297 1054 290 1078 q 340 988 306 1038 q 364 925 364 953 q 357 907 364 917 q 347 890 350 897 q 400 767 375 874 q 421 696 410 725 q 440 653 426 676 q 463 599 463 613 q 458 569 463 586 q 421 485 446 521 q 401 462 413 474 q 390 449 390 450 q 395 436 390 447 q 401 419 400 425 q 408 381 403 414 q 433 251 418 325 q 469 93 446 199 q 485 73 471 83 q 499 51 499 63 m 288 954 q 275 967 288 967 q 261 954 261 967 q 274 942 261 942 q 288 954 288 942 m 217 947 q 204 958 217 958 q 190 946 190 958 q 204 935 190 935 q 217 947 217 935 z "},"U":{"ha":546,"x_min":25,"x_max":521,"o":"m 521 729 l 519 510 q 517 472 517 488 l 517 400 q 481 376 517 376 q 440 393 461 376 l 449 217 l 449 129 l 456 46 q 432 25 456 25 q 421 25 431 25 q 408 26 411 26 q 386 14 393 26 q 360 16 378 14 q 342 18 342 18 q 329 13 335 18 q 317 0 322 3 q 271 -11 301 -11 q 242 -4 258 -11 q 250 21 239 3 q 267 46 267 44 q 274 76 268 56 q 250 82 274 76 q 229 90 221 90 q 214 88 231 90 q 206 65 213 79 q 192 56 204 63 q 185 36 190 49 q 161 32 171 32 q 154 33 160 32 q 147 33 149 33 q 142 38 146 38 q 97 19 154 38 q 76 19 96 19 q 25 38 25 19 q 39 51 25 46 q 58 58 47 54 q 82 69 68 63 q 108 96 101 81 q 113 132 113 103 q 101 251 113 156 q 92 285 100 257 q 83 326 83 313 l 93 389 q 86 425 86 414 q 99 474 86 429 q 107 503 103 483 q 119 574 119 565 q 113 588 119 572 q 101 639 101 618 q 110 667 101 646 q 119 689 119 688 q 118 701 118 682 q 122 762 118 751 q 135 794 125 772 q 144 818 144 817 q 138 835 144 819 q 132 854 132 851 q 132 858 132 857 q 172 903 149 868 q 181 925 176 908 q 186 953 182 932 q 199 986 186 954 q 206 1022 207 1008 q 217 1077 201 1054 q 258 1100 233 1100 q 311 1051 299 1100 q 326 1007 317 1036 q 328 987 325 999 q 343 960 332 975 q 422 917 368 950 q 442 888 429 906 q 493 813 458 864 q 521 729 514 776 z "},"V":{"ha":1722,"x_min":22,"x_max":1700,"o":"m 1700 400 q 1685 376 1700 397 q 1669 374 1679 376 q 1476 336 1654 372 q 1465 292 1465 310 l 1465 269 q 1560 219 1525 263 q 1592 132 1592 182 q 1552 38 1592 79 q 1461 -3 1513 -3 q 1447 0 1458 -3 q 1432 3 1435 3 q 1369 32 1403 3 q 1329 94 1336 61 q 1325 100 1329 96 l 1314 100 q 1311 94 1314 100 q 1265 93 1293 96 q 1230 38 1261 69 q 1168 1 1199 6 q 1135 -3 1143 -3 q 1063 21 1099 -3 q 1007 94 1019 50 q 1003 100 1006 96 l 946 100 q 889 19 932 47 q 807 -6 853 -6 q 762 7 792 -6 q 721 33 732 19 q 682 97 707 57 q 679 82 678 94 q 624 81 653 83 q 489 -8 576 -8 q 444 4 474 -8 q 404 28 414 17 q 368 79 386 49 q 349 92 358 79 l 342 92 q 326 82 342 82 q 300 82 314 82 q 175 -6 256 -6 q 77 35 117 -6 q 38 131 38 76 q 72 219 38 181 q 172 263 107 257 q 161 267 168 267 q 160 286 160 268 q 147 289 160 286 q 135 309 139 307 q 117 311 132 311 q 97 308 113 311 q 78 306 82 306 q 60 322 72 306 q 42 338 49 338 q 37 336 38 338 q 35 335 36 335 q 28 348 33 338 q 22 363 22 358 q 39 421 22 369 q 51 469 44 444 q 72 503 57 494 q 64 513 64 513 q 74 544 64 517 q 158 560 121 556 q 160 582 157 571 q 115 592 147 590 q 64 593 64 593 l 64 607 q 74 610 67 607 q 83 613 81 613 q 101 611 88 613 q 118 610 114 610 q 199 629 158 610 q 240 649 240 649 q 256 640 239 649 q 292 624 268 636 q 314 592 299 618 q 325 586 317 586 q 343 589 328 586 q 363 592 358 592 q 378 586 367 592 q 393 581 390 581 q 417 583 397 581 q 440 586 436 586 q 477 583 442 586 q 531 581 513 581 q 549 608 535 593 q 715 676 606 629 q 760 681 726 681 q 765 674 763 681 q 772 668 768 668 q 777 669 776 668 q 779 671 778 671 q 824 654 778 654 q 856 654 836 654 q 886 706 865 672 q 908 719 893 710 q 916 732 911 725 q 932 739 921 739 q 949 728 935 739 q 967 718 963 718 q 996 719 971 718 q 1024 721 1021 721 q 1038 715 1022 721 q 1031 701 1038 714 l 1017 701 q 1011 707 1017 707 q 990 697 990 707 q 1015 654 990 696 l 1333 654 q 1344 682 1338 661 q 1357 885 1357 763 q 1349 914 1357 888 q 1342 944 1342 940 q 1344 953 1342 949 q 1347 957 1347 957 q 1349 1011 1349 975 q 1386 1026 1365 1029 q 1399 1094 1392 1050 q 1404 1022 1404 1064 q 1429 1019 1413 1021 q 1442 1011 1438 1018 l 1442 938 q 1447 929 1447 932 q 1440 910 1447 926 q 1433 892 1433 894 q 1451 656 1433 747 q 1460 641 1453 651 q 1471 631 1468 631 q 1475 632 1475 631 q 1478 633 1475 633 q 1540 603 1479 633 q 1547 590 1540 597 q 1672 526 1589 569 q 1674 503 1676 514 q 1683 492 1678 499 q 1693 442 1686 481 q 1700 400 1700 404 z "},"W":{"ha":681,"x_min":28,"x_max":653,"o":"m 653 576 q 618 575 640 576 q 617 569 618 572 q 593 567 589 567 l 592 565 l 592 560 q 599 558 593 558 l 567 490 q 585 457 585 481 q 565 422 585 431 l 565 0 l 421 0 q 375 124 417 8 q 285 369 343 206 q 276 408 283 383 q 254 410 258 410 l 213 410 q 208 407 211 410 l 193 407 l 193 419 l 207 419 q 210 419 210 421 q 213 417 211 417 q 260 422 243 417 l 260 432 l 175 432 q 117 422 150 432 q 43 401 79 413 q 39 413 44 407 q 28 424 33 418 l 219 554 q 240 544 228 550 l 258 544 q 260 554 261 547 l 350 554 q 376 572 350 554 l 235 572 l 167 661 l 415 1110 l 561 1110 l 653 576 z "},"X":{"ha":532,"x_min":24,"x_max":508,"o":"m 508 513 q 499 471 508 489 q 468 446 496 467 l 463 446 q 460 454 460 450 q 467 470 460 457 q 475 486 475 483 q 472 499 475 494 q 460 490 464 489 q 456 492 458 490 q 456 510 456 497 q 454 524 454 522 q 459 546 454 538 q 464 556 464 554 q 438 599 464 546 q 401 714 415 644 q 376 740 396 719 q 363 696 369 735 l 363 642 q 361 635 363 640 q 360 628 360 629 q 367 601 360 633 q 372 568 368 592 q 396 500 382 546 q 414 383 414 426 q 410 362 414 382 q 406 340 406 342 q 417 301 406 350 q 432 246 429 294 q 428 240 428 239 l 428 181 q 431 176 428 179 q 433 174 433 174 q 432 140 433 171 q 429 136 429 136 q 431 129 429 133 q 433 124 433 125 q 433 104 435 115 q 440 86 435 99 q 472 46 453 72 q 496 25 481 40 q 501 6 497 18 l 501 0 q 464 -7 479 -7 q 426 10 438 -7 q 408 28 414 28 q 404 26 406 28 q 400 26 403 26 q 376 36 401 26 q 379 99 374 60 q 372 111 372 106 q 375 117 372 113 q 378 122 378 121 q 367 137 378 122 q 356 160 357 151 q 357 179 354 163 q 342 231 340 200 q 336 236 340 232 l 336 275 q 346 285 336 276 q 326 322 340 299 q 274 433 279 385 q 269 454 274 440 q 261 364 261 375 q 264 355 261 363 q 265 344 267 347 q 261 324 265 339 q 257 307 257 310 q 265 287 257 306 q 272 267 272 268 q 269 260 272 265 q 267 253 267 256 q 267 241 265 249 q 269 232 269 233 l 269 183 q 264 172 269 181 q 265 151 265 149 q 263 141 265 147 q 261 132 261 135 q 261 125 261 126 q 271 108 271 100 q 264 94 271 104 q 275 54 275 79 q 274 31 275 39 q 251 22 260 22 q 247 24 250 22 q 242 26 243 26 q 201 7 228 18 q 188 7 200 7 q 153 17 158 7 q 157 39 153 31 q 183 51 167 43 q 193 68 186 57 q 207 82 197 72 q 207 86 207 83 q 200 97 207 88 q 200 122 199 108 q 194 133 194 126 q 194 146 194 140 q 183 169 190 154 q 186 179 183 171 q 175 246 183 201 q 171 260 171 267 q 175 290 171 275 q 178 294 175 292 q 181 299 181 297 q 178 303 181 300 q 168 346 179 317 q 143 510 143 413 q 156 606 143 574 q 164 640 156 618 l 164 704 q 156 716 160 707 q 146 747 153 725 q 103 678 136 724 q 90 626 108 647 q 107 613 100 615 q 100 605 106 606 q 90 601 94 604 q 75 592 85 599 q 79 576 79 578 l 79 558 q 54 551 63 551 q 24 589 24 551 q 26 613 24 588 q 30 615 26 613 q 33 619 33 618 q 31 644 33 622 q 28 668 28 667 q 53 725 28 679 q 63 764 56 738 q 79 790 67 774 q 79 810 79 797 q 94 847 78 828 q 129 871 110 867 q 175 914 144 900 q 197 931 182 919 q 210 942 203 933 q 211 982 211 950 q 211 990 211 981 q 204 1008 204 996 q 207 1029 204 1018 q 211 1035 211 1035 l 211 1076 q 222 1088 211 1081 q 238 1096 233 1096 q 239 1094 239 1096 q 242 1094 239 1094 q 246 1097 242 1094 q 257 1100 250 1100 q 317 1083 286 1100 q 324 1065 324 1081 q 318 1025 324 1063 q 319 1014 317 1021 q 307 981 326 994 q 302 955 306 969 q 299 947 299 940 q 332 913 299 932 q 369 897 357 899 q 403 888 381 894 q 419 868 408 885 q 436 833 426 856 q 436 804 435 824 q 450 764 440 792 q 454 743 451 757 q 461 735 457 740 q 499 557 493 651 q 501 549 500 554 q 508 513 508 526 m 475 500 l 475 504 l 472 504 l 472 500 l 475 500 z "},"Y":{"ha":454,"x_min":24,"x_max":429,"o":"m 429 -1 q 426 -11 429 -1 l 372 -11 q 336 18 367 -11 q 328 22 336 18 q 319 36 319 25 q 322 41 319 40 q 324 48 324 42 q 325 72 324 54 q 328 78 325 75 q 332 85 332 82 q 328 93 332 86 q 324 104 324 100 q 328 121 324 94 q 322 144 328 131 q 310 167 310 165 q 308 197 310 176 q 303 217 306 204 q 301 249 301 229 q 297 256 297 257 q 306 272 297 251 q 308 293 304 279 q 291 321 296 304 q 281 353 286 338 q 247 414 268 374 q 231 476 244 422 q 222 476 228 475 l 165 283 q 171 267 165 274 q 176 254 176 261 q 171 246 176 263 q 171 217 172 238 q 155 178 169 208 q 140 140 140 149 q 140 99 142 121 q 140 79 139 88 q 143 76 140 79 q 144 71 146 74 l 144 28 q 118 25 136 28 q 89 13 110 22 q 65 3 68 3 q 25 17 29 3 q 31 36 24 31 q 54 53 38 42 q 86 106 86 81 q 84 112 86 107 q 82 119 82 117 q 85 135 83 124 q 75 153 81 140 q 78 164 76 150 q 76 207 76 151 l 76 251 q 74 256 76 253 q 72 263 72 260 q 86 281 72 264 q 89 293 86 285 q 103 333 94 318 q 101 374 103 347 q 100 494 96 451 q 108 544 101 510 q 114 578 114 578 q 110 582 114 576 q 78 660 99 607 q 76 718 76 667 q 74 742 76 725 q 72 761 72 760 q 88 832 72 792 q 94 879 88 847 q 106 890 94 882 q 146 914 122 904 q 156 921 149 917 q 217 946 176 933 l 217 956 q 210 967 213 960 q 203 982 207 975 q 197 986 201 983 q 192 1015 189 1008 q 182 1024 189 1018 q 194 1069 188 1047 q 226 1101 207 1101 q 249 1092 235 1101 q 253 1094 250 1092 q 260 1096 257 1096 q 290 1057 279 1096 q 294 1026 292 1053 q 299 1011 299 1021 q 290 985 299 994 q 289 982 289 985 q 293 964 289 981 q 299 940 297 947 q 336 910 313 928 q 358 901 343 907 q 383 889 374 896 q 407 864 400 878 q 408 821 407 850 q 416 798 411 813 q 421 763 421 783 q 418 733 421 754 q 414 708 415 711 q 411 658 415 690 q 368 567 408 644 q 368 554 368 567 q 371 499 369 535 q 365 497 369 499 q 375 344 376 444 q 378 333 375 342 q 382 321 382 325 q 385 288 382 308 q 390 280 388 285 q 393 261 393 275 l 385 131 q 387 117 385 129 q 389 100 389 106 q 389 82 388 94 q 400 64 393 76 q 407 40 403 53 q 424 21 411 26 q 429 -1 429 6 m 361 707 q 350 736 361 708 q 342 726 343 728 q 335 691 340 717 q 329 664 329 665 l 329 604 q 333 595 329 601 q 335 588 336 589 q 346 613 346 604 l 346 671 q 353 690 346 674 q 361 707 361 706 m 156 729 q 154 743 156 731 q 154 758 154 754 q 146 768 150 767 q 140 740 147 760 q 132 717 132 719 q 144 676 132 724 q 156 729 156 696 z "},"Z":{"ha":443,"x_min":19,"x_max":424,"o":"m 424 10 q 388 -10 424 -10 q 353 1 368 -10 q 325 29 332 17 q 328 60 322 35 q 328 97 332 81 q 308 143 325 106 q 290 190 306 150 q 286 218 286 206 q 288 239 288 235 q 285 251 285 256 q 288 265 285 254 q 292 276 292 275 q 281 294 292 279 q 269 314 271 308 q 267 326 268 319 q 253 344 261 332 q 221 442 251 346 q 211 407 218 429 q 193 367 207 394 q 188 333 188 356 q 190 322 188 332 q 192 307 192 311 q 192 278 193 296 q 192 249 192 254 q 193 242 192 247 q 194 235 194 238 q 190 224 194 233 q 186 210 186 215 q 188 181 188 200 q 167 129 182 146 q 147 85 143 106 q 151 76 149 82 q 142 26 154 40 q 96 7 119 19 q 61 0 81 0 q 19 17 19 0 q 37 37 19 26 q 54 47 54 47 q 63 67 56 54 q 82 96 69 75 q 90 142 88 111 q 97 192 94 182 q 103 200 97 196 q 110 244 100 215 l 110 303 q 108 313 110 304 q 107 324 107 321 q 107 339 107 336 q 113 350 107 340 q 114 353 114 349 q 109 365 114 354 q 104 381 104 376 q 101 413 101 394 q 104 436 101 415 q 107 458 107 457 l 107 514 q 111 550 107 528 q 118 576 113 563 q 142 643 142 636 q 138 647 142 644 q 135 653 135 650 q 135 668 135 667 q 139 672 136 669 q 142 679 142 675 q 129 694 142 685 q 117 711 117 703 q 85 721 100 721 q 79 719 82 721 q 75 718 76 718 q 58 742 58 718 q 61 752 58 749 q 65 764 64 756 q 71 786 67 772 q 89 799 78 790 q 122 835 96 811 q 122 868 121 846 q 126 878 124 871 q 160 913 133 900 q 206 935 204 933 q 196 946 203 939 q 139 961 176 950 q 138 967 138 967 q 150 991 138 968 q 167 1028 163 1014 q 171 1056 167 1038 q 214 1099 186 1093 q 244 1101 226 1101 q 271 1099 261 1101 q 281 1090 274 1096 q 321 1044 294 1086 q 357 972 325 1036 l 357 965 q 300 947 336 957 l 300 943 q 371 910 360 919 q 389 851 389 894 q 381 817 389 832 q 344 756 381 817 q 338 742 340 751 q 328 678 339 719 q 328 675 328 676 q 331 671 329 674 q 328 658 333 661 q 331 654 328 658 q 331 643 333 651 q 328 642 331 643 q 328 639 328 640 q 338 606 340 631 q 336 567 338 593 q 333 549 335 546 q 346 454 346 506 q 340 393 346 414 q 339 376 339 383 q 344 360 339 375 q 351 338 350 346 q 351 310 353 326 q 360 300 354 307 q 361 281 360 293 q 376 236 368 265 q 389 217 389 224 q 387 203 389 214 q 385 190 385 193 l 385 139 q 383 119 385 136 q 382 99 382 101 q 383 63 382 67 q 421 24 396 51 q 424 10 424 19 z "},"[":{"ha":626,"x_min":19,"x_max":607,"o":"m 607 511 q 604 500 607 511 q 601 496 604 500 q 594 490 597 492 q 583 476 592 476 q 581 476 582 476 q 578 478 579 478 q 573 474 575 478 q 568 471 571 471 q 552 488 563 471 q 538 508 542 506 q 528 491 531 504 q 511 472 525 478 q 510 483 510 476 q 512 499 510 483 q 515 532 514 515 q 522 547 518 538 q 529 575 529 568 q 528 579 529 576 q 526 583 526 582 q 511 633 526 594 q 497 667 508 646 q 465 699 486 689 q 464 686 465 694 l 431 718 q 428 696 429 715 q 415 682 426 683 q 447 631 443 640 q 458 572 458 607 q 431 471 458 526 q 394 410 421 450 q 381 406 389 408 q 369 396 374 403 q 356 363 356 369 q 359 353 356 360 q 364 344 363 347 q 376 250 372 311 q 443 200 400 233 q 456 172 453 190 q 464 163 458 169 q 461 147 467 156 q 464 144 464 149 l 463 142 q 464 126 465 133 q 444 100 460 114 q 422 81 422 82 q 411 64 418 75 q 406 63 410 63 q 390 72 393 63 q 376 56 388 67 q 378 42 378 51 q 365 28 378 42 q 365 13 367 24 q 349 -7 360 -1 q 331 -12 338 -12 q 322 -9 329 -12 q 311 -6 314 -6 q 301 -8 310 -6 q 290 -11 292 -11 q 272 -7 285 -11 q 265 -3 271 -7 q 257 1 260 1 q 249 -1 256 1 q 240 -4 242 -4 q 228 14 232 -4 q 239 31 228 18 q 251 40 246 36 q 263 53 263 47 q 257 58 263 53 q 255 72 257 63 q 253 83 253 81 q 261 113 253 79 q 271 217 271 153 q 258 247 271 235 q 207 296 240 263 q 176 335 193 311 q 174 422 164 374 q 168 438 168 435 q 211 567 168 440 q 219 607 218 586 q 225 665 221 628 q 233 685 228 671 q 224 692 228 686 q 226 704 225 686 q 224 742 228 736 q 190 714 211 735 q 163 688 169 693 q 136 683 156 683 q 110 688 133 683 q 85 692 86 692 q 76 686 81 692 q 76 675 76 683 l 67 675 l 64 678 q 51 657 58 671 q 29 644 40 658 q 19 656 19 656 q 22 663 19 657 q 25 672 25 669 q 57 719 31 703 q 81 726 68 726 q 96 729 88 726 q 125 738 104 732 q 153 742 135 738 q 183 775 168 751 q 197 808 188 788 q 229 838 208 818 q 215 882 221 864 q 207 888 213 885 q 208 910 208 896 q 194 961 203 928 q 190 968 192 965 q 186 980 188 971 q 185 992 185 989 q 185 1000 185 997 q 211 1042 199 1010 q 211 1090 206 1054 q 221 1101 214 1093 q 237 1087 233 1097 q 243 1067 240 1076 q 261 1078 251 1078 q 274 1072 256 1078 q 281 1091 276 1082 q 294 1101 286 1100 q 306 1079 306 1088 q 303 1051 307 1065 q 360 1000 322 1035 q 361 993 361 1000 q 369 979 367 988 q 369 976 369 978 q 378 958 381 964 q 399 933 386 950 q 412 910 406 922 q 429 894 418 899 q 447 878 435 893 q 435 878 444 876 q 469 824 457 847 q 479 804 472 815 q 517 775 492 796 q 531 743 524 769 q 540 708 535 732 q 557 622 549 653 q 571 579 561 608 q 589 556 571 579 q 607 511 607 533 m 319 944 q 317 967 319 960 q 311 978 311 983 q 307 946 307 953 q 317 921 307 944 q 318 934 317 925 q 319 944 319 943 m 268 367 q 267 385 268 374 q 260 371 260 367 q 268 367 263 367 z "},"\\":{"ha":447,"x_min":24,"x_max":424,"o":"m 424 707 q 401 668 424 703 q 386 654 394 658 q 365 650 378 650 q 357 650 364 650 q 349 651 350 651 q 335 648 339 651 q 327 642 332 644 q 315 639 322 640 q 321 611 317 629 q 324 603 321 608 q 328 596 328 597 q 324 567 328 583 q 315 561 321 565 q 328 531 321 551 q 331 504 331 517 l 331 451 q 335 436 331 450 q 339 419 339 422 q 311 386 339 413 q 317 360 310 375 q 326 332 326 333 q 326 292 325 318 q 345 251 331 279 q 360 221 360 222 q 353 208 360 218 q 363 203 357 207 q 363 188 361 197 q 368 174 368 169 q 365 157 368 168 q 360 150 363 154 q 360 138 360 149 q 364 135 361 136 q 363 111 364 129 q 357 104 357 104 q 360 89 357 97 q 372 56 365 76 q 372 39 372 50 q 376 28 374 35 q 381 13 378 22 q 381 4 381 11 q 338 -8 367 -8 q 281 1 322 -8 l 281 13 q 283 15 281 11 q 282 40 283 44 q 287 45 283 42 q 290 53 290 49 q 289 76 290 57 q 289 104 288 94 q 291 111 289 106 q 293 118 293 117 q 285 131 293 121 q 278 153 276 140 q 272 165 278 154 q 265 181 265 175 q 268 186 265 183 q 250 190 263 186 q 238 213 244 194 q 221 267 228 240 q 213 294 218 275 q 206 258 206 267 q 209 244 206 256 q 213 232 213 233 q 208 224 213 229 q 203 217 203 218 q 208 200 203 213 q 215 193 210 199 q 214 149 214 179 q 219 142 217 146 q 219 135 219 140 q 213 115 219 121 q 217 108 213 118 q 221 88 221 97 q 219 57 221 97 q 183 49 207 56 q 157 28 175 40 q 106 14 126 14 q 54 39 86 14 q 61 64 57 42 q 89 75 72 64 q 104 101 93 83 q 133 124 107 106 q 131 140 132 129 q 122 188 131 165 q 124 203 122 186 q 122 213 124 206 q 121 221 121 219 q 115 224 121 222 q 97 268 97 268 l 115 354 q 75 374 86 361 q 24 442 24 433 q 46 510 24 439 q 54 528 49 515 q 61 560 56 539 q 72 583 63 567 q 81 601 81 600 q 75 628 81 614 q 66 636 72 635 q 49 639 60 638 q 43 649 46 643 q 39 726 39 672 q 40 749 39 747 q 51 771 44 756 q 64 831 54 804 q 85 867 72 842 q 83 893 83 864 q 94 903 83 900 q 140 911 104 907 q 154 914 144 911 q 158 929 156 918 q 139 933 140 933 q 131 931 136 933 q 122 942 133 940 q 128 949 124 942 q 119 953 124 953 q 122 958 121 956 q 117 964 119 964 q 119 971 118 968 q 113 975 119 971 q 117 981 113 978 q 110 986 117 982 q 112 987 110 986 q 115 989 114 988 q 106 993 113 993 q 114 999 108 996 l 114 1007 q 107 1011 111 1008 q 114 1015 111 1013 q 108 1025 113 1018 q 114 1032 114 1029 q 113 1044 117 1035 q 117 1050 113 1046 q 113 1051 114 1051 q 118 1057 114 1056 q 113 1068 113 1069 q 124 1067 119 1065 q 117 1076 119 1069 q 122 1075 118 1076 q 121 1081 122 1075 q 128 1079 128 1079 q 136 1088 136 1082 q 136 1090 136 1089 q 143 1086 142 1090 q 151 1096 147 1089 q 156 1093 153 1096 q 157 1096 156 1093 q 160 1099 158 1099 q 164 1094 160 1099 q 166 1097 165 1094 q 168 1099 167 1099 l 174 1093 q 179 1097 175 1093 q 186 1093 182 1097 q 193 1100 188 1094 q 197 1096 193 1100 l 201 1099 q 206 1093 213 1093 q 213 1094 204 1093 q 218 1088 213 1088 q 222 1089 219 1088 q 225 1090 224 1090 q 230 1086 226 1090 q 236 1082 233 1082 q 240 1083 233 1082 q 246 1071 240 1081 q 251 1076 249 1074 q 254 1061 254 1067 q 264 1063 253 1061 q 286 1026 272 1050 q 307 972 307 988 q 299 963 307 971 q 292 953 292 954 q 293 942 292 951 q 294 931 294 933 q 356 911 325 921 q 396 883 388 901 q 406 838 399 867 q 414 829 408 835 q 415 804 415 801 q 414 778 415 788 q 410 764 410 760 q 417 736 410 763 q 424 707 424 710 m 242 1075 l 242 1079 l 239 1079 l 239 1075 l 242 1075 z "}}}
